<svg xmlns="http://www.w3.org/2000/svg" width="21" height="24" viewBox="0 0 21 24" fill="none">
<path d="M16.9149 12.6461C16.9047 10.785 17.7465 9.38035 19.4504 8.34587C18.497 6.98178 17.0569 6.23128 15.1553 6.08422C13.3551 5.94223 11.3875 7.13391 10.6675 7.13391C9.90681 7.13391 8.16239 6.13493 6.79323 6.13493C3.96363 6.18057 0.956543 8.39151 0.956543 12.8895C0.956543 14.2181 1.19995 15.5906 1.68676 17.0071C2.33585 18.8681 4.67864 23.432 7.12284 23.3559C8.40073 23.3255 9.30336 22.4482 10.9666 22.4482C12.5792 22.4482 13.4159 23.3559 14.8409 23.3559C17.3054 23.3204 19.425 19.1724 20.0437 17.3063C16.7374 15.7495 16.9149 12.7424 16.9149 12.6461ZM14.0447 4.31952C15.4291 2.67653 15.3023 1.18059 15.2618 0.643066C14.0396 0.71406 12.6248 1.47471 11.8186 2.41284C10.9311 3.41689 10.4088 4.65928 10.5204 6.05886C11.8439 6.16028 13.0508 5.48077 14.0447 4.31952Z" fill="black"/>
</svg>