<svg xmlns="http://www.w3.org/2000/svg" width="20" height="20" viewBox="0 0 20 20" fill="none">
<path d="M18.8884 8.22469H18.1582V8.18708H10.0001V11.8129H15.1229C14.3756 13.9236 12.3673 15.4387 10.0001 15.4387C6.99657 15.4387 4.56137 13.0035 4.56137 9.99999C4.56137 6.99644 6.99657 4.56125 10.0001 4.56125C11.3865 4.56125 12.6479 5.08428 13.6083 5.93861L16.1722 3.3747C14.5532 1.8659 12.3877 0.935425 10.0001 0.935425C4.9942 0.935425 0.935547 4.99408 0.935547 9.99999C0.935547 15.0059 4.9942 19.0646 10.0001 19.0646C15.006 19.0646 19.0647 15.0059 19.0647 9.99999C19.0647 9.39221 19.0021 8.79893 18.8884 8.22469Z" fill="#FFC107"/>
<path d="M1.98071 5.78089L4.95888 7.96499C5.76471 5.96988 7.71632 4.56125 10.0001 4.56125C11.3866 4.56125 12.6479 5.08428 13.6083 5.93861L16.1722 3.3747C14.5533 1.8659 12.3877 0.935425 10.0001 0.935425C6.51843 0.935425 3.49903 2.90108 1.98071 5.78089Z" fill="#FF3D00"/>
<path d="M10.0001 19.0646C12.3415 19.0646 14.469 18.1685 16.0775 16.7114L13.272 14.3374C12.3619 15.0268 11.2307 15.4388 10.0001 15.4388C7.64245 15.4388 5.64055 13.9354 4.88637 11.8374L1.93042 14.1149C3.43061 17.0504 6.47721 19.0646 10.0001 19.0646Z" fill="#4CAF50"/>
<path d="M18.8883 8.22475H18.1581V8.18713H10V11.813H15.1228C14.7639 12.8268 14.1117 13.7011 13.2705 14.3379C13.2709 14.3374 13.2714 14.3374 13.2719 14.337L16.0773 16.711C15.8788 16.8914 19.0646 14.5323 19.0646 10C19.0646 9.39227 19.002 8.79899 18.8883 8.22475Z" fill="#1976D2"/>
</svg>