
<svg xmlns="http://www.w3.org/2000/svg" width="64" height="89" viewBox="0 0 64 89" fill="none">
<path d="M62.7658 21.3574H26.9444C25.7292 20.0665 24.1896 19.1933 22.5186 18.8473C20.8475 18.5013 19.1195 18.6979 17.5511 19.4124C15.9827 20.127 14.6438 21.3277 13.7023 22.864C12.7607 24.4004 12.2585 26.2039 12.2585 28.0484C12.2585 29.893 12.7607 31.6965 13.7023 33.2328C14.6438 34.7691 15.9827 35.9699 17.5511 36.6844C19.1195 37.399 20.8475 37.5956 22.5186 37.2496C24.1896 36.9036 25.7292 36.0304 26.9444 34.7395H62.7658C63.0931 34.7395 63.407 34.5985 63.6385 34.3475C63.87 34.0966 64 33.7562 64 33.4013V22.6956C64 22.3407 63.87 22.0003 63.6385 21.7493C63.407 21.4984 63.0931 21.3574 62.7658 21.3574Z" fill="#121A21"/>
<path d="M31.5972 0H7.25009C5.63578 0 4.08759 0.695319 2.9461 1.93299C1.80461 3.17067 1.16332 4.84932 1.16332 6.59966L0 82.4003C0 84.1507 0.641284 85.8293 1.78278 87.067C2.92427 88.3047 4.47246 89 6.08678 89H30.4339C32.0482 89 33.5964 88.3047 34.7379 87.067C35.8794 85.8293 36.5207 84.1507 36.5207 82.4003L37.684 39.5979H29.5475C26.7404 42.0567 23.1517 43.2148 19.5615 42.8206C15.9712 42.4263 12.6696 40.5117 10.3741 37.4926C8.86844 35.5139 7.86119 33.1459 7.4506 30.6195C7.04002 28.093 7.24009 25.4944 8.0313 23.0768C8.82252 20.6591 10.1779 18.505 11.9654 16.8242C13.7528 15.1435 15.9114 13.9935 18.2307 13.4864C19.125 13.2969 20.034 13.2007 20.9453 13.1993C24.0772 13.1921 27.1153 14.3578 29.5459 16.4991H37.684V6.59966C37.684 4.84932 37.0427 3.17067 35.9012 1.93299C34.7597 0.695319 33.2115 0 31.5972 0ZM18.2603 54.3518C19.5981 54.345 20.9003 54.8184 21.9639 55.6982C23.0274 56.5779 23.7926 57.8146 24.1401 59.2153C24.4875 60.616 24.3977 62.1019 23.8847 63.4415C23.3716 64.781 22.4641 65.8988 21.3037 66.6206V74.1508C21.3037 74.5884 21.1434 75.008 20.858 75.3174C20.5727 75.6269 20.1856 75.8007 19.782 75.8007H16.7386C16.3351 75.8007 15.948 75.6269 15.6626 75.3174C15.3773 75.008 15.2169 74.5884 15.2169 74.1508V66.6206C14.0566 65.8988 13.1491 64.781 12.636 63.4415C12.1229 62.1019 12.0331 60.616 12.3806 59.2153C12.728 57.8146 13.4932 56.5779 14.5568 55.6982C15.6204 54.8184 16.9226 54.345 18.2603 54.3518Z" fill="#121A21"/>
</svg>