<svg xmlns="http://www.w3.org/2000/svg" width="83" height="98" viewBox="0 0 83 98" fill="none">
<path d="M77.9711 13.491L67.0281 2.91764C63.0019 -0.972547 56.4465 -0.972547 52.4203 2.91764L37.8125 17.032L48.7554 27.6054L59.6984 17.032L77.9711 34.6875C80.8716 31.8723 82.5 28.0616 82.5 24.0892C82.5 20.1169 80.8716 16.3062 77.9711 13.491Z" fill="#121A21"/>
<path d="M8.99078 56.838C11.8118 59.679 16.3542 59.679 19.1274 56.838L30.9375 44.9441L20.8009 34.6875L8.99078 46.5813C6.16974 49.4224 6.16974 53.9969 8.99078 56.838Z" fill="#121A21"/>
<path d="M56.4855 28.2161L70.7141 42.1306C71.1812 42.5858 71.5518 43.1262 71.8046 43.721C72.0574 44.3157 72.1875 44.9532 72.1875 45.5969C72.1875 46.2407 72.0574 46.8782 71.8046 47.4729C71.5518 48.0677 71.1812 48.6081 70.7141 49.0633C70.2469 49.5185 69.6924 49.8796 69.082 50.1259C68.4717 50.3723 67.8176 50.4991 67.1569 50.4991C66.4963 50.4991 65.8421 50.3723 65.2318 50.1259C64.6215 49.8796 64.0669 49.5185 63.5998 49.0633L17.2307 94.2487C13.2952 98.0838 6.88724 98.0838 2.95168 94.2487C-0.983892 90.4136 -0.983892 84.1692 2.95168 80.3341L38.6241 45.5724L22.5791 29.9369C21.8712 29.2555 21.3092 28.444 20.9256 27.5493C20.5421 26.6547 20.3446 25.6947 20.3446 24.7251C20.3446 23.7555 20.5421 22.7956 20.9256 21.9009C21.3092 21.0063 21.8712 20.1947 22.5791 19.5133C25.5055 16.6124 30.2988 16.6124 33.2757 19.5625L49.3207 35.1979L56.4855 28.2161Z" fill="#121A21"/>
</svg>