<svg xmlns="http://www.w3.org/2000/svg" width="109" height="111" viewBox="0 0 109 111" fill="none">
<path d="M78.1524 22.0751C76.6346 23.6828 75.807 25.8378 75.8518 28.0659C75.9449 32.7058 79.7195 36.3904 84.2825 36.2957C86.4737 36.2502 88.5574 35.3214 90.0752 33.7137L101.058 22.0802C103.23 26.4711 104.009 31.4387 103.289 36.2988C102.569 41.159 100.385 45.6726 97.038 49.2183C93.6907 52.7639 89.3447 55.1671 84.5985 56.097C79.8524 57.0268 74.9394 56.4376 70.5362 54.4104C64.7229 50.004 62.1437 47.4512 58.6134 42.7717C56.4418 38.3808 55.6622 33.4132 56.3821 28.5531C57.1021 23.6929 59.2861 19.1792 62.6334 15.6336C65.9807 12.088 70.3266 9.68476 75.0728 8.75491C79.819 7.82507 84.732 8.41431 89.1351 10.4415L78.1524 22.0751Z" fill="#FEF8EF"/>
<path d="M37.1031 66.0082L49.0876 77.5801L31.2954 96.8001C29.7776 98.4078 27.6939 99.3366 25.5027 99.3821C23.3115 99.4276 21.1923 98.5861 19.6112 97.0427C18.0301 95.4993 17.1168 93.3805 17.072 91.1523C17.0273 88.9241 17.8548 86.7692 19.3726 85.1615L37.1031 66.0082Z" fill="#FEF8EF"/>
<path d="M52.2262 45.2418L91.1732 82.8479C95.023 86.5652 95.2278 92.7358 91.6333 96.7086C87.9578 100.771 81.7226 100.985 77.786 97.1839L38.8391 59.5777C35.6672 56.5151 34.9696 51.7871 36.8326 47.995L18.7524 30.2457L15.3997 33.6584L5.44995 20.0094L11.6038 13.0881L25.9912 22.8777L22.6656 26.2626L40.6128 43.8813C44.2496 41.71 49.0067 42.133 52.2262 45.2418Z" fill="#FEF8EF"/>
</svg>