<svg xmlns="http://www.w3.org/2000/svg" width="111" height="111" viewBox="0 0 111 111" fill="none">
  <g clip-path="url(#clip0_529_946)">
    <path d="M38.6031 41.3665L21.1213 41.3665L20.151 43.2344L37.5338 43.2344L29.9366 56.5055H13.2575L12.2873 58.3735H28.8672L21.8705 70.5956H5.85911L10.1652 62.3176V58.3735H10.2166V56.5055H10.1652V43.2344H10.2166V41.3665H10.1652V40.3732H10.2166V36.6842H23.4991L28.4003 27.2622H46.6773L38.6031 41.3665Z" fill="#121A21"/>
    <path d="M48.8297 27.2622L40.7556 41.3665H55.9349L64.009 27.2622H48.8297Z" fill="#121A21"/>
    <path d="M66.1615 27.2622L58.0873 41.3665L74.43 41.3665L78.0403 34.322L102.568 83.7404H111.978L82.599 27.2622H66.1615Z" fill="#121A21"/>
    <path d="M73.4727 43.2344L57.0179 43.2344L49.4207 56.5055H66.6714L73.4727 43.2344Z" fill="#121A21"/>
    <path d="M65.7141 58.3735H48.3514L41.3546 70.5956H59.4503L65.7141 58.3735Z" fill="#121A21"/>
    <path d="M58.493 72.4636H40.2853L33.8297 83.7404H52.7137L58.493 72.4636Z" fill="#121A21"/>
    <path d="M31.6773 83.7404L38.1329 72.4636H22.9536L16.498 83.7404H31.6773Z" fill="#121A21"/>
    <path d="M14.3456 83.7404L20.8012 72.4636H4.88742L-0.978516 83.7404H14.3456Z" fill="#121A21"/>
    <path d="M39.6862 43.2344H54.8655L47.2683 56.5055H32.089L39.6862 43.2344Z" fill="#121A21"/>
    <path d="M31.0196 58.3735L24.0229 70.5956H39.2022L46.199 58.3735H31.0196Z" fill="#121A21"/>
    <path d="M69.0617 62.3598H77.2973V70.5955H69.0617V62.3598Z" fill="#121A21"/>
    <path d="M69.0617 72.6547H77.2973V80.8904H69.0617V72.6547Z" fill="#121A21"/>
    <path d="M87.5913 62.3598H79.3556V70.5955H87.5913V62.3598Z" fill="#121A21"/>
    <path d="M79.3556 72.6547H87.5913V80.8904H79.3556V72.6547Z" fill="#121A21"/>
  </g>
  <defs>
    <clipPath id="clip0_529_946">
      <rect width="111" height="111" fill="white"/>
    </clipPath>
  </defs>
</svg>