<svg xmlns="http://www.w3.org/2000/svg" width="110" height="111" viewBox="0 0 110 111" fill="none">
<path d="M13.75 24.9752C13.75 23.4426 14.9812 22.2002 16.5 22.2002H49.7245C51.2433 22.2002 52.4745 23.4426 52.4745 24.9752V38.1752C52.4745 39.7078 51.2433 40.9502 49.7245 40.9502H16.5C14.9812 40.9502 13.75 39.7078 13.75 38.1752V24.9752Z" fill="#121A21"/>
<path d="M13.75 50.2877C13.75 48.7551 14.9812 47.5127 16.5 47.5127H32.8878C34.4065 47.5127 35.6378 48.7551 35.6378 50.2877V63.4877C35.6378 65.0203 34.4065 66.2627 32.8878 66.2627H16.5C14.9812 66.2627 13.75 65.0203 13.75 63.4877V50.2877Z" fill="#121A21"/>
<path d="M40.6888 50.2877C40.6888 48.7551 41.92 47.5127 43.4388 47.5127H76.6633C78.1821 47.5127 79.4133 48.7551 79.4133 50.2877V63.4877C79.4133 65.0203 78.1821 66.2627 76.6633 66.2627H43.4388C41.92 66.2627 40.6888 65.0203 40.6888 63.4877V50.2877Z" fill="#121A21"/>
<path d="M13.75 75.6002C13.75 74.0676 14.9812 72.8252 16.5 72.8252H49.7245C51.2433 72.8252 52.4745 74.0676 52.4745 75.6002V88.8002C52.4745 90.3328 51.2433 91.5752 49.7245 91.5752H16.5C14.9812 91.5752 13.75 90.3328 13.75 88.8002V75.6002Z" fill="#121A21"/>
<path d="M57.5255 75.6002C57.5255 74.0676 58.7567 72.8252 60.2755 72.8252H93.5C95.0188 72.8252 96.25 74.0676 96.25 75.6002V88.8002C96.25 90.3328 95.0188 91.5752 93.5 91.5752H60.2755C58.7567 91.5752 57.5255 90.3328 57.5255 88.8002V75.6002Z" fill="#121A21"/>
</svg>