<svg xmlns="http://www.w3.org/2000/svg" width="24" height="24" viewBox="0 0 24 24" fill="none">
<path d="M17 2H7C4.23858 2 2 4.23858 2 7V17C2 19.7614 4.23858 22 7 22H17C19.7614 22 22 19.7614 22 17V7C22 4.23858 19.7614 2 17 2Z" fill="white"/>
<path d="M15.9567 11.4133C16.0802 12.2455 15.938 13.0955 15.5505 13.8423C15.163 14.5891 14.5499 15.1947 13.7984 15.5729C13.0468 15.9512 12.1952 16.0829 11.3645 15.9492C10.5339 15.8155 9.7665 15.4234 9.17158 14.8284C8.57666 14.2335 8.18447 13.4661 8.05081 12.6355C7.91714 11.8048 8.0488 10.9532 8.42706 10.2016C8.80533 9.45012 9.41092 8.83701 10.1577 8.44951C10.9045 8.06201 11.7545 7.91986 12.5867 8.04327C13.4357 8.16915 14.2216 8.56473 14.8284 9.17158C15.4353 9.77842 15.8309 10.5643 15.9567 11.4133Z" stroke="#0B2E1C" stroke-width="2" stroke-linecap="round" stroke-linejoin="round"/>
<path d="M17.5 6.5H17.51" stroke="#0B2E1C" stroke-width="2" stroke-linecap="round" stroke-linejoin="round"/>
</svg>