<svg xmlns="http://www.w3.org/2000/svg" width="39" height="45" viewBox="0 0 39 45" fill="none">
<path d="M38.4147 14.7073C36.1098 4.56585 27.2634 0 19.4927 0C19.4927 0 19.4927 0 19.4708 0C11.7219 0 2.85361 4.5439 0.548733 14.6854C-2.01956 26.0122 4.91703 35.6049 11.1951 41.6415C13.5219 43.8805 16.5073 45 19.4927 45C22.4781 45 25.4634 43.8805 27.7683 41.6415C34.0464 35.6049 40.9829 26.0341 38.4147 14.7073ZM19.4927 25.7049C15.6732 25.7049 12.578 22.6098 12.578 18.7902C12.578 14.9707 15.6732 11.8756 19.4927 11.8756C23.3122 11.8756 26.4073 14.9707 26.4073 18.7902C26.4073 22.6098 23.3122 25.7049 19.4927 25.7049Z" fill="#4EBA64"/>
</svg>