<svg xmlns="http://www.w3.org/2000/svg" width="40" height="39" viewBox="0 0 40 39" fill="none">
<path d="M13.8562 36.5158L1.83006 38.0063L0 29.8088L9.15032 28.3184L13.8562 36.5158Z" fill="#4EBA64"/>
<path d="M40 35.7706L29.0196 37.0127L27.1896 28.8152L35.2941 27.5732L40 35.7706Z" fill="#4EBA64"/>
<path d="M14.1311 31.4885L13.5947 31.5478L18.0392 39L26.6666 38.5032L24.8537 30.3827C24.4548 30.7257 24.0701 31.0452 23.7059 31.3398C20.9325 33.5823 16.9577 33.6318 14.1311 31.4885Z" fill="#4EBA64"/>
<path fill-rule="evenodd" clip-rule="evenodd" d="M22.0115 29.448C26.0298 26.1989 32.4183 19.9428 32.4183 13.0075C32.4183 9.55772 30.986 6.2492 28.4365 3.80982C25.887 1.37043 22.4291 0 18.8235 0C15.218 0 11.7601 1.37043 9.21059 3.80982C6.66107 6.2492 5.22877 9.55772 5.22877 13.0075C5.22877 19.9428 11.6173 26.1989 15.6355 29.448C17.495 30.9515 20.1521 30.9515 22.0115 29.448ZM25.098 12.9172C25.098 16.2098 22.2888 18.879 18.8235 18.879C15.3582 18.879 12.549 16.2098 12.549 12.9172C12.549 9.6246 15.3582 6.95541 18.8235 6.95541C22.2888 6.95541 25.098 9.6246 25.098 12.9172Z" fill="#4EBA64"/>
</svg>