<svg xmlns="http://www.w3.org/2000/svg" width="163" height="57" viewBox="0 0 163 57" fill="none">
<path d="M132.901 57C132.773 56.9829 132.645 56.9658 132.517 56.9401C132.645 56.9572 132.773 56.9743 132.901 57Z" fill="#121A21"/>
<path d="M132.901 57C132.773 56.9829 132.645 56.9658 132.517 56.9401C132.645 56.9572 132.773 56.9743 132.901 57Z" fill="#121A21"/>
<path d="M155.746 20.7592C159.752 20.7592 163 17.5002 163 13.4802C163 9.46013 159.752 6.20123 155.746 6.20123C151.74 6.20123 148.492 9.46013 148.492 13.4802C148.492 17.5002 151.74 20.7592 155.746 20.7592Z" fill="#121A21"/>
<path d="M148.296 23.8726C147.324 23.2482 146.199 22.8462 145.21 22.2303C142.312 20.4427 140.752 16.7219 141.519 13.3947C141.86 11.9235 142.593 10.5549 142.891 9.07518C143.318 6.95393 142.764 4.65306 141.425 2.95093C141.101 2.54037 140.743 2.18112 140.351 1.85609C139.038 0.70138 137.317 0 135.433 0C132.245 0 129.534 2.0015 128.46 4.81558C128.332 5.11495 128.23 5.42287 128.145 5.73935C127.275 9.06663 129.014 12.8815 132.091 14.404C133.549 15.1224 135.203 15.3534 136.694 16.012C140.471 17.697 142.593 22.4185 141.357 26.3787C140.121 30.339 135.68 32.9905 131.622 32.2036C129.858 31.8615 128.247 30.9719 126.516 30.4844C122.109 29.2527 117.029 31.0061 114.301 34.6927C113.96 35.1546 113.653 35.6507 113.389 36.1639C112.503 37.789 112.008 39.6537 112.008 41.6381C112.008 47.959 117.114 53.0911 123.422 53.0911C127.284 53.0911 130.702 51.1666 132.765 48.2156C133.77 46.8471 134.487 45.2733 134.793 43.5968C135.117 41.8604 135.041 40.0471 135.535 38.345C136.447 35.1888 139.465 32.7596 142.738 32.5458C143.838 32.4773 144.954 32.6227 146.045 32.5458C146.045 32.5458 146.045 32.5458 146.054 32.5458C148.603 32.5458 150.674 30.4673 150.674 27.9098C150.674 26.1735 149.728 24.6681 148.321 23.8726H148.296Z" fill="#121A21"/>
<path d="M7.85592 30.7684C8.46966 30.7684 8.9402 30.7273 9.26752 30.6452V25.3797C7.58996 25.9134 6.23972 26.4369 5.21682 26.9501C3.86658 27.6481 3.19147 28.3358 3.19147 29.0132C3.19147 29.5675 3.62109 29.9986 4.48033 30.3065C5.36003 30.6144 6.48522 30.7684 7.85592 30.7684ZM15.9266 37.635H15.8039C14.8014 37.635 13.799 37.4195 12.7965 36.9884C11.7941 36.5368 10.9758 35.808 10.3416 34.8022C9.4005 35.028 8.32645 35.1409 7.11942 35.1409C5.62598 35.1409 4.38827 35.0382 3.40628 34.8329C2.42429 34.6071 1.60596 34.1863 0.951302 33.5705C0.317101 32.9341 0 32.0822 0 31.0147C0 27.607 1.29909 25.1539 3.89727 23.6553C5.3498 22.8342 7.13988 22.0336 9.26752 21.2535V19.5292L13.1648 18.9441V29.044C13.1648 31.4253 14.4434 32.6159 17.0007 32.6159H17.0928C17.5633 32.6159 17.7986 33.0778 17.7986 34.0016C17.7986 34.8022 17.594 35.613 17.1848 36.4342C16.7961 37.2347 16.3767 37.635 15.9266 37.635ZM12.6124 17.4969C11.6304 16.6347 10.8837 16.0188 10.3723 15.6493L8.46966 17.774C7.44675 16.8502 6.52614 16.1112 5.70781 15.557L7.94798 12.878C8.68447 13.3707 9.44142 14.0173 10.2188 14.8179L12.0907 12.6009C12.9295 13.1346 13.8399 13.9352 14.8219 15.0027L12.6124 17.4969Z" fill="#121A21"/>
<path d="M26.576 38.1585C25.4508 38.1585 24.2745 37.9532 23.047 37.5427C21.84 37.1116 20.7659 36.5368 19.8249 35.8183C18.4133 37.0295 16.7766 37.635 14.9149 37.635H14.8229C14.3319 37.635 14.0864 37.1834 14.0864 36.2802C14.0864 35.4796 14.3012 34.6687 14.7308 33.8476C15.14 33.0265 15.5696 32.6159 16.0197 32.6159H16.1424C16.4902 32.6159 16.8073 32.5543 17.0937 32.4311C17.4006 32.2875 17.6461 32.154 17.8302 32.0308C18.0143 31.9077 18.2496 31.6408 18.536 31.2302C18.8429 30.7992 19.0475 30.4912 19.1497 30.3065C19.252 30.1217 19.4975 29.7009 19.8862 29.044C20.9705 27.1349 22.0548 25.7492 23.1391 24.887C24.2234 24.0248 25.4713 23.5938 26.8829 23.5938C28.4786 23.5938 29.7573 24.2199 30.7188 25.4721C31.6803 26.7038 32.1611 28.2331 32.1611 30.0601C32.1611 32.3798 31.6599 34.3095 30.6574 35.8491C29.6754 37.3887 28.315 38.1585 26.576 38.1585ZM28.8162 31.9385C28.8162 30.9942 28.6116 30.132 28.2025 29.3519C27.8138 28.5718 27.2512 28.1818 26.5147 28.1818C25.8191 28.1818 25.2156 28.4384 24.7041 28.9516C24.2131 29.4648 23.5278 30.5323 22.6481 32.154L22.5867 32.2772C24.3052 33.1394 25.9521 33.5705 27.5273 33.5705C28.3866 33.5705 28.8162 33.0265 28.8162 31.9385Z" fill="#121A21"/>
<path d="M49.1798 37.635C47.5636 37.635 46.3054 36.9781 45.4053 35.6643C44.1778 37.1834 42.0808 37.943 39.1144 37.943C35.657 37.943 33.9283 36.3418 33.9283 33.1394C33.9283 31.9487 34.0919 30.6247 34.4193 29.1672L37.9483 30.0909C37.6619 30.6452 37.5187 31.1276 37.5187 31.5382C37.5187 32.6262 38.3574 33.1702 40.035 33.1702C41.9581 33.1702 43.2469 32.9444 43.9016 32.4927C43.8198 32.308 43.7072 32.0103 43.564 31.5998C43.4208 31.1687 43.3083 30.8505 43.2265 30.6452L40.2191 22.2081L44.2085 20.6377L47.2772 29.7214C47.7068 30.8915 48.0955 31.6716 48.4433 32.0616C48.7911 32.4311 49.4048 32.6159 50.2845 32.6159H50.6835C51.154 32.6159 51.3893 33.0778 51.3893 34.0016C51.3893 34.8022 51.1847 35.613 50.7755 36.4342C50.3868 37.2347 49.9674 37.635 49.5173 37.635H49.1798Z" fill="#121A21"/>
<path d="M49.2857 37.635H48.4265C47.9355 37.635 47.69 37.1834 47.69 36.2802C47.69 35.4796 47.9048 34.6687 48.3344 33.8476C48.7436 33.0265 49.1732 32.6159 49.6233 32.6159H50.3291C53.2137 32.6159 55.5459 32.3901 57.3258 31.9385C59.1261 31.4869 60.7321 30.7684 62.1437 29.783C61.2026 29.4546 60.2104 29.0235 59.167 28.4897C58.1236 27.9355 57.2542 27.4941 56.5586 27.1657C55.8835 26.8372 55.3414 26.673 54.9322 26.673C54.523 26.673 54.1752 26.8988 53.8888 27.3504C53.6229 27.7815 53.4899 28.346 53.4899 29.044L49.7461 28.5821C50.0529 26.6114 50.769 25.0307 51.8942 23.8401C53.0398 22.6289 54.4616 22.0233 56.1597 22.0233C56.9166 22.0233 57.7554 22.2594 58.676 22.7316C59.6171 23.2037 60.4661 23.7272 61.2231 24.302C61.98 24.8768 62.8495 25.4002 63.8315 25.8724C64.8339 26.3445 65.7545 26.5806 66.5933 26.5806C67.4526 26.5806 68.3834 26.4266 69.3858 26.1187L69.5086 30.522C68.6084 30.9121 67.34 31.1173 65.7034 31.1379C63.6576 33.3139 61.3356 34.9459 58.7374 36.0338C56.1597 37.1013 53.0091 37.635 49.2857 37.635ZM55.4539 14.9719C56.354 15.5467 57.3667 16.4294 58.4919 17.62L56.0369 20.3914C54.8708 19.3239 53.8479 18.5028 52.9682 17.928L55.4539 14.9719Z" fill="#121A21"/>
<path d="M86.7239 39.7289C88.1764 39.7289 89.4448 39.5955 90.5291 39.3286C91.6338 39.0823 92.3703 38.8462 92.7385 38.6204C93.1068 38.4151 93.2909 38.2714 93.2909 38.1893C93.2909 38.0661 93.0556 37.9122 92.5851 37.7274L88.0127 35.8183C86.3556 35.1409 85.5271 33.7757 85.5271 31.7229C85.5271 30.6349 85.7112 29.629 86.0794 28.7053C86.8568 26.673 87.9309 25.1436 89.3016 24.1172C90.6927 23.0908 92.2782 22.5776 94.0581 22.5776C95.3879 22.5776 96.6153 22.8445 97.7405 23.3782L96.8506 28.7053C95.6231 27.8226 94.324 27.3812 92.9533 27.3812C91.9714 27.3812 91.1019 27.7405 90.3449 28.4589C89.588 29.1569 89.2095 29.8959 89.2095 30.676C89.2095 30.9223 89.3118 31.1481 89.5164 31.3534C89.7414 31.5382 90.1915 31.7948 90.8666 32.1232L94.8866 33.94C96.3187 34.5558 97.0347 35.6028 97.0347 37.0808C97.0347 37.7582 96.8097 38.6615 96.3596 39.7905C95.705 41.3507 94.457 42.5413 92.6158 43.3624C90.7746 44.1835 88.5548 44.5941 85.9567 44.5941C82.7243 44.5941 80.3716 43.8038 78.8986 42.2231C77.4256 40.6424 76.6891 38.5999 76.6891 36.0954C76.6891 33.4268 77.262 30.7992 78.4076 28.2126L81.906 29.7214C80.8626 31.5895 80.3409 33.3241 80.3409 34.9253C80.3409 36.4239 80.8217 37.594 81.7832 38.4356C82.7447 39.2978 84.3916 39.7289 86.7239 39.7289ZM88.2889 50.9065C87.3069 50.0444 86.5602 49.4285 86.0487 49.059L84.1461 51.1837C83.1232 50.2599 82.2026 49.5209 81.3843 48.9666L83.6244 46.2877C84.3609 46.7804 85.1179 47.427 85.8953 48.2276L87.7672 46.0106C88.606 46.5443 89.5164 47.3449 90.4984 48.4124L88.2889 50.9065Z" fill="#121A21"/>
<path d="M102.762 37.635H99.1713C99.2327 36.6908 99.2634 35.2948 99.2634 33.4473C99.2634 31.8872 99.2429 29.7112 99.202 26.9193L99.11 17.189L103.253 16.7271V32.7699C103.253 34.9048 103.089 36.5265 102.762 37.635ZM97.9745 16.3268L97.238 14.7256C97.8927 14.3355 98.619 13.9866 99.4168 13.6786C98.578 13.227 98.1587 12.488 98.1587 11.4616C98.1587 10.3325 98.5269 9.3677 99.2634 8.5671C100.02 7.74598 100.941 7.33541 102.025 7.33541C102.946 7.33541 103.723 7.52017 104.357 7.88967L103.498 10.4454C102.823 9.95276 102.168 9.70642 101.534 9.70642C101.125 9.70642 100.777 9.83985 100.491 10.1067C100.225 10.3531 100.092 10.6815 100.092 11.0921C100.092 11.5232 100.286 11.8721 100.675 12.139C101.064 12.3854 101.575 12.5085 102.209 12.5085C102.475 12.5085 103.017 12.4161 103.836 12.2314C104.654 12.0261 105.125 11.9132 105.247 11.8927L105.002 14.2945C103.099 14.5203 100.757 15.1977 97.9745 16.3268Z" fill="#121A21"/>
</svg>