<svg xmlns="http://www.w3.org/2000/svg" width="185" height="205" viewBox="0 0 185 205" fill="none">
<g clip-path="url(#clip0_280_278)">
<path d="M75.8364 205C75.3727 204.938 74.9089 204.877 74.4452 204.785C74.9089 204.846 75.3727 204.908 75.8364 205Z" fill="#4EBA64"/>
<path d="M75.8364 205C75.3727 204.938 74.9089 204.877 74.4452 204.785C74.9089 204.846 75.3727 204.908 75.8364 205Z" fill="#4EBA64"/>
<path d="M158.691 74.6602C173.221 74.6602 185 62.9396 185 48.4815C185 34.0233 173.221 22.3027 158.691 22.3027C144.16 22.3027 132.381 34.0233 132.381 48.4815C132.381 62.9396 144.16 74.6602 158.691 74.6602Z" fill="#0B2E1C"/>
<path d="M131.67 85.8576C128.146 83.6119 124.065 82.1661 120.479 79.9512C109.967 73.5219 104.31 60.1403 107.092 48.1738C108.329 42.8827 110.988 37.9607 112.07 32.6388C113.615 25.0098 111.606 16.7347 106.752 10.613C105.577 9.1364 104.279 7.84439 102.857 6.67542C98.0957 2.52251 91.8508 0 85.0184 0C73.4559 0 63.6247 7.19838 59.7293 17.3192C59.2655 18.3959 58.8946 19.5033 58.5854 20.6415C55.432 32.608 61.7388 46.328 72.8994 51.8037C78.186 54.3878 84.1836 55.2183 89.5939 57.587C103.29 63.6472 110.988 80.628 106.505 94.8709C102.022 109.114 85.9149 118.65 71.199 115.82C64.7995 114.59 58.9564 111.39 52.6805 109.637C36.697 105.207 18.2712 111.513 8.37817 124.772C7.14154 126.433 6.02857 128.217 5.07018 130.063C1.85494 135.908 0.0618286 142.614 0.0618286 149.751C0.0618286 172.484 18.5804 190.942 41.458 190.942C55.4629 190.942 67.8601 184.02 75.3417 173.407C78.9898 168.485 81.5867 162.825 82.6997 156.795C83.8745 150.551 83.5963 144.029 85.3894 137.907C88.6974 126.556 99.6415 117.82 111.513 117.051C115.501 116.804 119.551 117.327 123.509 117.051C123.509 117.051 123.509 117.051 123.539 117.051C132.783 117.051 140.296 109.575 140.296 100.377C140.296 94.1327 136.864 88.7185 131.763 85.8576H131.67Z" fill="#0B2E1C"/>
</g>
<defs>
<clipPath id="clip0_280_278">
<rect width="185" height="205" fill="white"/>
</clipPath>
</defs>
</svg>