<svg xmlns="http://www.w3.org/2000/svg" width="42" height="58" viewBox="0 0 42 58" fill="none">
  <path d="M39.1451 25.9667C38.0974 25.2875 36.8841 24.8502 35.8179 24.1804C32.6929 22.2359 31.011 18.1888 31.8382 14.5696C32.2058 12.9694 32.9963 11.4808 33.3179 9.87125C33.7775 7.56393 33.1801 5.06122 31.7371 3.20978C31.3878 2.76321 31.0018 2.37245 30.579 2.01891C29.1635 0.762905 27.3069 0 25.2757 0C21.8382 0 18.9154 2.17707 17.7573 5.238C17.6194 5.56363 17.5091 5.89856 17.4172 6.2428C16.4797 9.86195 18.3547 14.0114 21.6727 15.6675C23.2444 16.449 25.0275 16.7002 26.636 17.4166C30.7076 19.2494 32.9963 24.3851 31.6635 28.6927C30.3308 33.0003 25.5422 35.8845 21.1672 35.0285C19.2646 34.6564 17.5275 33.6888 15.6617 33.1585C10.9099 31.8187 5.43191 33.726 2.49074 37.7359C2.12309 38.2383 1.79221 38.7779 1.50728 39.3361C0.551399 41.1038 0.0183105 43.1321 0.0183105 45.2905C0.0183105 52.166 5.52382 57.7482 12.3253 57.7482C16.4889 57.7482 20.1746 55.6549 22.3988 52.4451C23.4834 50.9565 24.2554 49.2446 24.5863 47.4211C24.9356 45.5324 24.8529 43.56 25.386 41.7086C26.3694 38.2755 29.6231 35.6333 33.1525 35.4007C34.3382 35.3262 35.5422 35.4844 36.7187 35.4007C36.7187 35.4007 36.7187 35.4007 36.7279 35.4007C39.476 35.4007 41.7095 33.1399 41.7095 30.358C41.7095 28.4694 40.6893 26.8319 39.1727 25.9667H39.1451Z" fill="#4EBA64"/>
</svg>