<svg width="33" height="26" viewBox="0 0 33 26" fill="none" xmlns="http://www.w3.org/2000/svg">
<rect width="33" height="26" fill="#919090"/>
<g id="Desktop - 10" clip-path="url(#clip0_195_4)">
<rect width="1440" height="2129" transform="translate(-1095 -868)" fill="white"/>
<g id="Vector">
<mask id="path-1-inside-1_195_4" fill="white">
<path d="M-22.4452 -1445.02C145.314 -1445.02 281.306 -1308.82 281.306 -1140.81C281.306 -972.805 145.314 -836.611 -22.4452 -836.611C-190.205 -836.611 -326.197 -972.805 -326.197 -1140.81C-326.197 -1308.82 -190.205 -1445.02 -22.4452 -1445.02ZM-22.4452 -1480.76C-209.836 -1480.76 -361.89 -1328.13 -361.89 -1140.81C-361.89 -953.502 -209.479 -800.864 -22.4452 -800.864C164.589 -800.864 317 -953.502 317 -1140.81C317 -1328.13 164.589 -1480.76 -22.4452 -1480.76Z"/>
<path d="M-873.021 -1704.18C-794.139 -1704.18 -722.038 -1674.87 -667.07 -1626.61C-650.651 -1613.03 -635.303 -1597.66 -622.096 -1580.86C-566.057 -1509.72 -542.857 -1413.56 -560.703 -1324.91C-573.196 -1263.07 -603.893 -1205.87 -618.17 -1144.39C-649.937 -1005.33 -584.618 -849.837 -463.617 -775.127C-422.213 -749.747 -374.74 -732.588 -334.407 -706.493C-275.512 -673.249 -235.893 -610.335 -235.893 -537.769C-235.893 -430.887 -322.628 -344.023 -429.351 -344.023C-429.351 -344.023 -429.351 -344.023 -429.708 -344.023C-438.989 -343.308 -447.912 -343.308 -457.192 -343.308C-484.676 -343.308 -512.517 -345.453 -540.001 -345.453C-549.281 -345.453 -558.562 -345.453 -568.199 -344.738C-705.262 -335.801 -831.26 -234.28 -869.809 -102.375C-890.511 -31.2396 -887.299 44.1855 -900.862 117.109C-913.712 187.172 -943.695 252.946 -985.813 310.14C-1072.19 433.466 -1215.32 513.896 -1377.01 513.896C-1640.79 513.896 -1854.95 299.774 -1854.95 35.2489C-1854.95 -47.6832 -1833.89 -125.611 -1797.13 -193.53C-1786.06 -214.977 -1773.21 -235.71 -1758.93 -255.014C-1669.34 -376.195 -1518.72 -447.33 -1368.8 -447.33C-1327.76 -447.33 -1287.07 -441.968 -1247.45 -430.887C-1174.99 -410.511 -1107.53 -373.335 -1033.64 -359.036C-1013.3 -355.104 -992.952 -353.317 -972.606 -353.317C-821.266 -353.317 -671.71 -456.624 -626.023 -602.47C-574.267 -767.977 -663.144 -965.299 -821.266 -1035.72C-883.373 -1063.24 -952.618 -1072.9 -1014.01 -1102.92C-1142.86 -1166.19 -1215.68 -1325.98 -1179.27 -1465.04C-1175.7 -1478.26 -1171.42 -1491.13 -1166.07 -1503.64C-1121.09 -1621.25 -1007.23 -1704.9 -874.092 -1704.9M-874.092 -1740.64C-1017.58 -1740.64 -1148.22 -1650.56 -1199.62 -1516.15C-1205.33 -1502.93 -1210.33 -1488.27 -1213.89 -1473.62C-1254.58 -1318.48 -1173.56 -1141.17 -1030.07 -1070.39C-994.736 -1052.88 -957.972 -1042.15 -922.278 -1031.79C-891.939 -1022.85 -863.027 -1014.63 -836.257 -1002.48C-694.554 -939.561 -614.244 -760.828 -660.645 -612.837C-700.622 -485.222 -835.186 -388.706 -973.32 -388.706C-991.524 -388.706 -1010.08 -390.493 -1027.57 -393.71C-1066.84 -401.217 -1104.32 -415.873 -1143.94 -431.602C-1174.27 -443.398 -1205.68 -455.91 -1238.52 -464.846C-1280.64 -476.643 -1324.54 -482.362 -1369.52 -482.362C-1533.35 -482.362 -1693.97 -403.005 -1788.2 -275.747C-1803.55 -255.014 -1817.47 -232.851 -1829.25 -209.258C-1869.58 -134.905 -1891 -50.1855 -1891 35.6063C-1891 319.077 -1660.78 550 -1377.37 550C-1210.33 550 -1052.92 468.14 -956.901 330.874C-911.214 268.674 -879.803 197.181 -866.24 123.901C-860.529 92.4435 -857.673 60.2716 -854.818 29.5295C-850.891 -13.3665 -847.322 -53.7601 -836.257 -92.3665C-801.991 -209.973 -688.843 -301.127 -566.771 -309.348C-558.205 -310.063 -549.638 -310.063 -541.072 -310.063C-527.865 -310.063 -514.302 -309.706 -500.738 -308.991C-486.461 -308.634 -472.183 -307.918 -458.263 -307.918C-448.626 -307.918 -438.989 -307.918 -429.351 -308.633C-302.996 -309.348 -200.913 -411.941 -200.913 -538.127C-200.913 -620.344 -245.173 -696.842 -316.56 -737.593C-339.404 -752.249 -363.318 -763.688 -386.519 -775.127C-407.578 -785.136 -427.21 -794.787 -445.413 -806.226C-554.279 -873.072 -612.459 -1012.13 -583.904 -1136.88C-577.836 -1164.05 -567.842 -1190.5 -557.491 -1218.38C-545.712 -1250.2 -533.219 -1283.09 -526.438 -1318.48C-506.449 -1417.85 -532.149 -1524.38 -594.612 -1603.73C-609.246 -1622.32 -626.38 -1639.84 -644.94 -1655.21C-707.761 -1710.26 -789.142 -1741 -873.378 -1741L-874.092 -1740.64Z"/>
</mask>
<path d="M-22.4452 -1445.02C145.314 -1445.02 281.306 -1308.82 281.306 -1140.81C281.306 -972.805 145.314 -836.611 -22.4452 -836.611C-190.205 -836.611 -326.197 -972.805 -326.197 -1140.81C-326.197 -1308.82 -190.205 -1445.02 -22.4452 -1445.02ZM-22.4452 -1480.76C-209.836 -1480.76 -361.89 -1328.13 -361.89 -1140.81C-361.89 -953.502 -209.479 -800.864 -22.4452 -800.864C164.589 -800.864 317 -953.502 317 -1140.81C317 -1328.13 164.589 -1480.76 -22.4452 -1480.76Z" fill="#4EBA64"/>
<path d="M-873.021 -1704.18C-794.139 -1704.18 -722.038 -1674.87 -667.07 -1626.61C-650.651 -1613.03 -635.303 -1597.66 -622.096 -1580.86C-566.057 -1509.72 -542.857 -1413.56 -560.703 -1324.91C-573.196 -1263.07 -603.893 -1205.87 -618.17 -1144.39C-649.937 -1005.33 -584.618 -849.837 -463.617 -775.127C-422.213 -749.747 -374.74 -732.588 -334.407 -706.493C-275.512 -673.249 -235.893 -610.335 -235.893 -537.769C-235.893 -430.887 -322.628 -344.023 -429.351 -344.023C-429.351 -344.023 -429.351 -344.023 -429.708 -344.023C-438.989 -343.308 -447.912 -343.308 -457.192 -343.308C-484.676 -343.308 -512.517 -345.453 -540.001 -345.453C-549.281 -345.453 -558.562 -345.453 -568.199 -344.738C-705.262 -335.801 -831.26 -234.28 -869.809 -102.375C-890.511 -31.2396 -887.299 44.1855 -900.862 117.109C-913.712 187.172 -943.695 252.946 -985.813 310.14C-1072.19 433.466 -1215.32 513.896 -1377.01 513.896C-1640.79 513.896 -1854.95 299.774 -1854.95 35.2489C-1854.95 -47.6832 -1833.89 -125.611 -1797.13 -193.53C-1786.06 -214.977 -1773.21 -235.71 -1758.93 -255.014C-1669.34 -376.195 -1518.72 -447.33 -1368.8 -447.33C-1327.76 -447.33 -1287.07 -441.968 -1247.45 -430.887C-1174.99 -410.511 -1107.53 -373.335 -1033.64 -359.036C-1013.3 -355.104 -992.952 -353.317 -972.606 -353.317C-821.266 -353.317 -671.71 -456.624 -626.023 -602.47C-574.267 -767.977 -663.144 -965.299 -821.266 -1035.72C-883.373 -1063.24 -952.618 -1072.9 -1014.01 -1102.92C-1142.86 -1166.19 -1215.68 -1325.98 -1179.27 -1465.04C-1175.7 -1478.26 -1171.42 -1491.13 -1166.07 -1503.64C-1121.09 -1621.25 -1007.23 -1704.9 -874.092 -1704.9M-874.092 -1740.64C-1017.58 -1740.64 -1148.22 -1650.56 -1199.62 -1516.15C-1205.33 -1502.93 -1210.33 -1488.27 -1213.89 -1473.62C-1254.58 -1318.48 -1173.56 -1141.17 -1030.07 -1070.39C-994.736 -1052.88 -957.972 -1042.15 -922.278 -1031.79C-891.939 -1022.85 -863.027 -1014.63 -836.257 -1002.48C-694.554 -939.561 -614.244 -760.828 -660.645 -612.837C-700.622 -485.222 -835.186 -388.706 -973.32 -388.706C-991.524 -388.706 -1010.08 -390.493 -1027.57 -393.71C-1066.84 -401.217 -1104.32 -415.873 -1143.94 -431.602C-1174.27 -443.398 -1205.68 -455.91 -1238.52 -464.846C-1280.64 -476.643 -1324.54 -482.362 -1369.52 -482.362C-1533.35 -482.362 -1693.97 -403.005 -1788.2 -275.747C-1803.55 -255.014 -1817.47 -232.851 -1829.25 -209.258C-1869.58 -134.905 -1891 -50.1855 -1891 35.6063C-1891 319.077 -1660.78 550 -1377.37 550C-1210.33 550 -1052.92 468.14 -956.901 330.874C-911.214 268.674 -879.803 197.181 -866.24 123.901C-860.529 92.4435 -857.673 60.2716 -854.818 29.5295C-850.891 -13.3665 -847.322 -53.7601 -836.257 -92.3665C-801.991 -209.973 -688.843 -301.127 -566.771 -309.348C-558.205 -310.063 -549.638 -310.063 -541.072 -310.063C-527.865 -310.063 -514.302 -309.706 -500.738 -308.991C-486.461 -308.634 -472.183 -307.918 -458.263 -307.918C-448.626 -307.918 -438.989 -307.918 -429.351 -308.633C-302.996 -309.348 -200.913 -411.941 -200.913 -538.127C-200.913 -620.344 -245.173 -696.842 -316.56 -737.593C-339.404 -752.249 -363.318 -763.688 -386.519 -775.127C-407.578 -785.136 -427.21 -794.787 -445.413 -806.226C-554.279 -873.072 -612.459 -1012.13 -583.904 -1136.88C-577.836 -1164.05 -567.842 -1190.5 -557.491 -1218.38C-545.712 -1250.2 -533.219 -1283.09 -526.438 -1318.48C-506.449 -1417.85 -532.149 -1524.38 -594.612 -1603.73C-609.246 -1622.32 -626.38 -1639.84 -644.94 -1655.21C-707.761 -1710.26 -789.142 -1741 -873.378 -1741L-874.092 -1740.64Z" fill="#4EBA64"/>
<path d="M-667.07 -1626.61L-678.286 -1613.84L-678.098 -1613.67L-677.906 -1613.51L-667.07 -1626.61ZM-622.096 -1580.86L-635.461 -1570.35L-635.456 -1570.34L-635.45 -1570.34L-622.096 -1580.86ZM-560.703 -1324.91L-544.04 -1321.54L-544.038 -1321.55L-560.703 -1324.91ZM-618.17 -1144.39L-634.729 -1148.23L-634.736 -1148.2L-634.743 -1148.18L-618.17 -1144.39ZM-463.617 -775.127L-472.548 -760.662L-472.525 -760.647L-472.501 -760.633L-463.617 -775.127ZM-334.407 -706.493L-343.641 -692.22L-343.21 -691.941L-342.763 -691.689L-334.407 -706.493ZM-429.708 -344.023V-361.023H-430.362L-431.014 -360.972L-429.708 -344.023ZM-568.199 -344.738L-567.093 -327.774L-567.017 -327.779L-566.941 -327.784L-568.199 -344.738ZM-869.809 -102.375L-886.126 -107.144L-886.129 -107.135L-886.132 -107.126L-869.809 -102.375ZM-900.862 117.109L-917.576 114L-917.58 114.021L-917.583 114.042L-900.862 117.109ZM-985.813 310.14L-999.502 300.06L-999.621 300.222L-999.737 300.388L-985.813 310.14ZM-1797.13 -193.53L-1782.18 -185.437L-1782.1 -185.585L-1782.02 -185.735L-1797.13 -193.53ZM-1758.93 -255.014L-1745.27 -244.904L-1745.26 -244.907L-1758.93 -255.014ZM-1247.45 -430.887L-1242.84 -447.252L-1242.86 -447.255L-1242.87 -447.259L-1247.45 -430.887ZM-1033.64 -359.036L-1036.87 -342.346L-1036.87 -342.345L-1033.64 -359.036ZM-626.023 -602.47L-609.8 -597.389L-609.797 -597.397L-626.023 -602.47ZM-821.266 -1035.72L-814.35 -1051.25L-814.364 -1051.26L-814.378 -1051.26L-821.266 -1035.72ZM-1014.01 -1102.92L-1021.5 -1087.66L-1021.49 -1087.66L-1021.48 -1087.65L-1014.01 -1102.92ZM-1179.27 -1465.04L-1195.68 -1469.47L-1195.7 -1469.4L-1195.72 -1469.34L-1179.27 -1465.04ZM-1166.07 -1503.64L-1150.44 -1496.95L-1150.31 -1497.26L-1150.19 -1497.57L-1166.07 -1503.64ZM-874.092 -1740.64V-1723.64H-870.074L-866.481 -1725.44L-874.092 -1740.64ZM-1199.62 -1516.15L-1184.01 -1509.41L-1183.87 -1509.75L-1183.74 -1510.08L-1199.62 -1516.15ZM-1213.89 -1473.62L-1197.45 -1469.3L-1197.41 -1469.45L-1197.38 -1469.59L-1213.89 -1473.62ZM-1030.07 -1070.39L-1022.52 -1085.63L-1022.54 -1085.63L-1022.55 -1085.64L-1030.07 -1070.39ZM-922.278 -1031.79L-917.475 -1048.09L-917.506 -1048.1L-917.537 -1048.11L-922.278 -1031.79ZM-836.257 -1002.48L-843.285 -986.996L-843.22 -986.966L-843.156 -986.938L-836.257 -1002.48ZM-660.645 -612.837L-676.866 -617.923L-676.868 -617.919L-660.645 -612.837ZM-1027.57 -393.71L-1030.77 -377.013L-1030.71 -377.002L-1030.65 -376.991L-1027.57 -393.71ZM-1143.94 -431.602L-1137.66 -447.402L-1137.72 -447.425L-1137.77 -447.446L-1143.94 -431.602ZM-1238.52 -464.846L-1243.11 -448.476L-1243.05 -448.459L-1242.99 -448.443L-1238.52 -464.846ZM-1788.2 -275.747L-1801.86 -285.863L-1801.87 -285.861L-1788.2 -275.747ZM-1829.25 -209.258L-1814.31 -201.152L-1814.17 -201.406L-1814.04 -201.664L-1829.25 -209.258ZM-956.901 330.874L-970.602 320.81L-970.719 320.968L-970.832 321.129L-956.901 330.874ZM-866.24 123.901L-849.524 126.995L-849.518 126.966L-849.513 126.937L-866.24 123.901ZM-854.818 29.5295L-837.891 31.1018L-837.89 31.0905L-837.889 31.0791L-854.818 29.5295ZM-836.257 -92.3665L-852.578 -97.1218L-852.589 -97.0861L-852.599 -97.0503L-836.257 -92.3665ZM-566.771 -309.348L-565.629 -292.387L-565.493 -292.396L-565.357 -292.407L-566.771 -309.348ZM-500.738 -308.991L-501.633 -292.015L-501.399 -292.002L-501.164 -291.996L-500.738 -308.991ZM-429.351 -308.633L-429.448 -325.633L-430.029 -325.63L-430.609 -325.587L-429.351 -308.633ZM-316.56 -737.593L-325.74 -723.284L-325.37 -723.047L-324.988 -722.829L-316.56 -737.593ZM-386.519 -775.127L-379.001 -790.374L-379.111 -790.428L-379.222 -790.481L-386.519 -775.127ZM-445.413 -806.226L-436.368 -820.62L-436.443 -820.667L-436.518 -820.713L-445.413 -806.226ZM-583.904 -1136.88L-567.333 -1133.09L-567.323 -1133.13L-567.313 -1133.18L-583.904 -1136.88ZM-557.491 -1218.38L-541.554 -1212.47L-541.551 -1212.48L-541.548 -1212.48L-557.491 -1218.38ZM-526.438 -1318.48L-543.104 -1321.83L-543.119 -1321.75L-543.134 -1321.67L-526.438 -1318.48ZM-594.612 -1603.73L-581.254 -1614.25L-581.255 -1614.25L-594.612 -1603.73ZM-644.94 -1655.21L-656.144 -1642.42L-655.966 -1642.27L-655.783 -1642.12L-644.94 -1655.21ZM-873.378 -1741V-1758H-877.397L-880.99 -1756.2L-873.378 -1741ZM-22.4452 -1428.02C135.902 -1428.02 264.306 -1299.46 264.306 -1140.81H298.306C298.306 -1318.19 154.727 -1462.02 -22.4452 -1462.02V-1428.02ZM264.306 -1140.81C264.306 -982.17 135.902 -853.611 -22.4452 -853.611V-819.611C154.727 -819.611 298.306 -963.44 298.306 -1140.81H264.306ZM-22.4452 -853.611C-180.792 -853.611 -309.197 -982.17 -309.197 -1140.81H-343.197C-343.197 -963.44 -199.617 -819.611 -22.4452 -819.611V-853.611ZM-309.197 -1140.81C-309.197 -1299.46 -180.792 -1428.02 -22.4452 -1428.02V-1462.02C-199.617 -1462.02 -343.197 -1318.19 -343.197 -1140.81H-309.197ZM-22.4452 -1497.76C-219.26 -1497.76 -378.89 -1337.48 -378.89 -1140.81H-344.89C-344.89 -1318.77 -200.412 -1463.76 -22.4452 -1463.76V-1497.76ZM-378.89 -1140.81C-378.89 -944.137 -218.892 -783.864 -22.4452 -783.864V-817.864C-200.066 -817.864 -344.89 -962.867 -344.89 -1140.81H-378.89ZM-22.4452 -783.864C174.001 -783.864 334 -944.137 334 -1140.81H300C300 -962.867 155.176 -817.864 -22.4452 -817.864V-783.864ZM334 -1140.81C334 -1337.49 174.001 -1497.76 -22.4452 -1497.76V-1463.76C155.176 -1463.76 300 -1318.76 300 -1140.81H334ZM-873.021 -1687.18C-798.428 -1687.18 -730.276 -1659.48 -678.286 -1613.84L-655.854 -1639.39C-713.8 -1690.26 -789.85 -1721.18 -873.021 -1721.18V-1687.18ZM-677.906 -1613.51C-662.314 -1600.61 -647.839 -1586.1 -635.461 -1570.35L-608.731 -1591.36C-622.766 -1609.22 -638.988 -1625.44 -656.233 -1639.71L-677.906 -1613.51ZM-635.45 -1570.34C-582.473 -1503.09 -560.513 -1411.99 -577.369 -1328.26L-544.038 -1321.55C-525.2 -1415.13 -549.642 -1516.35 -608.742 -1591.38L-635.45 -1570.34ZM-577.367 -1328.28C-583.315 -1298.83 -593.648 -1270.24 -604.707 -1240.43C-615.619 -1211 -627.297 -1180.24 -634.729 -1148.23L-601.611 -1140.54C-594.766 -1170.02 -583.956 -1198.6 -572.828 -1228.6C-561.846 -1258.22 -550.585 -1289.14 -544.04 -1321.54L-577.367 -1328.28ZM-634.743 -1148.18C-668.132 -1002.02 -599.733 -839.19 -472.548 -760.662L-454.686 -789.592C-569.503 -860.484 -631.742 -1008.65 -601.597 -1140.6L-634.743 -1148.18ZM-472.501 -760.633C-450.943 -747.418 -427.899 -736.402 -406.036 -725.786C-383.866 -715.02 -362.813 -704.624 -343.641 -692.22L-325.172 -720.766C-346.334 -734.458 -369.184 -745.688 -391.185 -756.371C-413.492 -767.202 -434.886 -777.455 -454.733 -789.62L-472.501 -760.633ZM-342.763 -691.689C-288.996 -661.339 -252.893 -603.961 -252.893 -537.769H-218.893C-218.893 -616.709 -262.029 -685.159 -326.05 -721.297L-342.763 -691.689ZM-252.893 -537.769C-252.893 -440.252 -332.04 -361.023 -429.351 -361.023V-327.023C-313.215 -327.023 -218.893 -421.522 -218.893 -537.769H-252.893ZM-429.351 -344.023C-429.351 -361.023 -429.351 -361.023 -429.351 -361.023C-429.351 -361.023 -429.351 -361.023 -429.351 -361.023C-429.352 -361.023 -429.352 -361.023 -429.352 -361.023C-429.352 -361.023 -429.352 -361.023 -429.352 -361.023C-429.352 -361.023 -429.352 -361.023 -429.352 -361.023C-429.352 -361.023 -429.352 -361.023 -429.352 -361.023C-429.352 -361.023 -429.352 -361.023 -429.352 -361.023C-429.352 -361.023 -429.352 -361.023 -429.352 -361.023C-429.352 -361.023 -429.352 -361.023 -429.352 -361.023C-429.352 -361.023 -429.352 -361.023 -429.352 -361.023H-429.353C-429.353 -361.023 -429.353 -361.023 -429.353 -361.023H-429.353H-429.353C-429.353 -361.023 -429.353 -361.023 -429.353 -361.023C-429.353 -361.023 -429.353 -361.023 -429.353 -361.023C-429.353 -361.023 -429.353 -361.023 -429.353 -361.023H-429.353H-429.354C-429.354 -361.023 -429.354 -361.023 -429.354 -361.023C-429.354 -361.023 -429.354 -361.023 -429.354 -361.023H-429.354C-429.354 -361.023 -429.354 -361.023 -429.354 -361.023H-429.354C-429.354 -361.023 -429.354 -361.023 -429.354 -361.023C-429.354 -361.023 -429.354 -361.023 -429.354 -361.023C-429.354 -361.023 -429.354 -361.023 -429.354 -361.023C-429.355 -361.023 -429.355 -361.023 -429.355 -361.023H-429.355H-429.355C-429.355 -361.023 -429.355 -361.023 -429.355 -361.023C-429.355 -361.023 -429.355 -361.023 -429.355 -361.023C-429.355 -361.023 -429.355 -361.023 -429.355 -361.023H-429.355H-429.355C-429.355 -361.023 -429.355 -361.023 -429.356 -361.023C-429.356 -361.023 -429.356 -361.023 -429.356 -361.023C-429.356 -361.023 -429.356 -361.023 -429.356 -361.023C-429.356 -361.023 -429.356 -361.023 -429.356 -361.023C-429.356 -361.023 -429.356 -361.023 -429.356 -361.023C-429.356 -361.023 -429.356 -361.023 -429.356 -361.023C-429.356 -361.023 -429.356 -361.023 -429.356 -361.023C-429.356 -361.023 -429.356 -361.023 -429.356 -361.023C-429.357 -361.023 -429.357 -361.023 -429.357 -361.023C-429.357 -361.023 -429.357 -361.023 -429.357 -361.023C-429.357 -361.023 -429.357 -361.023 -429.357 -361.023C-429.357 -361.023 -429.357 -361.023 -429.357 -361.023C-429.357 -361.023 -429.357 -361.023 -429.357 -361.023C-429.357 -361.023 -429.357 -361.023 -429.357 -361.023H-429.357H-429.358H-429.358C-429.358 -361.023 -429.358 -361.023 -429.358 -361.023C-429.358 -361.023 -429.358 -361.023 -429.358 -361.023C-429.358 -361.023 -429.358 -361.023 -429.358 -361.023H-429.358H-429.358C-429.359 -361.023 -429.359 -361.023 -429.359 -361.023C-429.359 -361.023 -429.359 -361.023 -429.359 -361.023H-429.359C-429.359 -361.023 -429.359 -361.023 -429.359 -361.023C-429.359 -361.023 -429.359 -361.023 -429.359 -361.023H-429.359C-429.359 -361.023 -429.359 -361.023 -429.36 -361.023H-429.36C-429.36 -361.023 -429.36 -361.023 -429.36 -361.023C-429.36 -361.023 -429.36 -361.023 -429.36 -361.023H-429.36C-429.36 -361.023 -429.36 -361.023 -429.36 -361.023H-429.361C-429.361 -361.023 -429.361 -361.023 -429.361 -361.023H-429.361C-429.361 -361.023 -429.361 -361.023 -429.361 -361.023C-429.361 -361.023 -429.361 -361.023 -429.361 -361.023H-429.362C-429.362 -361.023 -429.362 -361.023 -429.362 -361.023H-429.362C-429.362 -361.023 -429.362 -361.023 -429.362 -361.023C-429.362 -361.023 -429.362 -361.023 -429.362 -361.023H-429.363C-429.363 -361.023 -429.363 -361.023 -429.363 -361.023C-429.363 -361.023 -429.363 -361.023 -429.363 -361.023C-429.363 -361.023 -429.363 -361.023 -429.363 -361.023C-429.363 -361.023 -429.363 -361.023 -429.364 -361.023H-429.364C-429.364 -361.023 -429.364 -361.023 -429.364 -361.023C-429.364 -361.023 -429.364 -361.023 -429.364 -361.023C-429.364 -361.023 -429.364 -361.023 -429.364 -361.023C-429.365 -361.023 -429.365 -361.023 -429.365 -361.023C-429.365 -361.023 -429.365 -361.023 -429.365 -361.023C-429.365 -361.023 -429.365 -361.023 -429.365 -361.023C-429.365 -361.023 -429.365 -361.023 -429.365 -361.023C-429.365 -361.023 -429.365 -361.023 -429.366 -361.023C-429.366 -361.023 -429.366 -361.023 -429.366 -361.023C-429.366 -361.023 -429.366 -361.023 -429.366 -361.023C-429.366 -361.023 -429.366 -361.023 -429.366 -361.023C-429.366 -361.023 -429.366 -361.023 -429.367 -361.023C-429.367 -361.023 -429.367 -361.023 -429.367 -361.023C-429.367 -361.023 -429.367 -361.023 -429.367 -361.023C-429.367 -361.023 -429.367 -361.023 -429.367 -361.023C-429.367 -361.023 -429.368 -361.023 -429.368 -361.023C-429.368 -361.023 -429.368 -361.023 -429.368 -361.023C-429.368 -361.023 -429.368 -361.023 -429.368 -361.023C-429.368 -361.023 -429.368 -361.023 -429.368 -361.023C-429.369 -361.023 -429.369 -361.023 -429.369 -361.023C-429.369 -361.023 -429.369 -361.023 -429.369 -361.023C-429.369 -361.023 -429.369 -361.023 -429.369 -361.023C-429.369 -361.023 -429.37 -361.023 -429.37 -361.023C-429.37 -361.023 -429.37 -361.023 -429.37 -361.023C-429.37 -361.023 -429.37 -361.023 -429.37 -361.023C-429.37 -361.023 -429.37 -361.023 -429.37 -361.023C-429.37 -361.023 -429.371 -361.023 -429.371 -361.023C-429.371 -361.023 -429.371 -361.023 -429.371 -361.023C-429.371 -361.023 -429.371 -361.023 -429.371 -361.023C-429.371 -361.023 -429.372 -361.023 -429.372 -361.023C-429.372 -361.023 -429.372 -361.023 -429.372 -361.023C-429.372 -361.023 -429.372 -361.023 -429.372 -361.023C-429.372 -361.023 -429.372 -361.023 -429.373 -361.023C-429.373 -361.023 -429.373 -361.023 -429.373 -361.023C-429.373 -361.023 -429.373 -361.023 -429.373 -361.023C-429.373 -361.023 -429.373 -361.023 -429.374 -361.023C-429.374 -361.023 -429.374 -361.023 -429.374 -361.023C-429.374 -361.023 -429.374 -361.023 -429.374 -361.023C-429.374 -361.023 -429.374 -361.023 -429.375 -361.023C-429.375 -361.023 -429.375 -361.023 -429.375 -361.023C-429.375 -361.023 -429.375 -361.023 -429.375 -361.023C-429.375 -361.023 -429.375 -361.023 -429.376 -361.023C-429.376 -361.023 -429.376 -361.023 -429.376 -361.023C-429.376 -361.023 -429.376 -361.023 -429.376 -361.023C-429.376 -361.023 -429.377 -361.023 -429.377 -361.023C-429.377 -361.023 -429.377 -361.023 -429.377 -361.023C-429.377 -361.023 -429.377 -361.023 -429.377 -361.023C-429.377 -361.023 -429.378 -361.023 -429.378 -361.023C-429.378 -361.023 -429.378 -361.023 -429.378 -361.023C-429.378 -361.023 -429.378 -361.023 -429.379 -361.023C-429.379 -361.023 -429.379 -361.023 -429.379 -361.023C-429.379 -361.023 -429.379 -361.023 -429.379 -361.023C-429.379 -361.023 -429.38 -361.023 -429.38 -361.023C-429.38 -361.023 -429.38 -361.023 -429.38 -361.023C-429.38 -361.023 -429.38 -361.023 -429.38 -361.023C-429.38 -361.023 -429.381 -361.023 -429.381 -361.023C-429.381 -361.023 -429.381 -361.023 -429.381 -361.023C-429.381 -361.023 -429.381 -361.023 -429.382 -361.023C-429.382 -361.023 -429.382 -361.023 -429.382 -361.023C-429.382 -361.023 -429.382 -361.023 -429.382 -361.023C-429.383 -361.023 -429.383 -361.023 -429.383 -361.023C-429.383 -361.023 -429.383 -361.023 -429.383 -361.023C-429.383 -361.023 -429.384 -361.023 -429.384 -361.023C-429.384 -361.023 -429.384 -361.023 -429.384 -361.023C-429.384 -361.023 -429.384 -361.023 -429.385 -361.023C-429.385 -361.023 -429.385 -361.023 -429.385 -361.023C-429.385 -361.023 -429.385 -361.023 -429.385 -361.023C-429.385 -361.023 -429.386 -361.023 -429.386 -361.023C-429.386 -361.023 -429.386 -361.023 -429.386 -361.023C-429.386 -361.023 -429.387 -361.023 -429.387 -361.023C-429.387 -361.023 -429.387 -361.023 -429.387 -361.023C-429.387 -361.023 -429.387 -361.023 -429.388 -361.023C-429.388 -361.023 -429.388 -361.023 -429.388 -361.023C-429.388 -361.023 -429.388 -361.023 -429.389 -361.023C-429.389 -361.023 -429.389 -361.023 -429.389 -361.023C-429.389 -361.023 -429.389 -361.023 -429.39 -361.023C-429.39 -361.023 -429.39 -361.023 -429.39 -361.023C-429.39 -361.023 -429.39 -361.023 -429.39 -361.023C-429.391 -361.023 -429.391 -361.023 -429.391 -361.023C-429.391 -361.023 -429.391 -361.023 -429.391 -361.023C-429.392 -361.023 -429.392 -361.023 -429.392 -361.023C-429.392 -361.023 -429.392 -361.023 -429.392 -361.023C-429.393 -361.023 -429.393 -361.023 -429.393 -361.023C-429.393 -361.023 -429.393 -361.023 -429.393 -361.023C-429.394 -361.023 -429.394 -361.023 -429.394 -361.023C-429.394 -361.023 -429.394 -361.023 -429.394 -361.023C-429.395 -361.023 -429.395 -361.023 -429.395 -361.023C-429.395 -361.023 -429.395 -361.023 -429.395 -361.023C-429.396 -361.023 -429.396 -361.023 -429.396 -361.023C-429.396 -361.023 -429.396 -361.023 -429.396 -361.023C-429.397 -361.023 -429.397 -361.023 -429.397 -361.023C-429.397 -361.023 -429.397 -361.023 -429.397 -361.023C-429.398 -361.023 -429.398 -361.023 -429.398 -361.023C-429.398 -361.023 -429.398 -361.023 -429.399 -361.023C-429.399 -361.023 -429.399 -361.023 -429.399 -361.023C-429.399 -361.023 -429.4 -361.023 -429.4 -361.023C-429.4 -361.023 -429.4 -361.023 -429.4 -361.023C-429.4 -361.023 -429.401 -361.023 -429.401 -361.023C-429.401 -361.023 -429.401 -361.023 -429.401 -361.023C-429.402 -361.023 -429.402 -361.023 -429.402 -361.023C-429.402 -361.023 -429.402 -361.023 -429.402 -361.023C-429.403 -361.023 -429.403 -361.023 -429.403 -361.023C-429.403 -361.023 -429.403 -361.023 -429.404 -361.023C-429.404 -361.023 -429.404 -361.023 -429.404 -361.023C-429.404 -361.023 -429.405 -361.023 -429.405 -361.023C-429.405 -361.023 -429.405 -361.023 -429.405 -361.023C-429.406 -361.023 -429.406 -361.023 -429.406 -361.023C-429.406 -361.023 -429.406 -361.023 -429.407 -361.023C-429.407 -361.023 -429.407 -361.023 -429.407 -361.023C-429.407 -361.023 -429.408 -361.023 -429.408 -361.023C-429.408 -361.023 -429.408 -361.023 -429.408 -361.023C-429.409 -361.023 -429.409 -361.023 -429.409 -361.023C-429.409 -361.023 -429.41 -361.023 -429.41 -361.023C-429.41 -361.023 -429.41 -361.023 -429.41 -361.023C-429.411 -361.023 -429.411 -361.023 -429.411 -361.023C-429.411 -361.023 -429.411 -361.023 -429.412 -361.023C-429.412 -361.023 -429.412 -361.023 -429.412 -361.023C-429.412 -361.023 -429.413 -361.023 -429.413 -361.023C-429.413 -361.023 -429.413 -361.023 -429.414 -361.023C-429.414 -361.023 -429.414 -361.023 -429.414 -361.023C-429.414 -361.023 -429.415 -361.023 -429.415 -361.023C-429.415 -361.023 -429.415 -361.023 -429.416 -361.023C-429.416 -361.023 -429.416 -361.023 -429.416 -361.023C-429.416 -361.023 -429.417 -361.023 -429.417 -361.023C-429.417 -361.023 -429.417 -361.023 -429.417 -361.023C-429.418 -361.023 -429.418 -361.023 -429.418 -361.023C-429.418 -361.023 -429.419 -361.023 -429.419 -361.023C-429.419 -361.023 -429.419 -361.023 -429.42 -361.023C-429.42 -361.023 -429.42 -361.023 -429.42 -361.023C-429.421 -361.023 -429.421 -361.023 -429.421 -361.023C-429.421 -361.023 -429.422 -361.023 -429.422 -361.023C-429.422 -361.023 -429.422 -361.023 -429.422 -361.023C-429.423 -361.023 -429.423 -361.023 -429.423 -361.023C-429.423 -361.023 -429.424 -361.023 -429.424 -361.023C-429.424 -361.023 -429.424 -361.023 -429.425 -361.023C-429.425 -361.023 -429.425 -361.023 -429.425 -361.023C-429.426 -361.023 -429.426 -361.023 -429.426 -361.023C-429.426 -361.023 -429.427 -361.023 -429.427 -361.023C-429.427 -361.023 -429.427 -361.023 -429.427 -361.023C-429.428 -361.023 -429.428 -361.023 -429.428 -361.023C-429.428 -361.023 -429.429 -361.023 -429.429 -361.023C-429.429 -361.023 -429.43 -361.023 -429.43 -361.023C-429.43 -361.023 -429.43 -361.023 -429.431 -361.023C-429.431 -361.023 -429.431 -361.023 -429.431 -361.023C-429.432 -361.023 -429.432 -361.023 -429.432 -361.023C-429.432 -361.023 -429.433 -361.023 -429.433 -361.023C-429.433 -361.023 -429.433 -361.023 -429.434 -361.023C-429.434 -361.023 -429.434 -361.023 -429.434 -361.023C-429.435 -361.023 -429.435 -361.023 -429.435 -361.023C-429.436 -361.023 -429.436 -361.023 -429.436 -361.023C-429.436 -361.023 -429.437 -361.023 -429.437 -361.023C-429.437 -361.023 -429.437 -361.023 -429.438 -361.023C-429.438 -361.023 -429.438 -361.023 -429.438 -361.023C-429.439 -361.023 -429.439 -361.023 -429.439 -361.023C-429.44 -361.023 -429.44 -361.023 -429.44 -361.023C-429.44 -361.023 -429.441 -361.023 -429.441 -361.023C-429.441 -361.023 -429.442 -361.023 -429.442 -361.023C-429.442 -361.023 -429.442 -361.023 -429.443 -361.023C-429.443 -361.023 -429.443 -361.023 -429.443 -361.023C-429.444 -361.023 -429.444 -361.023 -429.444 -361.023C-429.445 -361.023 -429.445 -361.023 -429.445 -361.023C-429.445 -361.023 -429.446 -361.023 -429.446 -361.023C-429.446 -361.023 -429.447 -361.023 -429.447 -361.023C-429.447 -361.023 -429.448 -361.023 -429.448 -361.023C-429.448 -361.023 -429.448 -361.023 -429.449 -361.023C-429.449 -361.023 -429.449 -361.023 -429.45 -361.023C-429.45 -361.023 -429.45 -361.023 -429.45 -361.023C-429.451 -361.023 -429.451 -361.023 -429.451 -361.023C-429.452 -361.023 -429.452 -361.023 -429.452 -361.023C-429.453 -361.023 -429.453 -361.023 -429.453 -361.023C-429.453 -361.023 -429.454 -361.023 -429.454 -361.023C-429.454 -361.023 -429.455 -361.023 -429.455 -361.023C-429.455 -361.023 -429.456 -361.023 -429.456 -361.023C-429.456 -361.023 -429.456 -361.023 -429.457 -361.023C-429.457 -361.023 -429.457 -361.023 -429.458 -361.023C-429.458 -361.023 -429.458 -361.023 -429.459 -361.023C-429.459 -361.023 -429.459 -361.023 -429.46 -361.023C-429.46 -361.023 -429.46 -361.023 -429.461 -361.023C-429.461 -361.023 -429.461 -361.023 -429.462 -361.023C-429.462 -361.023 -429.462 -361.023 -429.462 -361.023C-429.463 -361.023 -429.463 -361.023 -429.463 -361.023C-429.464 -361.023 -429.464 -361.023 -429.464 -361.023C-429.465 -361.023 -429.465 -361.023 -429.465 -361.023C-429.466 -361.023 -429.466 -361.023 -429.466 -361.023C-429.467 -361.023 -429.467 -361.023 -429.467 -361.023C-429.468 -361.023 -429.468 -361.023 -429.468 -361.023C-429.469 -361.023 -429.469 -361.023 -429.469 -361.023C-429.47 -361.023 -429.47 -361.023 -429.47 -361.023C-429.471 -361.023 -429.471 -361.023 -429.471 -361.023C-429.472 -361.023 -429.472 -361.023 -429.472 -361.023C-429.473 -361.023 -429.473 -361.023 -429.473 -361.023C-429.474 -361.023 -429.474 -361.023 -429.474 -361.023C-429.475 -361.023 -429.475 -361.023 -429.475 -361.023C-429.476 -361.023 -429.476 -361.023 -429.476 -361.023C-429.477 -361.023 -429.477 -361.023 -429.478 -361.023C-429.478 -361.023 -429.478 -361.023 -429.479 -361.023C-429.479 -361.023 -429.479 -361.023 -429.48 -361.023C-429.48 -361.023 -429.48 -361.023 -429.481 -361.023C-429.481 -361.023 -429.481 -361.023 -429.482 -361.023C-429.482 -361.023 -429.482 -361.023 -429.483 -361.023C-429.483 -361.023 -429.484 -361.023 -429.484 -361.023C-429.484 -361.023 -429.485 -361.023 -429.485 -361.023C-429.485 -361.023 -429.486 -361.023 -429.486 -361.023C-429.486 -361.023 -429.487 -361.023 -429.487 -361.023C-429.488 -361.023 -429.488 -361.023 -429.488 -361.023C-429.489 -361.023 -429.489 -361.023 -429.489 -361.023C-429.49 -361.023 -429.49 -361.023 -429.49 -361.023C-429.491 -361.023 -429.491 -361.023 -429.492 -361.023C-429.492 -361.023 -429.492 -361.023 -429.493 -361.023C-429.493 -361.023 -429.493 -361.023 -429.494 -361.023C-429.494 -361.023 -429.495 -361.023 -429.495 -361.023C-429.495 -361.023 -429.496 -361.023 -429.496 -361.023C-429.496 -361.023 -429.497 -361.023 -429.497 -361.023C-429.498 -361.023 -429.498 -361.023 -429.498 -361.023C-429.499 -361.023 -429.499 -361.023 -429.5 -361.023C-429.5 -361.023 -429.5 -361.023 -429.501 -361.023C-429.501 -361.023 -429.502 -361.023 -429.502 -361.023C-429.502 -361.023 -429.503 -361.023 -429.503 -361.023C-429.504 -361.023 -429.504 -361.023 -429.504 -361.023C-429.505 -361.023 -429.505 -361.023 -429.505 -361.023C-429.506 -361.023 -429.506 -361.023 -429.507 -361.023C-429.507 -361.023 -429.507 -361.023 -429.508 -361.023C-429.508 -361.023 -429.509 -361.023 -429.509 -361.023C-429.51 -361.023 -429.51 -361.023 -429.51 -361.023C-429.511 -361.023 -429.511 -361.023 -429.511 -361.023C-429.512 -361.023 -429.512 -361.023 -429.513 -361.023C-429.513 -361.023 -429.514 -361.023 -429.514 -361.023C-429.514 -361.023 -429.515 -361.023 -429.515 -361.023C-429.516 -361.023 -429.516 -361.023 -429.516 -361.023C-429.517 -361.023 -429.517 -361.023 -429.518 -361.023C-429.518 -361.023 -429.519 -361.023 -429.519 -361.023C-429.519 -361.023 -429.52 -361.023 -429.52 -361.023C-429.521 -361.023 -429.521 -361.023 -429.521 -361.023C-429.522 -361.023 -429.522 -361.023 -429.523 -361.023C-429.523 -361.023 -429.524 -361.023 -429.524 -361.023C-429.525 -361.023 -429.525 -361.023 -429.525 -361.023C-429.526 -361.023 -429.526 -361.023 -429.527 -361.023C-429.527 -361.023 -429.528 -361.023 -429.528 -361.023C-429.528 -361.023 -429.529 -361.023 -429.529 -361.023C-429.53 -361.023 -429.53 -361.023 -429.531 -361.023C-429.531 -361.023 -429.531 -361.023 -429.532 -361.023C-429.532 -361.023 -429.533 -361.023 -429.533 -361.023C-429.534 -361.023 -429.534 -361.023 -429.535 -361.023C-429.535 -361.023 -429.536 -361.023 -429.536 -361.023C-429.536 -361.023 -429.537 -361.023 -429.537 -361.023C-429.538 -361.023 -429.538 -361.023 -429.539 -361.023C-429.539 -361.023 -429.54 -361.023 -429.54 -361.023C-429.541 -361.023 -429.541 -361.023 -429.541 -361.023C-429.542 -361.023 -429.542 -361.023 -429.543 -361.023C-429.543 -361.023 -429.544 -361.023 -429.544 -361.023C-429.545 -361.023 -429.545 -361.023 -429.546 -361.023C-429.546 -361.023 -429.547 -361.023 -429.547 -361.023C-429.547 -361.023 -429.548 -361.023 -429.548 -361.023C-429.549 -361.023 -429.549 -361.023 -429.55 -361.023C-429.55 -361.023 -429.551 -361.023 -429.551 -361.023C-429.552 -361.023 -429.552 -361.023 -429.553 -361.023C-429.553 -361.023 -429.554 -361.023 -429.554 -361.023C-429.555 -361.023 -429.555 -361.023 -429.556 -361.023C-429.556 -361.023 -429.556 -361.023 -429.557 -361.023C-429.557 -361.023 -429.558 -361.023 -429.558 -361.023C-429.559 -361.023 -429.559 -361.023 -429.56 -361.023C-429.56 -361.023 -429.561 -361.023 -429.561 -361.023C-429.562 -361.023 -429.562 -361.023 -429.563 -361.023C-429.563 -361.023 -429.564 -361.023 -429.564 -361.023C-429.565 -361.023 -429.565 -361.023 -429.566 -361.023C-429.566 -361.023 -429.567 -361.023 -429.567 -361.023C-429.568 -361.023 -429.568 -361.023 -429.569 -361.023C-429.569 -361.023 -429.57 -361.023 -429.57 -361.023C-429.571 -361.023 -429.571 -361.023 -429.572 -361.023C-429.572 -361.023 -429.573 -361.023 -429.573 -361.023C-429.574 -361.023 -429.574 -361.023 -429.575 -361.023C-429.575 -361.023 -429.576 -361.023 -429.576 -361.023C-429.577 -361.023 -429.577 -361.023 -429.578 -361.023C-429.578 -361.023 -429.579 -361.023 -429.579 -361.023C-429.58 -361.023 -429.58 -361.023 -429.581 -361.023C-429.582 -361.023 -429.582 -361.023 -429.583 -361.023C-429.583 -361.023 -429.584 -361.023 -429.584 -361.023C-429.585 -361.023 -429.585 -361.023 -429.586 -361.023C-429.586 -361.023 -429.587 -361.023 -429.587 -361.023C-429.588 -361.023 -429.588 -361.023 -429.589 -361.023C-429.589 -361.023 -429.59 -361.023 -429.59 -361.023C-429.591 -361.023 -429.592 -361.023 -429.592 -361.023C-429.593 -361.023 -429.593 -361.023 -429.594 -361.023C-429.594 -361.023 -429.595 -361.023 -429.595 -361.023C-429.596 -361.023 -429.596 -361.023 -429.597 -361.023C-429.597 -361.023 -429.598 -361.023 -429.599 -361.023C-429.599 -361.023 -429.6 -361.023 -429.6 -361.023C-429.601 -361.023 -429.601 -361.023 -429.602 -361.023C-429.602 -361.023 -429.603 -361.023 -429.604 -361.023C-429.604 -361.023 -429.605 -361.023 -429.605 -361.023C-429.606 -361.023 -429.606 -361.023 -429.607 -361.023C-429.607 -361.023 -429.608 -361.023 -429.609 -361.023C-429.609 -361.023 -429.61 -361.023 -429.61 -361.023C-429.611 -361.023 -429.611 -361.023 -429.612 -361.023C-429.612 -361.023 -429.613 -361.023 -429.614 -361.023C-429.614 -361.023 -429.615 -361.023 -429.615 -361.023C-429.616 -361.023 -429.616 -361.023 -429.617 -361.023C-429.618 -361.023 -429.618 -361.023 -429.619 -361.023C-429.619 -361.023 -429.62 -361.023 -429.62 -361.023C-429.621 -361.023 -429.622 -361.023 -429.622 -361.023C-429.623 -361.023 -429.623 -361.023 -429.624 -361.023C-429.625 -361.023 -429.625 -361.023 -429.626 -361.023C-429.626 -361.023 -429.627 -361.023 -429.627 -361.023C-429.628 -361.023 -429.629 -361.023 -429.629 -361.023C-429.63 -361.023 -429.63 -361.023 -429.631 -361.023C-429.632 -361.023 -429.632 -361.023 -429.633 -361.023C-429.633 -361.023 -429.634 -361.023 -429.635 -361.023C-429.635 -361.023 -429.636 -361.023 -429.636 -361.023C-429.637 -361.023 -429.638 -361.023 -429.638 -361.023C-429.639 -361.023 -429.639 -361.023 -429.64 -361.023C-429.641 -361.023 -429.641 -361.023 -429.642 -361.023C-429.642 -361.023 -429.643 -361.023 -429.644 -361.023C-429.644 -361.023 -429.645 -361.023 -429.646 -361.023C-429.646 -361.023 -429.647 -361.023 -429.647 -361.023C-429.648 -361.023 -429.649 -361.023 -429.649 -361.023C-429.65 -361.023 -429.65 -361.023 -429.651 -361.023C-429.652 -361.023 -429.652 -361.023 -429.653 -361.023C-429.653 -361.023 -429.654 -361.023 -429.655 -361.023C-429.655 -361.023 -429.656 -361.023 -429.657 -361.023C-429.657 -361.023 -429.658 -361.023 -429.659 -361.023C-429.659 -361.023 -429.66 -361.023 -429.66 -361.023C-429.661 -361.023 -429.662 -361.023 -429.662 -361.023C-429.663 -361.023 -429.664 -361.023 -429.664 -361.023C-429.665 -361.023 -429.666 -361.023 -429.666 -361.023C-429.667 -361.023 -429.667 -361.023 -429.668 -361.023C-429.669 -361.023 -429.669 -361.023 -429.67 -361.023C-429.671 -361.023 -429.671 -361.023 -429.672 -361.023C-429.673 -361.023 -429.673 -361.023 -429.674 -361.023C-429.675 -361.023 -429.675 -361.023 -429.676 -361.023C-429.677 -361.023 -429.677 -361.023 -429.678 -361.023C-429.678 -361.023 -429.679 -361.023 -429.68 -361.023C-429.68 -361.023 -429.681 -361.023 -429.682 -361.023C-429.682 -361.023 -429.683 -361.023 -429.684 -361.023C-429.684 -361.023 -429.685 -361.023 -429.686 -361.023C-429.686 -361.023 -429.687 -361.023 -429.688 -361.023C-429.688 -361.023 -429.689 -361.023 -429.69 -361.023C-429.69 -361.023 -429.691 -361.023 -429.692 -361.023C-429.693 -361.023 -429.693 -361.023 -429.694 -361.023C-429.695 -361.023 -429.695 -361.023 -429.696 -361.023C-429.697 -361.023 -429.697 -361.023 -429.698 -361.023C-429.699 -361.023 -429.699 -361.023 -429.7 -361.023C-429.701 -361.023 -429.701 -361.023 -429.702 -361.023C-429.703 -361.023 -429.703 -361.023 -429.704 -361.023C-429.705 -361.023 -429.705 -361.023 -429.706 -361.023C-429.707 -361.023 -429.708 -361.023 -429.708 -361.023V-327.023C-429.708 -327.023 -429.707 -327.023 -429.706 -327.023C-429.705 -327.023 -429.705 -327.023 -429.704 -327.023C-429.703 -327.023 -429.703 -327.023 -429.702 -327.023C-429.701 -327.023 -429.701 -327.023 -429.7 -327.023C-429.699 -327.023 -429.699 -327.023 -429.698 -327.023C-429.697 -327.023 -429.697 -327.023 -429.696 -327.023C-429.695 -327.023 -429.695 -327.023 -429.694 -327.023C-429.693 -327.023 -429.693 -327.023 -429.692 -327.023C-429.691 -327.023 -429.69 -327.023 -429.69 -327.023C-429.689 -327.023 -429.688 -327.023 -429.688 -327.023C-429.687 -327.023 -429.686 -327.023 -429.686 -327.023C-429.685 -327.023 -429.684 -327.023 -429.684 -327.023C-429.683 -327.023 -429.682 -327.023 -429.682 -327.023C-429.681 -327.023 -429.68 -327.023 -429.68 -327.023C-429.679 -327.023 -429.678 -327.023 -429.678 -327.023C-429.677 -327.023 -429.677 -327.023 -429.676 -327.023C-429.675 -327.023 -429.675 -327.023 -429.674 -327.023C-429.673 -327.023 -429.673 -327.023 -429.672 -327.023C-429.671 -327.023 -429.671 -327.023 -429.67 -327.023C-429.669 -327.023 -429.669 -327.023 -429.668 -327.023C-429.667 -327.023 -429.667 -327.023 -429.666 -327.023C-429.666 -327.023 -429.665 -327.023 -429.664 -327.023C-429.664 -327.023 -429.663 -327.023 -429.662 -327.023C-429.662 -327.023 -429.661 -327.023 -429.66 -327.023C-429.66 -327.023 -429.659 -327.023 -429.659 -327.023C-429.658 -327.023 -429.657 -327.023 -429.657 -327.023C-429.656 -327.023 -429.655 -327.023 -429.655 -327.023C-429.654 -327.023 -429.653 -327.023 -429.653 -327.023C-429.652 -327.023 -429.652 -327.023 -429.651 -327.023C-429.65 -327.023 -429.65 -327.023 -429.649 -327.023C-429.649 -327.023 -429.648 -327.023 -429.647 -327.023C-429.647 -327.023 -429.646 -327.023 -429.646 -327.023C-429.645 -327.023 -429.644 -327.023 -429.644 -327.023C-429.643 -327.023 -429.642 -327.023 -429.642 -327.023C-429.641 -327.023 -429.641 -327.023 -429.64 -327.023C-429.639 -327.023 -429.639 -327.023 -429.638 -327.023C-429.638 -327.023 -429.637 -327.023 -429.636 -327.023C-429.636 -327.023 -429.635 -327.023 -429.635 -327.023C-429.634 -327.023 -429.633 -327.023 -429.633 -327.023C-429.632 -327.023 -429.632 -327.023 -429.631 -327.023C-429.63 -327.023 -429.63 -327.023 -429.629 -327.023C-429.629 -327.023 -429.628 -327.023 -429.627 -327.023C-429.627 -327.023 -429.626 -327.023 -429.626 -327.023C-429.625 -327.023 -429.625 -327.023 -429.624 -327.023C-429.623 -327.023 -429.623 -327.023 -429.622 -327.023C-429.622 -327.023 -429.621 -327.023 -429.62 -327.023C-429.62 -327.023 -429.619 -327.023 -429.619 -327.023C-429.618 -327.023 -429.618 -327.023 -429.617 -327.023C-429.616 -327.023 -429.616 -327.023 -429.615 -327.023C-429.615 -327.023 -429.614 -327.023 -429.614 -327.023C-429.613 -327.023 -429.612 -327.023 -429.612 -327.023C-429.611 -327.023 -429.611 -327.023 -429.61 -327.023C-429.61 -327.023 -429.609 -327.023 -429.609 -327.023C-429.608 -327.023 -429.607 -327.023 -429.607 -327.023C-429.606 -327.023 -429.606 -327.023 -429.605 -327.023C-429.605 -327.023 -429.604 -327.023 -429.604 -327.023C-429.603 -327.023 -429.602 -327.023 -429.602 -327.023C-429.601 -327.023 -429.601 -327.023 -429.6 -327.023C-429.6 -327.023 -429.599 -327.023 -429.599 -327.023C-429.598 -327.023 -429.597 -327.023 -429.597 -327.023C-429.596 -327.023 -429.596 -327.023 -429.595 -327.023C-429.595 -327.023 -429.594 -327.023 -429.594 -327.023C-429.593 -327.023 -429.593 -327.023 -429.592 -327.023C-429.592 -327.023 -429.591 -327.023 -429.59 -327.023C-429.59 -327.023 -429.589 -327.023 -429.589 -327.023C-429.588 -327.023 -429.588 -327.023 -429.587 -327.023C-429.587 -327.023 -429.586 -327.023 -429.586 -327.023C-429.585 -327.023 -429.585 -327.023 -429.584 -327.023C-429.584 -327.023 -429.583 -327.023 -429.583 -327.023C-429.582 -327.023 -429.582 -327.023 -429.581 -327.023C-429.58 -327.023 -429.58 -327.023 -429.579 -327.023C-429.579 -327.023 -429.578 -327.023 -429.578 -327.023C-429.577 -327.023 -429.577 -327.023 -429.576 -327.023C-429.576 -327.023 -429.575 -327.023 -429.575 -327.023C-429.574 -327.023 -429.574 -327.023 -429.573 -327.023C-429.573 -327.023 -429.572 -327.023 -429.572 -327.023C-429.571 -327.023 -429.571 -327.023 -429.57 -327.023C-429.57 -327.023 -429.569 -327.023 -429.569 -327.023C-429.568 -327.023 -429.568 -327.023 -429.567 -327.023C-429.567 -327.023 -429.566 -327.023 -429.566 -327.023C-429.565 -327.023 -429.565 -327.023 -429.564 -327.023C-429.564 -327.023 -429.563 -327.023 -429.563 -327.023C-429.562 -327.023 -429.562 -327.023 -429.561 -327.023C-429.561 -327.023 -429.56 -327.023 -429.56 -327.023C-429.559 -327.023 -429.559 -327.023 -429.558 -327.023C-429.558 -327.023 -429.557 -327.023 -429.557 -327.023C-429.556 -327.023 -429.556 -327.023 -429.556 -327.023C-429.555 -327.023 -429.555 -327.023 -429.554 -327.023C-429.554 -327.023 -429.553 -327.023 -429.553 -327.023C-429.552 -327.023 -429.552 -327.023 -429.551 -327.023C-429.551 -327.023 -429.55 -327.023 -429.55 -327.023C-429.549 -327.023 -429.549 -327.023 -429.548 -327.023C-429.548 -327.023 -429.547 -327.023 -429.547 -327.023C-429.547 -327.023 -429.546 -327.023 -429.546 -327.023C-429.545 -327.023 -429.545 -327.023 -429.544 -327.023C-429.544 -327.023 -429.543 -327.023 -429.543 -327.023C-429.542 -327.023 -429.542 -327.023 -429.541 -327.023C-429.541 -327.023 -429.541 -327.023 -429.54 -327.023C-429.54 -327.023 -429.539 -327.023 -429.539 -327.023C-429.538 -327.023 -429.538 -327.023 -429.537 -327.023C-429.537 -327.023 -429.536 -327.023 -429.536 -327.023C-429.536 -327.023 -429.535 -327.023 -429.535 -327.023C-429.534 -327.023 -429.534 -327.023 -429.533 -327.023C-429.533 -327.023 -429.532 -327.023 -429.532 -327.023C-429.531 -327.023 -429.531 -327.023 -429.531 -327.023C-429.53 -327.023 -429.53 -327.023 -429.529 -327.023C-429.529 -327.023 -429.528 -327.023 -429.528 -327.023C-429.528 -327.023 -429.527 -327.023 -429.527 -327.023C-429.526 -327.023 -429.526 -327.023 -429.525 -327.023C-429.525 -327.023 -429.525 -327.023 -429.524 -327.023C-429.524 -327.023 -429.523 -327.023 -429.523 -327.023C-429.522 -327.023 -429.522 -327.023 -429.521 -327.023C-429.521 -327.023 -429.521 -327.023 -429.52 -327.023C-429.52 -327.023 -429.519 -327.023 -429.519 -327.023C-429.519 -327.023 -429.518 -327.023 -429.518 -327.023C-429.517 -327.023 -429.517 -327.023 -429.516 -327.023C-429.516 -327.023 -429.516 -327.023 -429.515 -327.023C-429.515 -327.023 -429.514 -327.023 -429.514 -327.023C-429.514 -327.023 -429.513 -327.023 -429.513 -327.023C-429.512 -327.023 -429.512 -327.023 -429.511 -327.023C-429.511 -327.023 -429.511 -327.023 -429.51 -327.023C-429.51 -327.023 -429.51 -327.023 -429.509 -327.023C-429.509 -327.023 -429.508 -327.023 -429.508 -327.023C-429.507 -327.023 -429.507 -327.023 -429.507 -327.023C-429.506 -327.023 -429.506 -327.023 -429.505 -327.023C-429.505 -327.023 -429.505 -327.023 -429.504 -327.023C-429.504 -327.023 -429.504 -327.023 -429.503 -327.023C-429.503 -327.023 -429.502 -327.023 -429.502 -327.023C-429.502 -327.023 -429.501 -327.023 -429.501 -327.023C-429.5 -327.023 -429.5 -327.023 -429.5 -327.023C-429.499 -327.023 -429.499 -327.023 -429.498 -327.023C-429.498 -327.023 -429.498 -327.023 -429.497 -327.023C-429.497 -327.023 -429.496 -327.023 -429.496 -327.023C-429.496 -327.023 -429.495 -327.023 -429.495 -327.023C-429.495 -327.023 -429.494 -327.023 -429.494 -327.023C-429.493 -327.023 -429.493 -327.023 -429.493 -327.023C-429.492 -327.023 -429.492 -327.023 -429.492 -327.023C-429.491 -327.023 -429.491 -327.023 -429.49 -327.023C-429.49 -327.023 -429.49 -327.023 -429.489 -327.023C-429.489 -327.023 -429.489 -327.023 -429.488 -327.023C-429.488 -327.023 -429.488 -327.023 -429.487 -327.023C-429.487 -327.023 -429.486 -327.023 -429.486 -327.023C-429.486 -327.023 -429.485 -327.023 -429.485 -327.023C-429.485 -327.023 -429.484 -327.023 -429.484 -327.023C-429.484 -327.023 -429.483 -327.023 -429.483 -327.023C-429.482 -327.023 -429.482 -327.023 -429.482 -327.023C-429.481 -327.023 -429.481 -327.023 -429.481 -327.023C-429.48 -327.023 -429.48 -327.023 -429.48 -327.023C-429.479 -327.023 -429.479 -327.023 -429.479 -327.023C-429.478 -327.023 -429.478 -327.023 -429.478 -327.023C-429.477 -327.023 -429.477 -327.023 -429.476 -327.023C-429.476 -327.023 -429.476 -327.023 -429.475 -327.023C-429.475 -327.023 -429.475 -327.023 -429.474 -327.023C-429.474 -327.023 -429.474 -327.023 -429.473 -327.023C-429.473 -327.023 -429.473 -327.023 -429.472 -327.023C-429.472 -327.023 -429.472 -327.023 -429.471 -327.023C-429.471 -327.023 -429.471 -327.023 -429.47 -327.023C-429.47 -327.023 -429.47 -327.023 -429.469 -327.023C-429.469 -327.023 -429.469 -327.023 -429.468 -327.023C-429.468 -327.023 -429.468 -327.023 -429.467 -327.023C-429.467 -327.023 -429.467 -327.023 -429.466 -327.023C-429.466 -327.023 -429.466 -327.023 -429.465 -327.023C-429.465 -327.023 -429.465 -327.023 -429.464 -327.023C-429.464 -327.023 -429.464 -327.023 -429.463 -327.023C-429.463 -327.023 -429.463 -327.023 -429.462 -327.023C-429.462 -327.023 -429.462 -327.023 -429.462 -327.023C-429.461 -327.023 -429.461 -327.023 -429.461 -327.023C-429.46 -327.023 -429.46 -327.023 -429.46 -327.023C-429.459 -327.023 -429.459 -327.023 -429.459 -327.023C-429.458 -327.023 -429.458 -327.023 -429.458 -327.023C-429.457 -327.023 -429.457 -327.023 -429.457 -327.023C-429.456 -327.023 -429.456 -327.023 -429.456 -327.023C-429.456 -327.023 -429.455 -327.023 -429.455 -327.023C-429.455 -327.023 -429.454 -327.023 -429.454 -327.023C-429.454 -327.023 -429.453 -327.023 -429.453 -327.023C-429.453 -327.023 -429.453 -327.023 -429.452 -327.023C-429.452 -327.023 -429.452 -327.023 -429.451 -327.023C-429.451 -327.023 -429.451 -327.023 -429.45 -327.023C-429.45 -327.023 -429.45 -327.023 -429.45 -327.023C-429.449 -327.023 -429.449 -327.023 -429.449 -327.023C-429.448 -327.023 -429.448 -327.023 -429.448 -327.023C-429.448 -327.023 -429.447 -327.023 -429.447 -327.023C-429.447 -327.023 -429.446 -327.023 -429.446 -327.023C-429.446 -327.023 -429.445 -327.023 -429.445 -327.023C-429.445 -327.023 -429.445 -327.023 -429.444 -327.023C-429.444 -327.023 -429.444 -327.023 -429.443 -327.023C-429.443 -327.023 -429.443 -327.023 -429.443 -327.023C-429.442 -327.023 -429.442 -327.023 -429.442 -327.023C-429.442 -327.023 -429.441 -327.023 -429.441 -327.023C-429.441 -327.023 -429.44 -327.023 -429.44 -327.023C-429.44 -327.023 -429.44 -327.023 -429.439 -327.023C-429.439 -327.023 -429.439 -327.023 -429.438 -327.023C-429.438 -327.023 -429.438 -327.023 -429.438 -327.023C-429.437 -327.023 -429.437 -327.023 -429.437 -327.023C-429.437 -327.023 -429.436 -327.023 -429.436 -327.023C-429.436 -327.023 -429.436 -327.023 -429.435 -327.023C-429.435 -327.023 -429.435 -327.023 -429.434 -327.023C-429.434 -327.023 -429.434 -327.023 -429.434 -327.023C-429.433 -327.023 -429.433 -327.023 -429.433 -327.023C-429.433 -327.023 -429.432 -327.023 -429.432 -327.023C-429.432 -327.023 -429.432 -327.023 -429.431 -327.023C-429.431 -327.023 -429.431 -327.023 -429.431 -327.023C-429.43 -327.023 -429.43 -327.023 -429.43 -327.023C-429.43 -327.023 -429.429 -327.023 -429.429 -327.023C-429.429 -327.023 -429.428 -327.023 -429.428 -327.023C-429.428 -327.023 -429.428 -327.023 -429.427 -327.023C-429.427 -327.023 -429.427 -327.023 -429.427 -327.023C-429.427 -327.023 -429.426 -327.023 -429.426 -327.023C-429.426 -327.023 -429.426 -327.023 -429.425 -327.023C-429.425 -327.023 -429.425 -327.023 -429.425 -327.023C-429.424 -327.023 -429.424 -327.023 -429.424 -327.023C-429.424 -327.023 -429.423 -327.023 -429.423 -327.023C-429.423 -327.023 -429.423 -327.023 -429.422 -327.023C-429.422 -327.023 -429.422 -327.023 -429.422 -327.023C-429.422 -327.023 -429.421 -327.023 -429.421 -327.023C-429.421 -327.023 -429.421 -327.023 -429.42 -327.023C-429.42 -327.023 -429.42 -327.023 -429.42 -327.023C-429.419 -327.023 -429.419 -327.023 -429.419 -327.023C-429.419 -327.023 -429.418 -327.023 -429.418 -327.023C-429.418 -327.023 -429.418 -327.023 -429.417 -327.023C-429.417 -327.023 -429.417 -327.023 -429.417 -327.023C-429.417 -327.023 -429.416 -327.023 -429.416 -327.023C-429.416 -327.023 -429.416 -327.023 -429.416 -327.023C-429.415 -327.023 -429.415 -327.023 -429.415 -327.023C-429.415 -327.023 -429.414 -327.023 -429.414 -327.023C-429.414 -327.023 -429.414 -327.023 -429.414 -327.023C-429.413 -327.023 -429.413 -327.023 -429.413 -327.023C-429.413 -327.023 -429.412 -327.023 -429.412 -327.023C-429.412 -327.023 -429.412 -327.023 -429.412 -327.023C-429.411 -327.023 -429.411 -327.023 -429.411 -327.023C-429.411 -327.023 -429.411 -327.023 -429.41 -327.023C-429.41 -327.023 -429.41 -327.023 -429.41 -327.023C-429.41 -327.023 -429.409 -327.023 -429.409 -327.023C-429.409 -327.023 -429.409 -327.023 -429.408 -327.023C-429.408 -327.023 -429.408 -327.023 -429.408 -327.023C-429.408 -327.023 -429.407 -327.023 -429.407 -327.023C-429.407 -327.023 -429.407 -327.023 -429.407 -327.023C-429.406 -327.023 -429.406 -327.023 -429.406 -327.023C-429.406 -327.023 -429.406 -327.023 -429.405 -327.023C-429.405 -327.023 -429.405 -327.023 -429.405 -327.023C-429.405 -327.023 -429.404 -327.023 -429.404 -327.023C-429.404 -327.023 -429.404 -327.023 -429.404 -327.023C-429.403 -327.023 -429.403 -327.023 -429.403 -327.023C-429.403 -327.023 -429.403 -327.023 -429.402 -327.023C-429.402 -327.023 -429.402 -327.023 -429.402 -327.023C-429.402 -327.023 -429.402 -327.023 -429.401 -327.023C-429.401 -327.023 -429.401 -327.023 -429.401 -327.023C-429.401 -327.023 -429.4 -327.023 -429.4 -327.023C-429.4 -327.023 -429.4 -327.023 -429.4 -327.023C-429.4 -327.023 -429.399 -327.023 -429.399 -327.023C-429.399 -327.023 -429.399 -327.023 -429.399 -327.023C-429.398 -327.023 -429.398 -327.023 -429.398 -327.023C-429.398 -327.023 -429.398 -327.023 -429.397 -327.023C-429.397 -327.023 -429.397 -327.023 -429.397 -327.023C-429.397 -327.023 -429.397 -327.023 -429.396 -327.023C-429.396 -327.023 -429.396 -327.023 -429.396 -327.023C-429.396 -327.023 -429.396 -327.023 -429.395 -327.023C-429.395 -327.023 -429.395 -327.023 -429.395 -327.023C-429.395 -327.023 -429.395 -327.023 -429.394 -327.023C-429.394 -327.023 -429.394 -327.023 -429.394 -327.023C-429.394 -327.023 -429.394 -327.023 -429.393 -327.023C-429.393 -327.023 -429.393 -327.023 -429.393 -327.023C-429.393 -327.023 -429.393 -327.023 -429.392 -327.023C-429.392 -327.023 -429.392 -327.023 -429.392 -327.023C-429.392 -327.023 -429.392 -327.023 -429.391 -327.023C-429.391 -327.023 -429.391 -327.023 -429.391 -327.023C-429.391 -327.023 -429.391 -327.023 -429.39 -327.023C-429.39 -327.023 -429.39 -327.023 -429.39 -327.023C-429.39 -327.023 -429.39 -327.023 -429.39 -327.023C-429.389 -327.023 -429.389 -327.023 -429.389 -327.023C-429.389 -327.023 -429.389 -327.023 -429.389 -327.023C-429.388 -327.023 -429.388 -327.023 -429.388 -327.023C-429.388 -327.023 -429.388 -327.023 -429.388 -327.023C-429.387 -327.023 -429.387 -327.023 -429.387 -327.023C-429.387 -327.023 -429.387 -327.023 -429.387 -327.023C-429.387 -327.023 -429.386 -327.023 -429.386 -327.023C-429.386 -327.023 -429.386 -327.023 -429.386 -327.023C-429.386 -327.023 -429.385 -327.023 -429.385 -327.023C-429.385 -327.023 -429.385 -327.023 -429.385 -327.023C-429.385 -327.023 -429.385 -327.023 -429.385 -327.023C-429.384 -327.023 -429.384 -327.023 -429.384 -327.023C-429.384 -327.023 -429.384 -327.023 -429.384 -327.023C-429.384 -327.023 -429.383 -327.023 -429.383 -327.023C-429.383 -327.023 -429.383 -327.023 -429.383 -327.023C-429.383 -327.023 -429.383 -327.023 -429.382 -327.023C-429.382 -327.023 -429.382 -327.023 -429.382 -327.023C-429.382 -327.023 -429.382 -327.023 -429.382 -327.023C-429.381 -327.023 -429.381 -327.023 -429.381 -327.023C-429.381 -327.023 -429.381 -327.023 -429.381 -327.023C-429.381 -327.023 -429.38 -327.023 -429.38 -327.023C-429.38 -327.023 -429.38 -327.023 -429.38 -327.023C-429.38 -327.023 -429.38 -327.023 -429.38 -327.023C-429.38 -327.023 -429.379 -327.023 -429.379 -327.023C-429.379 -327.023 -429.379 -327.023 -429.379 -327.023C-429.379 -327.023 -429.379 -327.023 -429.379 -327.023C-429.378 -327.023 -429.378 -327.023 -429.378 -327.023C-429.378 -327.023 -429.378 -327.023 -429.378 -327.023C-429.378 -327.023 -429.377 -327.023 -429.377 -327.023C-429.377 -327.023 -429.377 -327.023 -429.377 -327.023C-429.377 -327.023 -429.377 -327.023 -429.377 -327.023C-429.377 -327.023 -429.376 -327.023 -429.376 -327.023C-429.376 -327.023 -429.376 -327.023 -429.376 -327.023C-429.376 -327.023 -429.376 -327.023 -429.376 -327.023C-429.375 -327.023 -429.375 -327.023 -429.375 -327.023C-429.375 -327.023 -429.375 -327.023 -429.375 -327.023C-429.375 -327.023 -429.375 -327.023 -429.375 -327.023C-429.374 -327.023 -429.374 -327.023 -429.374 -327.023C-429.374 -327.023 -429.374 -327.023 -429.374 -327.023C-429.374 -327.023 -429.374 -327.023 -429.374 -327.023C-429.373 -327.023 -429.373 -327.023 -429.373 -327.023C-429.373 -327.023 -429.373 -327.023 -429.373 -327.023C-429.373 -327.023 -429.373 -327.023 -429.373 -327.023C-429.372 -327.023 -429.372 -327.023 -429.372 -327.023C-429.372 -327.023 -429.372 -327.023 -429.372 -327.023C-429.372 -327.023 -429.372 -327.023 -429.372 -327.023C-429.372 -327.023 -429.371 -327.023 -429.371 -327.023C-429.371 -327.023 -429.371 -327.023 -429.371 -327.023C-429.371 -327.023 -429.371 -327.023 -429.371 -327.023C-429.371 -327.023 -429.37 -327.023 -429.37 -327.023C-429.37 -327.023 -429.37 -327.023 -429.37 -327.023C-429.37 -327.023 -429.37 -327.023 -429.37 -327.023C-429.37 -327.023 -429.37 -327.023 -429.37 -327.023C-429.37 -327.023 -429.369 -327.023 -429.369 -327.023C-429.369 -327.023 -429.369 -327.023 -429.369 -327.023C-429.369 -327.023 -429.369 -327.023 -429.369 -327.023C-429.369 -327.023 -429.369 -327.023 -429.368 -327.023C-429.368 -327.023 -429.368 -327.023 -429.368 -327.023C-429.368 -327.023 -429.368 -327.023 -429.368 -327.023C-429.368 -327.023 -429.368 -327.023 -429.368 -327.023C-429.368 -327.023 -429.367 -327.023 -429.367 -327.023C-429.367 -327.023 -429.367 -327.023 -429.367 -327.023C-429.367 -327.023 -429.367 -327.023 -429.367 -327.023C-429.367 -327.023 -429.367 -327.023 -429.367 -327.023C-429.366 -327.023 -429.366 -327.023 -429.366 -327.023C-429.366 -327.023 -429.366 -327.023 -429.366 -327.023C-429.366 -327.023 -429.366 -327.023 -429.366 -327.023C-429.366 -327.023 -429.366 -327.023 -429.366 -327.023C-429.365 -327.023 -429.365 -327.023 -429.365 -327.023C-429.365 -327.023 -429.365 -327.023 -429.365 -327.023C-429.365 -327.023 -429.365 -327.023 -429.365 -327.023C-429.365 -327.023 -429.365 -327.023 -429.365 -327.023C-429.365 -327.023 -429.365 -327.023 -429.364 -327.023C-429.364 -327.023 -429.364 -327.023 -429.364 -327.023C-429.364 -327.023 -429.364 -327.023 -429.364 -327.023C-429.364 -327.023 -429.364 -327.023 -429.364 -327.023H-429.364C-429.363 -327.023 -429.363 -327.023 -429.363 -327.023C-429.363 -327.023 -429.363 -327.023 -429.363 -327.023C-429.363 -327.023 -429.363 -327.023 -429.363 -327.023C-429.363 -327.023 -429.363 -327.023 -429.363 -327.023H-429.362C-429.362 -327.023 -429.362 -327.023 -429.362 -327.023C-429.362 -327.023 -429.362 -327.023 -429.362 -327.023H-429.362C-429.362 -327.023 -429.362 -327.023 -429.362 -327.023H-429.361C-429.361 -327.023 -429.361 -327.023 -429.361 -327.023C-429.361 -327.023 -429.361 -327.023 -429.361 -327.023H-429.361C-429.361 -327.023 -429.361 -327.023 -429.361 -327.023H-429.36C-429.36 -327.023 -429.36 -327.023 -429.36 -327.023H-429.36C-429.36 -327.023 -429.36 -327.023 -429.36 -327.023C-429.36 -327.023 -429.36 -327.023 -429.36 -327.023H-429.36C-429.359 -327.023 -429.359 -327.023 -429.359 -327.023H-429.359C-429.359 -327.023 -429.359 -327.023 -429.359 -327.023C-429.359 -327.023 -429.359 -327.023 -429.359 -327.023H-429.359C-429.359 -327.023 -429.359 -327.023 -429.359 -327.023C-429.359 -327.023 -429.359 -327.023 -429.358 -327.023H-429.358H-429.358C-429.358 -327.023 -429.358 -327.023 -429.358 -327.023C-429.358 -327.023 -429.358 -327.023 -429.358 -327.023C-429.358 -327.023 -429.358 -327.023 -429.358 -327.023H-429.358H-429.357H-429.357C-429.357 -327.023 -429.357 -327.023 -429.357 -327.023C-429.357 -327.023 -429.357 -327.023 -429.357 -327.023C-429.357 -327.023 -429.357 -327.023 -429.357 -327.023C-429.357 -327.023 -429.357 -327.023 -429.357 -327.023C-429.357 -327.023 -429.357 -327.023 -429.357 -327.023C-429.357 -327.023 -429.357 -327.023 -429.356 -327.023C-429.356 -327.023 -429.356 -327.023 -429.356 -327.023C-429.356 -327.023 -429.356 -327.023 -429.356 -327.023C-429.356 -327.023 -429.356 -327.023 -429.356 -327.023C-429.356 -327.023 -429.356 -327.023 -429.356 -327.023C-429.356 -327.023 -429.356 -327.023 -429.356 -327.023C-429.356 -327.023 -429.356 -327.023 -429.356 -327.023C-429.356 -327.023 -429.356 -327.023 -429.356 -327.023C-429.355 -327.023 -429.355 -327.023 -429.355 -327.023H-429.355H-429.355C-429.355 -327.023 -429.355 -327.023 -429.355 -327.023C-429.355 -327.023 -429.355 -327.023 -429.355 -327.023C-429.355 -327.023 -429.355 -327.023 -429.355 -327.023H-429.355H-429.355C-429.355 -327.023 -429.355 -327.023 -429.354 -327.023C-429.354 -327.023 -429.354 -327.023 -429.354 -327.023C-429.354 -327.023 -429.354 -327.023 -429.354 -327.023C-429.354 -327.023 -429.354 -327.023 -429.354 -327.023H-429.354C-429.354 -327.023 -429.354 -327.023 -429.354 -327.023H-429.354C-429.354 -327.023 -429.354 -327.023 -429.354 -327.023C-429.354 -327.023 -429.354 -327.023 -429.354 -327.023H-429.353H-429.353C-429.353 -327.023 -429.353 -327.023 -429.353 -327.023C-429.353 -327.023 -429.353 -327.023 -429.353 -327.023C-429.353 -327.023 -429.353 -327.023 -429.353 -327.023H-429.353H-429.353C-429.353 -327.023 -429.353 -327.023 -429.353 -327.023H-429.352C-429.352 -327.023 -429.352 -327.023 -429.352 -327.023C-429.352 -327.023 -429.352 -327.023 -429.352 -327.023C-429.352 -327.023 -429.352 -327.023 -429.352 -327.023C-429.352 -327.023 -429.352 -327.023 -429.352 -327.023C-429.352 -327.023 -429.352 -327.023 -429.352 -327.023C-429.352 -327.023 -429.352 -327.023 -429.352 -327.023C-429.352 -327.023 -429.352 -327.023 -429.352 -327.023C-429.352 -327.023 -429.352 -327.023 -429.351 -327.023C-429.351 -327.023 -429.351 -327.023 -429.351 -327.023C-429.351 -327.023 -429.351 -327.023 -429.351 -344.023ZM-431.014 -360.972C-439.539 -360.316 -447.817 -360.308 -457.192 -360.308V-326.308C-448.007 -326.308 -438.439 -326.3 -428.402 -327.073L-431.014 -360.972ZM-457.192 -360.308C-470.549 -360.308 -484.05 -360.829 -497.938 -361.367C-511.713 -361.901 -525.874 -362.453 -540.001 -362.453V-328.453C-526.644 -328.453 -513.143 -327.931 -499.255 -327.393C-485.481 -326.859 -471.319 -326.308 -457.192 -326.308V-360.308ZM-540.001 -362.453C-549.195 -362.453 -559.093 -362.46 -569.457 -361.691L-566.941 -327.784C-558.03 -328.445 -549.367 -328.453 -540.001 -328.453V-362.453ZM-569.305 -361.702C-713.539 -352.297 -845.585 -245.867 -886.126 -107.144L-853.492 -97.6067C-816.935 -222.694 -696.985 -319.305 -567.093 -327.774L-569.305 -361.702ZM-886.132 -107.126C-896.964 -69.9053 -901.445 -31.8945 -904.938 5.09851C-908.472 42.5433 -910.975 78.5137 -917.576 114L-884.149 120.217C-877.186 82.7804 -874.513 44.5767 -871.088 8.29419C-867.62 -28.4401 -863.356 -63.7098 -853.486 -97.6251L-886.132 -107.126ZM-917.583 114.042C-929.927 181.347 -958.774 244.754 -999.502 300.06L-972.124 320.221C-928.615 261.137 -897.497 192.997 -884.141 120.175L-917.583 114.042ZM-999.737 300.388C-1083.07 419.359 -1221.09 496.896 -1377.01 496.896V530.896C-1209.55 530.896 -1061.32 447.573 -971.889 319.893L-999.737 300.388ZM-1377.01 496.896C-1631.38 496.896 -1837.95 290.401 -1837.95 35.2489H-1871.95C-1871.95 309.147 -1650.19 530.896 -1377.01 530.896V496.896ZM-1837.95 35.2489C-1837.95 -44.7721 -1817.64 -119.928 -1782.18 -185.437L-1812.08 -201.622C-1850.14 -131.294 -1871.95 -50.5944 -1871.95 35.2489H-1837.95ZM-1782.02 -185.735C-1771.36 -206.394 -1758.99 -226.351 -1745.27 -244.904L-1772.6 -265.123C-1787.43 -245.07 -1800.76 -223.561 -1812.23 -201.324L-1782.02 -185.735ZM-1745.26 -244.907C-1659.08 -361.476 -1513.68 -430.33 -1368.8 -430.33V-464.33C-1523.76 -464.33 -1679.6 -390.913 -1772.6 -265.12L-1745.26 -244.907ZM-1368.8 -430.33C-1329.24 -430.33 -1290.1 -425.164 -1252.03 -414.515L-1242.87 -447.259C-1284.03 -458.773 -1326.27 -464.33 -1368.8 -464.33V-430.33ZM-1252.05 -414.522C-1216.82 -404.616 -1182.86 -390.646 -1147.22 -376.832C-1111.99 -363.175 -1075.43 -349.808 -1036.87 -342.346L-1030.41 -375.726C-1065.74 -382.563 -1099.85 -394.933 -1134.94 -408.533C-1169.62 -421.977 -1205.61 -436.782 -1242.84 -447.252L-1252.05 -414.522ZM-1036.87 -342.345C-1015.38 -338.193 -993.954 -336.317 -972.606 -336.317V-370.317C-991.95 -370.317 -1011.21 -372.015 -1030.42 -375.727L-1036.87 -342.345ZM-972.606 -336.317C-814.288 -336.317 -657.842 -444.028 -609.8 -597.389L-642.245 -607.552C-685.579 -469.221 -828.244 -370.317 -972.606 -370.317V-336.317ZM-609.797 -597.397C-555.476 -771.109 -648.317 -977.305 -814.35 -1051.25L-828.182 -1020.19C-677.97 -953.292 -593.058 -764.846 -642.248 -607.544L-609.797 -597.397ZM-814.378 -1051.26C-846.675 -1065.58 -880.717 -1075.19 -913.121 -1084.7C-945.951 -1094.33 -977.308 -1103.9 -1006.54 -1118.19L-1021.48 -1087.65C-989.321 -1071.92 -955.359 -1061.65 -922.691 -1052.07C-889.597 -1042.36 -857.963 -1033.39 -828.154 -1020.18L-814.378 -1051.26ZM-1006.52 -1118.18C-1128.08 -1177.88 -1197.19 -1329.46 -1162.83 -1460.73L-1195.72 -1469.34C-1234.16 -1322.5 -1157.64 -1154.51 -1021.5 -1087.66L-1006.52 -1118.18ZM-1162.86 -1460.61C-1159.46 -1473.21 -1155.42 -1485.3 -1150.44 -1496.95L-1181.69 -1510.33C-1187.42 -1496.96 -1191.95 -1483.31 -1195.68 -1469.47L-1162.86 -1460.61ZM-1150.19 -1497.57C-1107.64 -1608.84 -999.929 -1687.9 -874.092 -1687.9V-1721.9C-1014.53 -1721.9 -1134.55 -1633.66 -1181.94 -1509.71L-1150.19 -1497.57ZM-874.092 -1757.64C-1024.65 -1757.64 -1161.59 -1663.19 -1215.5 -1522.23L-1183.74 -1510.08C-1134.85 -1637.93 -1010.51 -1723.64 -874.092 -1723.64V-1757.64ZM-1215.22 -1522.89C-1221.3 -1508.83 -1226.61 -1493.26 -1230.41 -1477.64L-1197.38 -1469.59C-1194.04 -1483.28 -1189.36 -1497.03 -1184.01 -1509.41L-1215.22 -1522.89ZM-1230.34 -1477.93C-1273.08 -1314.98 -1188.32 -1129.5 -1037.59 -1055.15L-1022.55 -1085.64C-1158.8 -1152.85 -1236.09 -1321.97 -1197.45 -1469.3L-1230.34 -1477.93ZM-1037.62 -1055.16C-1000.72 -1036.87 -962.528 -1025.77 -927.02 -1015.46L-917.537 -1048.11C-953.416 -1058.53 -988.748 -1068.88 -1022.52 -1085.63L-1037.62 -1055.16ZM-927.082 -1015.48C-896.359 -1006.43 -868.737 -998.551 -843.285 -986.996L-829.229 -1017.95C-857.317 -1030.71 -887.519 -1039.27 -917.475 -1048.09L-927.082 -1015.48ZM-843.156 -986.938C-709.391 -927.548 -633.037 -757.712 -676.866 -617.923L-644.424 -607.751C-595.451 -763.944 -679.717 -951.574 -829.359 -1018.01L-843.156 -986.938ZM-676.868 -617.919C-714.526 -497.704 -842.289 -405.706 -973.32 -405.706V-371.706C-828.084 -371.706 -686.717 -472.739 -644.422 -607.755L-676.868 -617.919ZM-973.32 -405.706C-990.446 -405.706 -1007.98 -407.391 -1024.5 -410.43L-1030.65 -376.991C-1012.19 -373.596 -992.602 -371.706 -973.32 -371.706V-405.706ZM-1024.38 -410.408C-1061.82 -417.565 -1097.84 -431.592 -1137.66 -447.402L-1150.21 -415.801C-1110.79 -400.154 -1071.86 -384.869 -1030.77 -377.013L-1024.38 -410.408ZM-1137.77 -447.446C-1167.85 -459.141 -1200.18 -472.029 -1234.06 -481.25L-1242.99 -448.443C-1211.19 -439.791 -1180.7 -427.656 -1150.1 -415.757L-1137.77 -447.446ZM-1233.94 -481.216C-1277.65 -493.458 -1323.1 -499.362 -1369.52 -499.362V-465.362C-1325.99 -465.362 -1283.64 -459.828 -1243.11 -448.476L-1233.94 -481.216ZM-1369.52 -499.362C-1538.53 -499.362 -1704.31 -417.616 -1801.86 -285.863L-1774.54 -265.63C-1683.64 -388.393 -1528.17 -465.362 -1369.52 -465.362V-499.362ZM-1801.87 -285.861C-1817.73 -264.426 -1832.19 -241.425 -1844.46 -216.852L-1814.04 -201.664C-1802.75 -224.277 -1789.37 -245.601 -1774.54 -265.632L-1801.87 -285.861ZM-1844.19 -217.364C-1885.89 -140.495 -1908 -52.9852 -1908 35.6063H-1874C-1874 -47.3859 -1853.28 -129.315 -1814.31 -201.152L-1844.19 -217.364ZM-1908 35.6063C-1908 328.434 -1670.2 567 -1377.37 567V533C-1651.36 533 -1874 309.719 -1874 35.6063H-1908ZM-1377.37 567C-1204.78 567 -1042.17 482.432 -942.971 340.617L-970.832 321.129C-1063.67 453.849 -1215.87 533 -1377.37 533V567ZM-943.2 340.937C-896.062 276.764 -863.574 202.906 -849.524 126.995L-882.956 120.807C-896.032 191.456 -926.365 260.584 -970.602 320.81L-943.2 340.937ZM-849.513 126.937C-843.644 94.6097 -840.728 61.6516 -837.891 31.1018L-871.745 27.9573C-874.618 58.8916 -877.413 90.2773 -882.966 120.864L-849.513 126.937ZM-837.889 31.0791C-833.929 -12.1787 -830.457 -50.9005 -819.915 -87.6827L-852.599 -97.0503C-864.187 -56.6198 -867.854 -14.5541 -871.747 27.98L-837.889 31.0791ZM-819.936 -87.6111C-787.661 -198.385 -680.561 -284.646 -565.629 -292.387L-567.914 -326.31C-697.125 -317.607 -816.322 -221.561 -852.578 -97.1218L-819.936 -87.6111ZM-565.357 -292.407C-557.614 -293.054 -549.755 -293.063 -541.072 -293.063V-327.063C-549.522 -327.063 -558.796 -327.073 -568.185 -326.29L-565.357 -292.407ZM-541.072 -293.063C-528.168 -293.063 -514.903 -292.714 -501.633 -292.015L-499.844 -325.967C-513.701 -326.698 -527.563 -327.063 -541.072 -327.063V-293.063ZM-501.164 -291.996C-487.5 -291.654 -472.429 -290.918 -458.263 -290.918V-324.918C-471.938 -324.918 -485.422 -325.613 -500.313 -325.986L-501.164 -291.996ZM-458.263 -290.918C-448.73 -290.918 -438.463 -290.911 -428.094 -291.68L-430.609 -325.587C-439.514 -324.926 -448.522 -324.918 -458.263 -324.918V-290.918ZM-429.255 -291.634C-293.564 -292.401 -183.913 -402.575 -183.913 -538.127H-217.913C-217.913 -421.307 -312.429 -326.295 -429.448 -325.633L-429.255 -291.634ZM-183.913 -538.127C-183.913 -626.424 -231.425 -708.568 -308.132 -752.357L-324.988 -722.829C-258.921 -685.115 -217.913 -614.264 -217.913 -538.127H-183.913ZM-307.38 -751.901C-331.208 -767.189 -356.111 -779.088 -379.001 -790.374L-394.037 -759.879C-370.525 -748.287 -347.599 -737.309 -325.74 -723.284L-307.38 -751.901ZM-379.222 -790.481C-400.263 -800.481 -419.091 -809.763 -436.368 -820.62L-454.458 -791.832C-435.328 -779.811 -414.894 -769.79 -393.817 -759.773L-379.222 -790.481ZM-436.518 -820.713C-539.144 -883.728 -594.267 -1015.41 -567.333 -1133.09L-600.476 -1140.68C-630.651 -1008.84 -569.413 -862.416 -454.309 -791.739L-436.518 -820.713ZM-567.313 -1133.18C-561.548 -1158.99 -552.017 -1184.28 -541.554 -1212.47L-573.428 -1224.3C-583.667 -1196.72 -594.125 -1169.11 -600.495 -1140.59L-567.313 -1133.18ZM-541.548 -1212.48C-529.89 -1243.97 -516.839 -1278.24 -509.741 -1315.28L-543.134 -1321.67C-549.6 -1287.93 -561.534 -1256.43 -573.433 -1224.29L-541.548 -1212.48ZM-509.771 -1315.12C-488.796 -1419.41 -515.725 -1531 -581.254 -1614.25L-607.97 -1593.22C-548.573 -1517.76 -524.103 -1416.29 -543.104 -1321.83L-509.771 -1315.12ZM-581.255 -1614.25C-596.65 -1633.8 -614.63 -1652.18 -634.097 -1668.3L-655.783 -1642.12C-638.129 -1627.49 -621.843 -1610.84 -607.969 -1593.22L-581.255 -1614.25ZM-633.736 -1667.99C-699.657 -1725.76 -785.02 -1758 -873.378 -1758V-1724C-793.263 -1724 -715.864 -1694.76 -656.144 -1642.42L-633.736 -1667.99ZM-880.99 -1756.2L-881.704 -1755.84L-866.481 -1725.44L-865.767 -1725.8L-880.99 -1756.2Z" fill="white" mask="url(#path-1-inside-1_195_4)"/>
</g>
<rect id="Rectangle 56" x="-258" y="-469" width="363" height="704" rx="72" fill="#F8F8F8"/>
<path id="Vector_2" d="M3.3 0H29.7C31.515 0 33 1.4625 33 3.25V22.75C33 24.5375 31.515 26 29.7 26H3.3C1.485 26 0 24.5375 0 22.75V3.25C0 1.4625 1.485 0 3.3 0Z" fill="#4EBA64"/>
<path id="Vector_3" d="M33 3L16.5 15L0 3" stroke="#EBEBEB" stroke-width="2" stroke-linecap="round" stroke-linejoin="round"/>
</g>
<defs>
<clipPath id="clip0_195_4">
<rect width="1440" height="2129" fill="white" transform="translate(-1095 -868)"/>
</clipPath>
</defs>
</svg>
