<svg xmlns="http://www.w3.org/2000/svg" width="29" height="29" viewBox="0 0 29 29" fill="none">
<path d="M27.2925 28.497C26.9562 28.521 26.6173 28.4022 26.3429 28.1293L20.9698 22.7863C18.8061 24.5117 16.0534 25.5414 13.0884 25.5414C6.14807 25.5414 0.5 19.929 0.5 13.0207C0.5 6.11242 6.14807 0.5 13.0884 0.5C20.0285 0.5 25.6765 6.11206 25.6768 13.0201L27.2925 28.497ZM27.2925 28.497C27.6155 28.4739 27.9021 28.3225 28.1098 28.1174M27.2925 28.497L28.1098 28.1174M28.1098 28.1174C28.3173 27.9125 28.4728 27.6275 28.4968 27.3043M28.1098 28.1174L28.4968 27.3043M28.4968 27.3043C28.5218 26.9675 28.4001 26.6308 28.1248 26.3617M28.4968 27.3043L28.1248 26.3617M28.1248 26.3617L22.7634 21.0161C24.6455 18.7786 25.6805 15.9488 25.6768 13.0207L28.1248 26.3617ZM3.01713 13.0207C3.01713 7.50103 7.54351 3.01014 13.0869 3.01014C18.645 3.01014 23.1567 7.50057 23.1567 13.0207C23.1567 18.5409 18.645 23.0313 13.0869 23.0313C7.54351 23.0313 3.01713 18.5404 3.01713 13.0207Z" fill="#D3D3D3" stroke="#D3D3D3"/>
</svg>