<svg xmlns="http://www.w3.org/2000/svg" width="33" height="37" viewBox="0 0 33 37" fill="none">
<path d="M10.3125 4.11503C9.76549 4.11503 9.24089 4.33154 8.85409 4.71692C8.4673 5.10231 8.25 5.625 8.25 6.17002C8.25 6.71504 8.4673 7.23774 8.85409 7.62313C9.24089 8.00851 9.76549 8.22502 10.3125 8.22502C10.8595 8.22502 11.3841 8.00851 11.7709 7.62313C12.1577 7.23774 12.375 6.71504 12.375 6.17002C12.375 5.625 12.1577 5.10231 11.7709 4.71692C11.3841 4.33154 10.8595 4.11503 10.3125 4.11503ZM4.47563 4.11503C4.90174 2.91176 5.69196 1.86981 6.73736 1.1328C7.78276 0.395784 9.03187 0 10.3125 0C11.5931 0 12.8422 0.395784 13.8876 1.1328C14.933 1.86981 15.7233 2.91176 16.1494 4.11503H30.9375C31.4845 4.11503 32.0091 4.33154 32.3959 4.71692C32.7827 5.10231 33 5.625 33 6.17002C33 6.71504 32.7827 7.23774 32.3959 7.62313C32.0091 8.00851 31.4845 8.22502 30.9375 8.22502H16.1494C15.7233 9.42829 14.933 10.4702 13.8876 11.2073C12.8422 11.9443 11.5931 12.34 10.3125 12.34C9.03187 12.34 7.78276 11.9443 6.73736 11.2073C5.69196 10.4702 4.90174 9.42829 4.47563 8.22502H2.0625C1.51549 8.22502 0.990886 8.00851 0.604093 7.62313C0.217299 7.23774 0 6.71504 0 6.17002C0 5.625 0.217299 5.10231 0.604093 4.71692C0.990886 4.33154 1.51549 4.11503 2.0625 4.11503H4.47563ZM22.6875 16.445C22.1405 16.445 21.6159 16.6615 21.2291 17.0469C20.8423 17.4323 20.625 17.955 20.625 18.5C20.625 19.045 20.8423 19.5677 21.2291 19.9531C21.6159 20.3385 22.1405 20.555 22.6875 20.555C23.2345 20.555 23.7591 20.3385 24.1459 19.9531C24.5327 19.5677 24.75 19.045 24.75 18.5C24.75 17.955 24.5327 17.4323 24.1459 17.0469C23.7591 16.6615 23.2345 16.445 22.6875 16.445ZM16.8506 16.445C17.2767 15.2417 18.067 14.1998 19.1124 13.4628C20.1578 12.7258 21.4069 12.33 22.6875 12.33C23.9681 12.33 25.2172 12.7258 26.2626 13.4628C27.308 14.1998 28.0983 15.2417 28.5244 16.445H30.9375C31.4845 16.445 32.0091 16.6615 32.3959 17.0469C32.7827 17.4323 33 17.955 33 18.5C33 19.045 32.7827 19.5677 32.3959 19.9531C32.0091 20.3385 31.4845 20.555 30.9375 20.555H28.5244C28.0983 21.7583 27.308 22.8002 26.2626 23.5372C25.2172 24.2742 23.9681 24.67 22.6875 24.67C21.4069 24.67 20.1578 24.2742 19.1124 23.5372C18.067 22.8002 17.2767 21.7583 16.8506 20.555H2.0625C1.51549 20.555 0.990886 20.3385 0.604093 19.9531C0.217299 19.5677 0 19.045 0 18.5C0 17.955 0.217299 17.4323 0.604093 17.0469C0.990886 16.6615 1.51549 16.445 2.0625 16.445H16.8506ZM10.3125 28.775C9.76549 28.775 9.24089 28.9915 8.85409 29.3769C8.4673 29.7623 8.25 30.285 8.25 30.83C8.25 31.375 8.4673 31.8977 8.85409 32.2831C9.24089 32.6685 9.76549 32.885 10.3125 32.885C10.8595 32.885 11.3841 32.6685 11.7709 32.2831C12.1577 31.8977 12.375 31.375 12.375 30.83C12.375 30.285 12.1577 29.7623 11.7709 29.3769C11.3841 28.9915 10.8595 28.775 10.3125 28.775ZM4.47563 28.775C4.90174 27.5717 5.69196 26.5298 6.73736 25.7927C7.78276 25.0557 9.03187 24.66 10.3125 24.66C11.5931 24.66 12.8422 25.0557 13.8876 25.7927C14.933 26.5298 15.7233 27.5717 16.1494 28.775H30.9375C31.4845 28.775 32.0091 28.9915 32.3959 29.3769C32.7827 29.7623 33 30.285 33 30.83C33 31.375 32.7827 31.8977 32.3959 32.2831C32.0091 32.6685 31.4845 32.885 30.9375 32.885H16.1494C15.7233 34.0882 14.933 35.1302 13.8876 35.8672C12.8422 36.6042 11.5931 37 10.3125 37C9.03187 37 7.78276 36.6042 6.73736 35.8672C5.69196 35.1302 4.90174 34.0882 4.47563 32.885H2.0625C1.51549 32.885 0.990886 32.6685 0.604093 32.2831C0.217299 31.8977 0 31.375 0 30.83C0 30.285 0.217299 29.7623 0.604093 29.3769C0.990886 28.9915 1.51549 28.775 2.0625 28.775H4.47563Z" fill="white"/>
</svg>