<svg xmlns="http://www.w3.org/2000/svg" width="25" height="25" viewBox="0 0 25 25" fill="none">
<path d="M11.1413 4.18146C11.569 2.8653 13.431 2.8653 13.8586 4.18145L14.9857 7.65012C15.1769 8.23873 15.7254 8.63724 16.3443 8.63724H19.9915C21.3754 8.63724 21.9508 10.4081 20.8312 11.2215L17.8806 13.3653C17.3799 13.7291 17.1704 14.3739 17.3616 14.9625L18.4886 18.4312C18.9163 19.7473 17.4099 20.8418 16.2903 20.0284L13.3397 17.8846C12.839 17.5208 12.161 17.5208 11.6603 17.8846L8.70966 20.0284C7.59007 20.8418 6.08366 19.7473 6.51131 18.4312L7.63835 14.9625C7.8296 14.3739 7.62008 13.7291 7.11939 13.3653L4.16877 11.2216C3.04917 10.4081 3.62457 8.63724 5.00846 8.63724H8.65563C9.27452 8.63724 9.82303 8.23873 10.0143 7.65012L11.1413 4.18146Z" fill="#4EBA64"/>
</svg>