Copy
<svg xmlns="http://www.w3.org/2000/svg" width="1412" height="1418" viewBox="0 0 1412 1418" fill="none">
<mask id="path-1-inside-1_301_1521" fill="white">
<path d="M1072.55 -577.018C1240.31 -577.018 1376.31 -440.824 1376.31 -272.814C1376.31 -104.805 1240.31 31.3892 1072.55 31.3892C904.795 31.3892 768.803 -104.805 768.803 -272.814C768.803 -440.824 904.795 -577.018 1072.55 -577.018ZM1072.55 -612.765C885.164 -612.765 733.11 -460.127 733.11 -272.814C733.11 -85.5023 885.521 67.1357 1072.55 67.1357C1259.59 67.1357 1412 -85.5023 1412 -272.814C1412 -460.127 1259.59 -612.765 1072.55 -612.765Z"/>
<path d="M221.979 -836.181C300.861 -836.181 372.962 -806.869 427.93 -758.611C444.349 -745.027 459.697 -729.656 472.904 -712.855C528.943 -641.719 552.143 -545.561 534.297 -456.909C521.804 -395.068 491.107 -337.873 476.83 -276.389C445.063 -137.335 510.382 18.1629 631.383 92.8734C672.787 118.253 720.26 135.412 760.593 161.507C819.488 194.751 859.107 257.665 859.107 330.231C859.107 437.113 772.372 523.977 665.649 523.977C665.649 523.977 665.649 523.977 665.292 523.977C656.011 524.692 647.088 524.692 637.808 524.692C610.324 524.692 582.483 522.547 554.999 522.547C545.719 522.547 536.438 522.547 526.801 523.262C389.738 532.199 263.74 633.72 225.191 765.625C204.489 836.76 207.701 912.186 194.138 985.109C181.288 1055.17 151.305 1120.95 109.187 1178.14C22.8088 1301.47 -120.322 1381.9 -282.014 1381.9C-545.789 1381.9 -759.95 1167.77 -759.95 903.249C-759.95 820.317 -738.89 742.389 -702.126 674.47C-691.061 653.023 -678.211 632.29 -663.934 612.986C-574.343 491.805 -423.717 420.67 -273.804 420.67C-232.757 420.67 -192.066 426.032 -152.446 437.113C-79.9884 457.489 -12.5277 494.665 61.3578 508.964C81.7031 512.896 102.048 514.683 122.394 514.683C273.734 514.683 423.29 411.376 468.977 265.53C520.733 100.023 431.856 -97.2986 273.734 -167.719C211.627 -195.244 142.382 -204.896 80.9892 -234.923C-47.8643 -298.195 -120.679 -457.982 -84.2717 -597.036C-80.7023 -610.262 -76.4191 -623.131 -71.0651 -635.643C-26.0912 -753.249 87.771 -836.896 220.908 -836.896M220.908 -872.643C77.4199 -872.643 -53.2183 -782.561 -104.617 -648.154C-110.328 -634.928 -115.325 -620.271 -118.894 -605.615C-159.585 -450.475 -78.5607 -273.172 64.9272 -202.394C100.264 -184.878 137.028 -174.154 172.722 -163.787C203.061 -154.851 231.973 -146.629 258.743 -134.475C400.446 -71.561 480.756 107.172 434.355 255.163C394.378 382.778 259.814 479.294 121.68 479.294C103.476 479.294 84.9155 477.507 67.4257 474.29C28.1628 466.783 -9.31531 452.127 -48.9351 436.398C-79.2745 424.602 -110.685 412.09 -143.523 403.154C-185.641 391.357 -229.544 385.638 -274.518 385.638C-438.351 385.638 -598.972 464.995 -693.203 592.253C-708.551 612.986 -722.471 635.149 -734.25 658.742C-774.584 733.095 -796 817.814 -796 903.606C-796 1187.08 -565.777 1418 -282.371 1418C-115.325 1418 42.0833 1336.14 138.099 1198.87C183.786 1136.67 215.197 1065.18 228.76 991.901C234.471 960.443 237.327 928.272 240.182 897.53C244.109 854.634 247.678 814.24 258.743 775.634C293.009 658.027 406.157 566.873 528.229 558.652C536.795 557.937 545.362 557.937 553.928 557.937C567.135 557.937 580.698 558.294 594.262 559.009C608.539 559.366 622.817 560.082 636.737 560.082C646.374 560.082 656.011 560.082 665.649 559.367C792.004 558.652 894.087 456.059 894.087 329.873C894.087 247.656 849.827 171.158 778.44 130.407C755.596 115.751 731.682 104.312 708.481 92.8734C687.422 82.8643 667.79 73.2127 649.587 61.7738C540.721 -5.07233 482.541 -144.127 511.096 -268.882C517.164 -296.05 527.158 -322.502 537.509 -350.385C549.288 -382.199 561.781 -415.086 568.562 -450.475C588.551 -549.851 562.851 -656.376 500.388 -735.733C485.754 -754.321 468.62 -771.837 450.06 -787.208C387.239 -842.258 305.858 -873 221.622 -873L220.908 -872.643Z"/>
</mask>
<path d="M1072.55 -577.018C1240.31 -577.018 1376.31 -440.824 1376.31 -272.814C1376.31 -104.805 1240.31 31.3892 1072.55 31.3892C904.795 31.3892 768.803 -104.805 768.803 -272.814C768.803 -440.824 904.795 -577.018 1072.55 -577.018ZM1072.55 -612.765C885.164 -612.765 733.11 -460.127 733.11 -272.814C733.11 -85.5023 885.521 67.1357 1072.55 67.1357C1259.59 67.1357 1412 -85.5023 1412 -272.814C1412 -460.127 1259.59 -612.765 1072.55 -612.765Z" fill="#4EBA64"/>
<path d="M221.979 -836.181C300.861 -836.181 372.962 -806.869 427.93 -758.611C444.349 -745.027 459.697 -729.656 472.904 -712.855C528.943 -641.719 552.143 -545.561 534.297 -456.909C521.804 -395.068 491.107 -337.873 476.83 -276.389C445.063 -137.335 510.382 18.1629 631.383 92.8734C672.787 118.253 720.26 135.412 760.593 161.507C819.488 194.751 859.107 257.665 859.107 330.231C859.107 437.113 772.372 523.977 665.649 523.977C665.649 523.977 665.649 523.977 665.292 523.977C656.011 524.692 647.088 524.692 637.808 524.692C610.324 524.692 582.483 522.547 554.999 522.547C545.719 522.547 536.438 522.547 526.801 523.262C389.738 532.199 263.74 633.72 225.191 765.625C204.489 836.76 207.701 912.186 194.138 985.109C181.288 1055.17 151.305 1120.95 109.187 1178.14C22.8088 1301.47 -120.322 1381.9 -282.014 1381.9C-545.789 1381.9 -759.95 1167.77 -759.95 903.249C-759.95 820.317 -738.89 742.389 -702.126 674.47C-691.061 653.023 -678.211 632.29 -663.934 612.986C-574.343 491.805 -423.717 420.67 -273.804 420.67C-232.757 420.67 -192.066 426.032 -152.446 437.113C-79.9884 457.489 -12.5277 494.665 61.3578 508.964C81.7031 512.896 102.048 514.683 122.394 514.683C273.734 514.683 423.29 411.376 468.977 265.53C520.733 100.023 431.856 -97.2986 273.734 -167.719C211.627 -195.244 142.382 -204.896 80.9892 -234.923C-47.8643 -298.195 -120.679 -457.982 -84.2717 -597.036C-80.7023 -610.262 -76.4191 -623.131 -71.0651 -635.643C-26.0912 -753.249 87.771 -836.896 220.908 -836.896M220.908 -872.643C77.4199 -872.643 -53.2183 -782.561 -104.617 -648.154C-110.328 -634.928 -115.325 -620.271 -118.894 -605.615C-159.585 -450.475 -78.5607 -273.172 64.9272 -202.394C100.264 -184.878 137.028 -174.154 172.722 -163.787C203.061 -154.851 231.973 -146.629 258.743 -134.475C400.446 -71.561 480.756 107.172 434.355 255.163C394.378 382.778 259.814 479.294 121.68 479.294C103.476 479.294 84.9155 477.507 67.4257 474.29C28.1628 466.783 -9.31531 452.127 -48.9351 436.398C-79.2745 424.602 -110.685 412.09 -143.523 403.154C-185.641 391.357 -229.544 385.638 -274.518 385.638C-438.351 385.638 -598.972 464.995 -693.203 592.253C-708.551 612.986 -722.471 635.149 -734.25 658.742C-774.584 733.095 -796 817.814 -796 903.606C-796 1187.08 -565.777 1418 -282.371 1418C-115.325 1418 42.0833 1336.14 138.099 1198.87C183.786 1136.67 215.197 1065.18 228.76 991.901C234.471 960.443 237.327 928.272 240.182 897.53C244.109 854.634 247.678 814.24 258.743 775.634C293.009 658.027 406.157 566.873 528.229 558.652C536.795 557.937 545.362 557.937 553.928 557.937C567.135 557.937 580.698 558.294 594.262 559.009C608.539 559.366 622.817 560.082 636.737 560.082C646.374 560.082 656.011 560.082 665.649 559.367C792.004 558.652 894.087 456.059 894.087 329.873C894.087 247.656 849.827 171.158 778.44 130.407C755.596 115.751 731.682 104.312 708.481 92.8734C687.422 82.8643 667.79 73.2127 649.587 61.7738C540.721 -5.07233 482.541 -144.127 511.096 -268.882C517.164 -296.05 527.158 -322.502 537.509 -350.385C549.288 -382.199 561.781 -415.086 568.562 -450.475C588.551 -549.851 562.851 -656.376 500.388 -735.733C485.754 -754.321 468.62 -771.837 450.06 -787.208C387.239 -842.258 305.858 -873 221.622 -873L220.908 -872.643Z" fill="#4EBA64"/>
<path d="M427.93 -758.611L416.714 -745.836L416.902 -745.671L417.094 -745.512L427.93 -758.611ZM472.904 -712.855L459.539 -702.349L459.544 -702.342L459.55 -702.335L472.904 -712.855ZM534.297 -456.909L550.96 -453.543L550.962 -453.554L534.297 -456.909ZM476.83 -276.389L460.271 -280.234L460.264 -280.205L460.257 -280.175L476.83 -276.389ZM631.383 92.8734L622.452 107.338L622.475 107.353L622.499 107.367L631.383 92.8734ZM760.593 161.507L751.359 175.78L751.79 176.059L752.237 176.311L760.593 161.507ZM665.292 523.977V506.977H664.638L663.986 507.028L665.292 523.977ZM526.801 523.262L527.907 540.226L527.983 540.221L528.059 540.216L526.801 523.262ZM225.191 765.625L208.874 760.856L208.871 760.865L208.868 760.874L225.191 765.625ZM194.138 985.109L177.424 982L177.42 982.021L177.417 982.042L194.138 985.109ZM109.187 1178.14L95.4982 1168.06L95.3785 1168.22L95.2628 1168.39L109.187 1178.14ZM-702.126 674.47L-687.176 682.563L-687.096 682.415L-687.018 682.265L-702.126 674.47ZM-663.934 612.986L-650.266 623.096L-650.264 623.093L-663.934 612.986ZM-152.446 437.113L-147.844 420.748L-147.856 420.745L-147.867 420.741L-152.446 437.113ZM61.3578 508.964L58.1278 525.654L58.1319 525.655L61.3578 508.964ZM468.977 265.53L485.2 270.611L485.203 270.603L468.977 265.53ZM273.734 -167.719L280.65 -183.249L280.636 -183.255L280.622 -183.261L273.734 -167.719ZM80.9892 -234.923L73.4962 -219.663L73.5081 -219.658L73.5201 -219.652L80.9892 -234.923ZM-84.2717 -597.036L-100.685 -601.465L-100.701 -601.404L-100.717 -601.342L-84.2717 -597.036ZM-71.0651 -635.643L-55.436 -628.954L-55.3052 -629.26L-55.1865 -629.57L-71.0651 -635.643ZM220.908 -872.643V-855.643H224.926L228.519 -857.442L220.908 -872.643ZM-104.617 -648.154L-89.0098 -641.415L-88.867 -641.745L-88.7384 -642.082L-104.617 -648.154ZM-118.894 -605.615L-102.451 -601.302L-102.413 -601.447L-102.377 -601.593L-118.894 -605.615ZM64.9272 -202.394L72.4772 -217.625L72.4624 -217.632L72.4476 -217.64L64.9272 -202.394ZM172.722 -163.787L177.525 -180.095L177.494 -180.104L177.463 -180.113L172.722 -163.787ZM258.743 -134.475L251.715 -118.996L251.78 -118.966L251.844 -118.938L258.743 -134.475ZM434.355 255.163L418.134 250.077L418.132 250.081L434.355 255.163ZM67.4257 474.29L64.2332 490.987L64.2917 490.998L64.3502 491.009L67.4257 474.29ZM-48.9351 436.398L-42.6625 420.598L-42.7184 420.575L-42.7745 420.554L-48.9351 436.398ZM-143.523 403.154L-148.108 419.524L-148.047 419.541L-147.987 419.557L-143.523 403.154ZM-693.203 592.253L-706.865 582.137L-706.866 582.139L-693.203 592.253ZM-734.25 658.742L-719.307 666.848L-719.17 666.594L-719.04 666.336L-734.25 658.742ZM138.099 1198.87L124.398 1188.81L124.281 1188.97L124.168 1189.13L138.099 1198.87ZM228.76 991.901L245.476 994.995L245.482 994.966L245.487 994.937L228.76 991.901ZM240.182 897.53L257.109 899.102L257.11 899.09L257.111 899.079L240.182 897.53ZM258.743 775.634L242.422 770.878L242.411 770.914L242.401 770.95L258.743 775.634ZM528.229 558.652L529.371 575.613L529.507 575.604L529.643 575.593L528.229 558.652ZM594.262 559.009L593.367 575.985L593.601 575.998L593.836 576.004L594.262 559.009ZM665.649 559.367L665.552 542.367L664.971 542.37L664.391 542.413L665.649 559.367ZM778.44 130.407L769.26 144.716L769.63 144.953L770.012 145.171L778.44 130.407ZM708.481 92.8734L715.999 77.6259L715.889 77.5718L715.778 77.5193L708.481 92.8734ZM649.587 61.7738L658.632 47.3798L658.557 47.3329L658.482 47.2869L649.587 61.7738ZM511.096 -268.882L527.667 -265.089L527.677 -265.133L527.687 -265.177L511.096 -268.882ZM537.509 -350.385L553.446 -344.468L553.449 -344.475L553.452 -344.482L537.509 -350.385ZM568.562 -450.475L551.896 -453.827L551.881 -453.751L551.866 -453.675L568.562 -450.475ZM500.388 -735.733L513.746 -746.248L513.745 -746.249L500.388 -735.733ZM450.06 -787.208L438.856 -774.423L439.034 -774.266L439.217 -774.115L450.06 -787.208ZM221.622 -873V-890H217.603L214.01 -888.201L221.622 -873ZM1072.55 -560.018C1230.9 -560.018 1359.31 -431.459 1359.31 -272.814H1393.31C1393.31 -450.189 1249.73 -594.018 1072.55 -594.018V-560.018ZM1359.31 -272.814C1359.31 -114.17 1230.9 14.3892 1072.55 14.3892V48.3892C1249.73 48.3892 1393.31 -95.4404 1393.31 -272.814H1359.31ZM1072.55 14.3892C914.208 14.3892 785.803 -114.17 785.803 -272.814H751.803C751.803 -95.4404 895.383 48.3892 1072.55 48.3892V14.3892ZM785.803 -272.814C785.803 -431.459 914.208 -560.018 1072.55 -560.018V-594.018C895.383 -594.018 751.803 -450.189 751.803 -272.814H785.803ZM1072.55 -629.765C875.74 -629.765 716.11 -469.48 716.11 -272.814H750.11C750.11 -450.773 894.588 -595.765 1072.55 -595.765V-629.765ZM716.11 -272.814C716.11 -76.1373 876.108 84.1357 1072.55 84.1357V50.1357C894.934 50.1357 750.11 -94.8672 750.11 -272.814H716.11ZM1072.55 84.1357C1269 84.1357 1429 -76.1373 1429 -272.814H1395C1395 -94.8672 1250.18 50.1357 1072.55 50.1357V84.1357ZM1429 -272.814C1429 -469.492 1269 -629.765 1072.55 -629.765V-595.765C1250.18 -595.765 1395 -450.762 1395 -272.814H1429ZM221.979 -819.181C296.572 -819.181 364.724 -791.479 416.714 -745.836L439.146 -771.386C381.2 -822.258 305.15 -853.181 221.979 -853.181V-819.181ZM417.094 -745.512C432.686 -732.613 447.161 -718.096 459.539 -702.349L486.269 -723.361C472.234 -741.216 456.012 -757.441 438.767 -771.709L417.094 -745.512ZM459.55 -702.335C512.527 -635.086 534.487 -543.993 517.631 -460.264L550.962 -453.554C569.8 -547.129 545.358 -648.353 486.258 -723.375L459.55 -702.335ZM517.633 -460.276C511.685 -430.833 501.352 -402.244 490.293 -372.427C479.381 -343.002 467.703 -312.243 460.271 -280.234L493.389 -272.544C500.234 -302.019 511.044 -330.599 522.172 -360.604C533.154 -390.216 544.415 -421.145 550.96 -453.543L517.633 -460.276ZM460.257 -280.175C426.868 -134.022 495.267 28.8095 622.452 107.338L640.314 78.4084C525.497 7.51636 463.258 -140.647 493.403 -272.603L460.257 -280.175ZM622.499 107.367C644.057 120.582 667.101 131.598 688.964 142.214C711.134 152.98 732.187 163.376 751.359 175.78L769.828 147.234C748.666 133.542 725.816 122.312 703.815 111.629C681.508 100.798 660.114 90.5449 640.267 78.3796L622.499 107.367ZM752.237 176.311C806.004 206.661 842.107 264.039 842.107 330.231H876.107C876.107 251.291 832.971 182.841 768.95 146.703L752.237 176.311ZM842.107 330.231C842.107 427.748 762.96 506.977 665.649 506.977V540.977C781.785 540.977 876.107 446.478 876.107 330.231H842.107ZM665.649 523.977C665.649 506.977 665.649 506.977 665.649 506.977C665.649 506.977 665.649 506.977 665.649 506.977C665.648 506.977 665.648 506.977 665.648 506.977C665.648 506.977 665.648 506.977 665.648 506.977C665.648 506.977 665.648 506.977 665.648 506.977C665.648 506.977 665.648 506.977 665.648 506.977C665.648 506.977 665.648 506.977 665.648 506.977C665.648 506.977 665.648 506.977 665.648 506.977C665.648 506.977 665.648 506.977 665.648 506.977C665.648 506.977 665.648 506.977 665.648 506.977H665.647C665.647 506.977 665.647 506.977 665.647 506.977H665.647H665.647C665.647 506.977 665.647 506.977 665.647 506.977C665.647 506.977 665.647 506.977 665.647 506.977C665.647 506.977 665.647 506.977 665.647 506.977H665.647H665.646C665.646 506.977 665.646 506.977 665.646 506.977C665.646 506.977 665.646 506.977 665.646 506.977H665.646C665.646 506.977 665.646 506.977 665.646 506.977H665.646C665.646 506.977 665.646 506.977 665.646 506.977C665.646 506.977 665.646 506.977 665.646 506.977C665.646 506.977 665.646 506.977 665.646 506.977C665.645 506.977 665.645 506.977 665.645 506.977H665.645H665.645C665.645 506.977 665.645 506.977 665.645 506.977C665.645 506.977 665.645 506.977 665.645 506.977C665.645 506.977 665.645 506.977 665.645 506.977H665.645H665.645C665.645 506.977 665.645 506.977 665.644 506.977C665.644 506.977 665.644 506.977 665.644 506.977C665.644 506.977 665.644 506.977 665.644 506.977C665.644 506.977 665.644 506.977 665.644 506.977C665.644 506.977 665.644 506.977 665.644 506.977C665.644 506.977 665.644 506.977 665.644 506.977C665.644 506.977 665.644 506.977 665.644 506.977C665.644 506.977 665.644 506.977 665.644 506.977C665.643 506.977 665.643 506.977 665.643 506.977C665.643 506.977 665.643 506.977 665.643 506.977C665.643 506.977 665.643 506.977 665.643 506.977C665.643 506.977 665.643 506.977 665.643 506.977C665.643 506.977 665.643 506.977 665.643 506.977C665.643 506.977 665.643 506.977 665.643 506.977H665.643H665.642H665.642C665.642 506.977 665.642 506.977 665.642 506.977C665.642 506.977 665.642 506.977 665.642 506.977C665.642 506.977 665.642 506.977 665.642 506.977H665.642H665.642C665.641 506.977 665.641 506.977 665.641 506.977C665.641 506.977 665.641 506.977 665.641 506.977H665.641C665.641 506.977 665.641 506.977 665.641 506.977C665.641 506.977 665.641 506.977 665.641 506.977H665.641C665.641 506.977 665.641 506.977 665.64 506.977H665.64C665.64 506.977 665.64 506.977 665.64 506.977C665.64 506.977 665.64 506.977 665.64 506.977H665.64C665.64 506.977 665.64 506.977 665.64 506.977H665.639C665.639 506.977 665.639 506.977 665.639 506.977H665.639C665.639 506.977 665.639 506.977 665.639 506.977C665.639 506.977 665.639 506.977 665.639 506.977H665.638C665.638 506.977 665.638 506.977 665.638 506.977H665.638C665.638 506.977 665.638 506.977 665.638 506.977C665.638 506.977 665.638 506.977 665.638 506.977H665.637C665.637 506.977 665.637 506.977 665.637 506.977C665.637 506.977 665.637 506.977 665.637 506.977C665.637 506.977 665.637 506.977 665.637 506.977C665.637 506.977 665.637 506.977 665.636 506.977H665.636C665.636 506.977 665.636 506.977 665.636 506.977C665.636 506.977 665.636 506.977 665.636 506.977C665.636 506.977 665.636 506.977 665.636 506.977C665.635 506.977 665.635 506.977 665.635 506.977C665.635 506.977 665.635 506.977 665.635 506.977C665.635 506.977 665.635 506.977 665.635 506.977C665.635 506.977 665.635 506.977 665.635 506.977C665.635 506.977 665.635 506.977 665.634 506.977C665.634 506.977 665.634 506.977 665.634 506.977C665.634 506.977 665.634 506.977 665.634 506.977C665.634 506.977 665.634 506.977 665.634 506.977C665.634 506.977 665.634 506.977 665.633 506.977C665.633 506.977 665.633 506.977 665.633 506.977C665.633 506.977 665.633 506.977 665.633 506.977C665.633 506.977 665.633 506.977 665.633 506.977C665.633 506.977 665.632 506.977 665.632 506.977C665.632 506.977 665.632 506.977 665.632 506.977C665.632 506.977 665.632 506.977 665.632 506.977C665.632 506.977 665.632 506.977 665.632 506.977C665.631 506.977 665.631 506.977 665.631 506.977C665.631 506.977 665.631 506.977 665.631 506.977C665.631 506.977 665.631 506.977 665.631 506.977C665.631 506.977 665.63 506.977 665.63 506.977C665.63 506.977 665.63 506.977 665.63 506.977C665.63 506.977 665.63 506.977 665.63 506.977C665.63 506.977 665.63 506.977 665.63 506.977C665.63 506.977 665.629 506.977 665.629 506.977C665.629 506.977 665.629 506.977 665.629 506.977C665.629 506.977 665.629 506.977 665.629 506.977C665.629 506.977 665.628 506.977 665.628 506.977C665.628 506.977 665.628 506.977 665.628 506.977C665.628 506.977 665.628 506.977 665.628 506.977C665.628 506.977 665.628 506.977 665.627 506.977C665.627 506.977 665.627 506.977 665.627 506.977C665.627 506.977 665.627 506.977 665.627 506.977C665.627 506.977 665.627 506.977 665.626 506.977C665.626 506.977 665.626 506.977 665.626 506.977C665.626 506.977 665.626 506.977 665.626 506.977C665.626 506.977 665.626 506.977 665.625 506.977C665.625 506.977 665.625 506.977 665.625 506.977C665.625 506.977 665.625 506.977 665.625 506.977C665.625 506.977 665.625 506.977 665.624 506.977C665.624 506.977 665.624 506.977 665.624 506.977C665.624 506.977 665.624 506.977 665.624 506.977C665.624 506.977 665.623 506.977 665.623 506.977C665.623 506.977 665.623 506.977 665.623 506.977C665.623 506.977 665.623 506.977 665.623 506.977C665.623 506.977 665.622 506.977 665.622 506.977C665.622 506.977 665.622 506.977 665.622 506.977C665.622 506.977 665.622 506.977 665.621 506.977C665.621 506.977 665.621 506.977 665.621 506.977C665.621 506.977 665.621 506.977 665.621 506.977C665.621 506.977 665.62 506.977 665.62 506.977C665.62 506.977 665.62 506.977 665.62 506.977C665.62 506.977 665.62 506.977 665.62 506.977C665.62 506.977 665.619 506.977 665.619 506.977C665.619 506.977 665.619 506.977 665.619 506.977C665.619 506.977 665.619 506.977 665.618 506.977C665.618 506.977 665.618 506.977 665.618 506.977C665.618 506.977 665.618 506.977 665.618 506.977C665.617 506.977 665.617 506.977 665.617 506.977C665.617 506.977 665.617 506.977 665.617 506.977C665.617 506.977 665.616 506.977 665.616 506.977C665.616 506.977 665.616 506.977 665.616 506.977C665.616 506.977 665.616 506.977 665.615 506.977C665.615 506.977 665.615 506.977 665.615 506.977C665.615 506.977 665.615 506.977 665.615 506.977C665.615 506.977 665.614 506.977 665.614 506.977C665.614 506.977 665.614 506.977 665.614 506.977C665.614 506.977 665.613 506.977 665.613 506.977C665.613 506.977 665.613 506.977 665.613 506.977C665.613 506.977 665.613 506.977 665.612 506.977C665.612 506.977 665.612 506.977 665.612 506.977C665.612 506.977 665.612 506.977 665.611 506.977C665.611 506.977 665.611 506.977 665.611 506.977C665.611 506.977 665.611 506.977 665.61 506.977C665.61 506.977 665.61 506.977 665.61 506.977C665.61 506.977 665.61 506.977 665.61 506.977C665.609 506.977 665.609 506.977 665.609 506.977C665.609 506.977 665.609 506.977 665.609 506.977C665.608 506.977 665.608 506.977 665.608 506.977C665.608 506.977 665.608 506.977 665.608 506.977C665.607 506.977 665.607 506.977 665.607 506.977C665.607 506.977 665.607 506.977 665.607 506.977C665.606 506.977 665.606 506.977 665.606 506.977C665.606 506.977 665.606 506.977 665.606 506.977C665.605 506.977 665.605 506.977 665.605 506.977C665.605 506.977 665.605 506.977 665.605 506.977C665.604 506.977 665.604 506.977 665.604 506.977C665.604 506.977 665.604 506.977 665.604 506.977C665.603 506.977 665.603 506.977 665.603 506.977C665.603 506.977 665.603 506.977 665.603 506.977C665.602 506.977 665.602 506.977 665.602 506.977C665.602 506.977 665.602 506.977 665.601 506.977C665.601 506.977 665.601 506.977 665.601 506.977C665.601 506.977 665.6 506.977 665.6 506.977C665.6 506.977 665.6 506.977 665.6 506.977C665.6 506.977 665.599 506.977 665.599 506.977C665.599 506.977 665.599 506.977 665.599 506.977C665.598 506.977 665.598 506.977 665.598 506.977C665.598 506.977 665.598 506.977 665.598 506.977C665.597 506.977 665.597 506.977 665.597 506.977C665.597 506.977 665.597 506.977 665.596 506.977C665.596 506.977 665.596 506.977 665.596 506.977C665.596 506.977 665.595 506.977 665.595 506.977C665.595 506.977 665.595 506.977 665.595 506.977C665.594 506.977 665.594 506.977 665.594 506.977C665.594 506.977 665.594 506.977 665.593 506.977C665.593 506.977 665.593 506.977 665.593 506.977C665.593 506.977 665.592 506.977 665.592 506.977C665.592 506.977 665.592 506.977 665.592 506.977C665.591 506.977 665.591 506.977 665.591 506.977C665.591 506.977 665.59 506.977 665.59 506.977C665.59 506.977 665.59 506.977 665.59 506.977C665.589 506.977 665.589 506.977 665.589 506.977C665.589 506.977 665.589 506.977 665.588 506.977C665.588 506.977 665.588 506.977 665.588 506.977C665.588 506.977 665.587 506.977 665.587 506.977C665.587 506.977 665.587 506.977 665.586 506.977C665.586 506.977 665.586 506.977 665.586 506.977C665.586 506.977 665.585 506.977 665.585 506.977C665.585 506.977 665.585 506.977 665.584 506.977C665.584 506.977 665.584 506.977 665.584 506.977C665.584 506.977 665.583 506.977 665.583 506.977C665.583 506.977 665.583 506.977 665.583 506.977C665.582 506.977 665.582 506.977 665.582 506.977C665.582 506.977 665.581 506.977 665.581 506.977C665.581 506.977 665.581 506.977 665.58 506.977C665.58 506.977 665.58 506.977 665.58 506.977C665.579 506.977 665.579 506.977 665.579 506.977C665.579 506.977 665.578 506.977 665.578 506.977C665.578 506.977 665.578 506.977 665.578 506.977C665.577 506.977 665.577 506.977 665.577 506.977C665.577 506.977 665.576 506.977 665.576 506.977C665.576 506.977 665.576 506.977 665.575 506.977C665.575 506.977 665.575 506.977 665.575 506.977C665.574 506.977 665.574 506.977 665.574 506.977C665.574 506.977 665.573 506.977 665.573 506.977C665.573 506.977 665.573 506.977 665.573 506.977C665.572 506.977 665.572 506.977 665.572 506.977C665.572 506.977 665.571 506.977 665.571 506.977C665.571 506.977 665.57 506.977 665.57 506.977C665.57 506.977 665.57 506.977 665.569 506.977C665.569 506.977 665.569 506.977 665.569 506.977C665.568 506.977 665.568 506.977 665.568 506.977C665.568 506.977 665.567 506.977 665.567 506.977C665.567 506.977 665.567 506.977 665.566 506.977C665.566 506.977 665.566 506.977 665.566 506.977C665.565 506.977 665.565 506.977 665.565 506.977C665.564 506.977 665.564 506.977 665.564 506.977C665.564 506.977 665.563 506.977 665.563 506.977C665.563 506.977 665.563 506.977 665.562 506.977C665.562 506.977 665.562 506.977 665.562 506.977C665.561 506.977 665.561 506.977 665.561 506.977C665.56 506.977 665.56 506.977 665.56 506.977C665.56 506.977 665.559 506.977 665.559 506.977C665.559 506.977 665.558 506.977 665.558 506.977C665.558 506.977 665.558 506.977 665.557 506.977C665.557 506.977 665.557 506.977 665.557 506.977C665.556 506.977 665.556 506.977 665.556 506.977C665.555 506.977 665.555 506.977 665.555 506.977C665.555 506.977 665.554 506.977 665.554 506.977C665.554 506.977 665.553 506.977 665.553 506.977C665.553 506.977 665.552 506.977 665.552 506.977C665.552 506.977 665.552 506.977 665.551 506.977C665.551 506.977 665.551 506.977 665.55 506.977C665.55 506.977 665.55 506.977 665.55 506.977C665.549 506.977 665.549 506.977 665.549 506.977C665.548 506.977 665.548 506.977 665.548 506.977C665.547 506.977 665.547 506.977 665.547 506.977C665.547 506.977 665.546 506.977 665.546 506.977C665.546 506.977 665.545 506.977 665.545 506.977C665.545 506.977 665.544 506.977 665.544 506.977C665.544 506.977 665.544 506.977 665.543 506.977C665.543 506.977 665.543 506.977 665.542 506.977C665.542 506.977 665.542 506.977 665.541 506.977C665.541 506.977 665.541 506.977 665.54 506.977C665.54 506.977 665.54 506.977 665.539 506.977C665.539 506.977 665.539 506.977 665.538 506.977C665.538 506.977 665.538 506.977 665.538 506.977C665.537 506.977 665.537 506.977 665.537 506.977C665.536 506.977 665.536 506.977 665.536 506.977C665.535 506.977 665.535 506.977 665.535 506.977C665.534 506.977 665.534 506.977 665.534 506.977C665.533 506.977 665.533 506.977 665.533 506.977C665.532 506.977 665.532 506.977 665.532 506.977C665.531 506.977 665.531 506.977 665.531 506.977C665.53 506.977 665.53 506.977 665.53 506.977C665.529 506.977 665.529 506.977 665.529 506.977C665.528 506.977 665.528 506.977 665.528 506.977C665.527 506.977 665.527 506.977 665.527 506.977C665.526 506.977 665.526 506.977 665.526 506.977C665.525 506.977 665.525 506.977 665.525 506.977C665.524 506.977 665.524 506.977 665.524 506.977C665.523 506.977 665.523 506.977 665.522 506.977C665.522 506.977 665.522 506.977 665.521 506.977C665.521 506.977 665.521 506.977 665.52 506.977C665.52 506.977 665.52 506.977 665.519 506.977C665.519 506.977 665.519 506.977 665.518 506.977C665.518 506.977 665.518 506.977 665.517 506.977C665.517 506.977 665.516 506.977 665.516 506.977C665.516 506.977 665.515 506.977 665.515 506.977C665.515 506.977 665.514 506.977 665.514 506.977C665.514 506.977 665.513 506.977 665.513 506.977C665.512 506.977 665.512 506.977 665.512 506.977C665.511 506.977 665.511 506.977 665.511 506.977C665.51 506.977 665.51 506.977 665.51 506.977C665.509 506.977 665.509 506.977 665.508 506.977C665.508 506.977 665.508 506.977 665.507 506.977C665.507 506.977 665.507 506.977 665.506 506.977C665.506 506.977 665.505 506.977 665.505 506.977C665.505 506.977 665.504 506.977 665.504 506.977C665.504 506.977 665.503 506.977 665.503 506.977C665.502 506.977 665.502 506.977 665.502 506.977C665.501 506.977 665.501 506.977 665.5 506.977C665.5 506.977 665.5 506.977 665.499 506.977C665.499 506.977 665.498 506.977 665.498 506.977C665.498 506.977 665.497 506.977 665.497 506.977C665.496 506.977 665.496 506.977 665.496 506.977C665.495 506.977 665.495 506.977 665.495 506.977C665.494 506.977 665.494 506.977 665.493 506.977C665.493 506.977 665.493 506.977 665.492 506.977C665.492 506.977 665.491 506.977 665.491 506.977C665.49 506.977 665.49 506.977 665.49 506.977C665.489 506.977 665.489 506.977 665.489 506.977C665.488 506.977 665.488 506.977 665.487 506.977C665.487 506.977 665.486 506.977 665.486 506.977C665.486 506.977 665.485 506.977 665.485 506.977C665.484 506.977 665.484 506.977 665.484 506.977C665.483 506.977 665.483 506.977 665.482 506.977C665.482 506.977 665.481 506.977 665.481 506.977C665.481 506.977 665.48 506.977 665.48 506.977C665.479 506.977 665.479 506.977 665.479 506.977C665.478 506.977 665.478 506.977 665.477 506.977C665.477 506.977 665.476 506.977 665.476 506.977C665.475 506.977 665.475 506.977 665.475 506.977C665.474 506.977 665.474 506.977 665.473 506.977C665.473 506.977 665.472 506.977 665.472 506.977C665.472 506.977 665.471 506.977 665.471 506.977C665.47 506.977 665.47 506.977 665.469 506.977C665.469 506.977 665.469 506.977 665.468 506.977C665.468 506.977 665.467 506.977 665.467 506.977C665.466 506.977 665.466 506.977 665.465 506.977C665.465 506.977 665.464 506.977 665.464 506.977C665.464 506.977 665.463 506.977 665.463 506.977C665.462 506.977 665.462 506.977 665.461 506.977C665.461 506.977 665.46 506.977 665.46 506.977C665.459 506.977 665.459 506.977 665.459 506.977C665.458 506.977 665.458 506.977 665.457 506.977C665.457 506.977 665.456 506.977 665.456 506.977C665.455 506.977 665.455 506.977 665.454 506.977C665.454 506.977 665.453 506.977 665.453 506.977C665.453 506.977 665.452 506.977 665.452 506.977C665.451 506.977 665.451 506.977 665.45 506.977C665.45 506.977 665.449 506.977 665.449 506.977C665.448 506.977 665.448 506.977 665.447 506.977C665.447 506.977 665.446 506.977 665.446 506.977C665.445 506.977 665.445 506.977 665.444 506.977C665.444 506.977 665.444 506.977 665.443 506.977C665.443 506.977 665.442 506.977 665.442 506.977C665.441 506.977 665.441 506.977 665.44 506.977C665.44 506.977 665.439 506.977 665.439 506.977C665.438 506.977 665.438 506.977 665.437 506.977C665.437 506.977 665.436 506.977 665.436 506.977C665.435 506.977 665.435 506.977 665.434 506.977C665.434 506.977 665.433 506.977 665.433 506.977C665.432 506.977 665.432 506.977 665.431 506.977C665.431 506.977 665.43 506.977 665.43 506.977C665.429 506.977 665.429 506.977 665.428 506.977C665.428 506.977 665.427 506.977 665.427 506.977C665.426 506.977 665.426 506.977 665.425 506.977C665.425 506.977 665.424 506.977 665.424 506.977C665.423 506.977 665.423 506.977 665.422 506.977C665.422 506.977 665.421 506.977 665.421 506.977C665.42 506.977 665.42 506.977 665.419 506.977C665.418 506.977 665.418 506.977 665.417 506.977C665.417 506.977 665.416 506.977 665.416 506.977C665.415 506.977 665.415 506.977 665.414 506.977C665.414 506.977 665.413 506.977 665.413 506.977C665.412 506.977 665.412 506.977 665.411 506.977C665.411 506.977 665.41 506.977 665.41 506.977C665.409 506.977 665.408 506.977 665.408 506.977C665.407 506.977 665.407 506.977 665.406 506.977C665.406 506.977 665.405 506.977 665.405 506.977C665.404 506.977 665.404 506.977 665.403 506.977C665.403 506.977 665.402 506.977 665.401 506.977C665.401 506.977 665.4 506.977 665.4 506.977C665.399 506.977 665.399 506.977 665.398 506.977C665.398 506.977 665.397 506.977 665.396 506.977C665.396 506.977 665.395 506.977 665.395 506.977C665.394 506.977 665.394 506.977 665.393 506.977C665.393 506.977 665.392 506.977 665.391 506.977C665.391 506.977 665.39 506.977 665.39 506.977C665.389 506.977 665.389 506.977 665.388 506.977C665.388 506.977 665.387 506.977 665.386 506.977C665.386 506.977 665.385 506.977 665.385 506.977C665.384 506.977 665.384 506.977 665.383 506.977C665.382 506.977 665.382 506.977 665.381 506.977C665.381 506.977 665.38 506.977 665.38 506.977C665.379 506.977 665.378 506.977 665.378 506.977C665.377 506.977 665.377 506.977 665.376 506.977C665.375 506.977 665.375 506.977 665.374 506.977C665.374 506.977 665.373 506.977 665.373 506.977C665.372 506.977 665.371 506.977 665.371 506.977C665.37 506.977 665.37 506.977 665.369 506.977C665.368 506.977 665.368 506.977 665.367 506.977C665.367 506.977 665.366 506.977 665.365 506.977C665.365 506.977 665.364 506.977 665.364 506.977C665.363 506.977 665.362 506.977 665.362 506.977C665.361 506.977 665.361 506.977 665.36 506.977C665.359 506.977 665.359 506.977 665.358 506.977C665.358 506.977 665.357 506.977 665.356 506.977C665.356 506.977 665.355 506.977 665.354 506.977C665.354 506.977 665.353 506.977 665.353 506.977C665.352 506.977 665.351 506.977 665.351 506.977C665.35 506.977 665.35 506.977 665.349 506.977C665.348 506.977 665.348 506.977 665.347 506.977C665.347 506.977 665.346 506.977 665.345 506.977C665.345 506.977 665.344 506.977 665.343 506.977C665.343 506.977 665.342 506.977 665.341 506.977C665.341 506.977 665.34 506.977 665.34 506.977C665.339 506.977 665.338 506.977 665.338 506.977C665.337 506.977 665.336 506.977 665.336 506.977C665.335 506.977 665.334 506.977 665.334 506.977C665.333 506.977 665.333 506.977 665.332 506.977C665.331 506.977 665.331 506.977 665.33 506.977C665.329 506.977 665.329 506.977 665.328 506.977C665.327 506.977 665.327 506.977 665.326 506.977C665.325 506.977 665.325 506.977 665.324 506.977C665.323 506.977 665.323 506.977 665.322 506.977C665.322 506.977 665.321 506.977 665.32 506.977C665.32 506.977 665.319 506.977 665.318 506.977C665.318 506.977 665.317 506.977 665.316 506.977C665.316 506.977 665.315 506.977 665.314 506.977C665.314 506.977 665.313 506.977 665.312 506.977C665.312 506.977 665.311 506.977 665.31 506.977C665.31 506.977 665.309 506.977 665.308 506.977C665.307 506.977 665.307 506.977 665.306 506.977C665.305 506.977 665.305 506.977 665.304 506.977C665.303 506.977 665.303 506.977 665.302 506.977C665.301 506.977 665.301 506.977 665.3 506.977C665.299 506.977 665.299 506.977 665.298 506.977C665.297 506.977 665.297 506.977 665.296 506.977C665.295 506.977 665.295 506.977 665.294 506.977C665.293 506.977 665.292 506.977 665.292 506.977V540.977C665.292 540.977 665.293 540.977 665.294 540.977C665.295 540.977 665.295 540.977 665.296 540.977C665.297 540.977 665.297 540.977 665.298 540.977C665.299 540.977 665.299 540.977 665.3 540.977C665.301 540.977 665.301 540.977 665.302 540.977C665.303 540.977 665.303 540.977 665.304 540.977C665.305 540.977 665.305 540.977 665.306 540.977C665.307 540.977 665.307 540.977 665.308 540.977C665.309 540.977 665.31 540.977 665.31 540.977C665.311 540.977 665.312 540.977 665.312 540.977C665.313 540.977 665.314 540.977 665.314 540.977C665.315 540.977 665.316 540.977 665.316 540.977C665.317 540.977 665.318 540.977 665.318 540.977C665.319 540.977 665.32 540.977 665.32 540.977C665.321 540.977 665.322 540.977 665.322 540.977C665.323 540.977 665.323 540.977 665.324 540.977C665.325 540.977 665.325 540.977 665.326 540.977C665.327 540.977 665.327 540.977 665.328 540.977C665.329 540.977 665.329 540.977 665.33 540.977C665.331 540.977 665.331 540.977 665.332 540.977C665.333 540.977 665.333 540.977 665.334 540.977C665.334 540.977 665.335 540.977 665.336 540.977C665.336 540.977 665.337 540.977 665.338 540.977C665.338 540.977 665.339 540.977 665.34 540.977C665.34 540.977 665.341 540.977 665.341 540.977C665.342 540.977 665.343 540.977 665.343 540.977C665.344 540.977 665.345 540.977 665.345 540.977C665.346 540.977 665.347 540.977 665.347 540.977C665.348 540.977 665.348 540.977 665.349 540.977C665.35 540.977 665.35 540.977 665.351 540.977C665.351 540.977 665.352 540.977 665.353 540.977C665.353 540.977 665.354 540.977 665.354 540.977C665.355 540.977 665.356 540.977 665.356 540.977C665.357 540.977 665.358 540.977 665.358 540.977C665.359 540.977 665.359 540.977 665.36 540.977C665.361 540.977 665.361 540.977 665.362 540.977C665.362 540.977 665.363 540.977 665.364 540.977C665.364 540.977 665.365 540.977 665.365 540.977C665.366 540.977 665.367 540.977 665.367 540.977C665.368 540.977 665.368 540.977 665.369 540.977C665.37 540.977 665.37 540.977 665.371 540.977C665.371 540.977 665.372 540.977 665.373 540.977C665.373 540.977 665.374 540.977 665.374 540.977C665.375 540.977 665.375 540.977 665.376 540.977C665.377 540.977 665.377 540.977 665.378 540.977C665.378 540.977 665.379 540.977 665.38 540.977C665.38 540.977 665.381 540.977 665.381 540.977C665.382 540.977 665.382 540.977 665.383 540.977C665.384 540.977 665.384 540.977 665.385 540.977C665.385 540.977 665.386 540.977 665.386 540.977C665.387 540.977 665.388 540.977 665.388 540.977C665.389 540.977 665.389 540.977 665.39 540.977C665.39 540.977 665.391 540.977 665.391 540.977C665.392 540.977 665.393 540.977 665.393 540.977C665.394 540.977 665.394 540.977 665.395 540.977C665.395 540.977 665.396 540.977 665.396 540.977C665.397 540.977 665.398 540.977 665.398 540.977C665.399 540.977 665.399 540.977 665.4 540.977C665.4 540.977 665.401 540.977 665.401 540.977C665.402 540.977 665.403 540.977 665.403 540.977C665.404 540.977 665.404 540.977 665.405 540.977C665.405 540.977 665.406 540.977 665.406 540.977C665.407 540.977 665.407 540.977 665.408 540.977C665.408 540.977 665.409 540.977 665.41 540.977C665.41 540.977 665.411 540.977 665.411 540.977C665.412 540.977 665.412 540.977 665.413 540.977C665.413 540.977 665.414 540.977 665.414 540.977C665.415 540.977 665.415 540.977 665.416 540.977C665.416 540.977 665.417 540.977 665.417 540.977C665.418 540.977 665.418 540.977 665.419 540.977C665.42 540.977 665.42 540.977 665.421 540.977C665.421 540.977 665.422 540.977 665.422 540.977C665.423 540.977 665.423 540.977 665.424 540.977C665.424 540.977 665.425 540.977 665.425 540.977C665.426 540.977 665.426 540.977 665.427 540.977C665.427 540.977 665.428 540.977 665.428 540.977C665.429 540.977 665.429 540.977 665.43 540.977C665.43 540.977 665.431 540.977 665.431 540.977C665.432 540.977 665.432 540.977 665.433 540.977C665.433 540.977 665.434 540.977 665.434 540.977C665.435 540.977 665.435 540.977 665.436 540.977C665.436 540.977 665.437 540.977 665.437 540.977C665.438 540.977 665.438 540.977 665.439 540.977C665.439 540.977 665.44 540.977 665.44 540.977C665.441 540.977 665.441 540.977 665.442 540.977C665.442 540.977 665.443 540.977 665.443 540.977C665.444 540.977 665.444 540.977 665.444 540.977C665.445 540.977 665.445 540.977 665.446 540.977C665.446 540.977 665.447 540.977 665.447 540.977C665.448 540.977 665.448 540.977 665.449 540.977C665.449 540.977 665.45 540.977 665.45 540.977C665.451 540.977 665.451 540.977 665.452 540.977C665.452 540.977 665.453 540.977 665.453 540.977C665.453 540.977 665.454 540.977 665.454 540.977C665.455 540.977 665.455 540.977 665.456 540.977C665.456 540.977 665.457 540.977 665.457 540.977C665.458 540.977 665.458 540.977 665.459 540.977C665.459 540.977 665.459 540.977 665.46 540.977C665.46 540.977 665.461 540.977 665.461 540.977C665.462 540.977 665.462 540.977 665.463 540.977C665.463 540.977 665.464 540.977 665.464 540.977C665.464 540.977 665.465 540.977 665.465 540.977C665.466 540.977 665.466 540.977 665.467 540.977C665.467 540.977 665.468 540.977 665.468 540.977C665.469 540.977 665.469 540.977 665.469 540.977C665.47 540.977 665.47 540.977 665.471 540.977C665.471 540.977 665.472 540.977 665.472 540.977C665.472 540.977 665.473 540.977 665.473 540.977C665.474 540.977 665.474 540.977 665.475 540.977C665.475 540.977 665.475 540.977 665.476 540.977C665.476 540.977 665.477 540.977 665.477 540.977C665.478 540.977 665.478 540.977 665.479 540.977C665.479 540.977 665.479 540.977 665.48 540.977C665.48 540.977 665.481 540.977 665.481 540.977C665.481 540.977 665.482 540.977 665.482 540.977C665.483 540.977 665.483 540.977 665.484 540.977C665.484 540.977 665.484 540.977 665.485 540.977C665.485 540.977 665.486 540.977 665.486 540.977C665.486 540.977 665.487 540.977 665.487 540.977C665.488 540.977 665.488 540.977 665.489 540.977C665.489 540.977 665.489 540.977 665.49 540.977C665.49 540.977 665.49 540.977 665.491 540.977C665.491 540.977 665.492 540.977 665.492 540.977C665.493 540.977 665.493 540.977 665.493 540.977C665.494 540.977 665.494 540.977 665.495 540.977C665.495 540.977 665.495 540.977 665.496 540.977C665.496 540.977 665.496 540.977 665.497 540.977C665.497 540.977 665.498 540.977 665.498 540.977C665.498 540.977 665.499 540.977 665.499 540.977C665.5 540.977 665.5 540.977 665.5 540.977C665.501 540.977 665.501 540.977 665.502 540.977C665.502 540.977 665.502 540.977 665.503 540.977C665.503 540.977 665.504 540.977 665.504 540.977C665.504 540.977 665.505 540.977 665.505 540.977C665.505 540.977 665.506 540.977 665.506 540.977C665.507 540.977 665.507 540.977 665.507 540.977C665.508 540.977 665.508 540.977 665.508 540.977C665.509 540.977 665.509 540.977 665.51 540.977C665.51 540.977 665.51 540.977 665.511 540.977C665.511 540.977 665.511 540.977 665.512 540.977C665.512 540.977 665.512 540.977 665.513 540.977C665.513 540.977 665.514 540.977 665.514 540.977C665.514 540.977 665.515 540.977 665.515 540.977C665.515 540.977 665.516 540.977 665.516 540.977C665.516 540.977 665.517 540.977 665.517 540.977C665.518 540.977 665.518 540.977 665.518 540.977C665.519 540.977 665.519 540.977 665.519 540.977C665.52 540.977 665.52 540.977 665.52 540.977C665.521 540.977 665.521 540.977 665.521 540.977C665.522 540.977 665.522 540.977 665.522 540.977C665.523 540.977 665.523 540.977 665.524 540.977C665.524 540.977 665.524 540.977 665.525 540.977C665.525 540.977 665.525 540.977 665.526 540.977C665.526 540.977 665.526 540.977 665.527 540.977C665.527 540.977 665.527 540.977 665.528 540.977C665.528 540.977 665.528 540.977 665.529 540.977C665.529 540.977 665.529 540.977 665.53 540.977C665.53 540.977 665.53 540.977 665.531 540.977C665.531 540.977 665.531 540.977 665.532 540.977C665.532 540.977 665.532 540.977 665.533 540.977C665.533 540.977 665.533 540.977 665.534 540.977C665.534 540.977 665.534 540.977 665.535 540.977C665.535 540.977 665.535 540.977 665.536 540.977C665.536 540.977 665.536 540.977 665.537 540.977C665.537 540.977 665.537 540.977 665.538 540.977C665.538 540.977 665.538 540.977 665.538 540.977C665.539 540.977 665.539 540.977 665.539 540.977C665.54 540.977 665.54 540.977 665.54 540.977C665.541 540.977 665.541 540.977 665.541 540.977C665.542 540.977 665.542 540.977 665.542 540.977C665.543 540.977 665.543 540.977 665.543 540.977C665.544 540.977 665.544 540.977 665.544 540.977C665.544 540.977 665.545 540.977 665.545 540.977C665.545 540.977 665.546 540.977 665.546 540.977C665.546 540.977 665.547 540.977 665.547 540.977C665.547 540.977 665.547 540.977 665.548 540.977C665.548 540.977 665.548 540.977 665.549 540.977C665.549 540.977 665.549 540.977 665.55 540.977C665.55 540.977 665.55 540.977 665.55 540.977C665.551 540.977 665.551 540.977 665.551 540.977C665.552 540.977 665.552 540.977 665.552 540.977C665.552 540.977 665.553 540.977 665.553 540.977C665.553 540.977 665.554 540.977 665.554 540.977C665.554 540.977 665.555 540.977 665.555 540.977C665.555 540.977 665.555 540.977 665.556 540.977C665.556 540.977 665.556 540.977 665.557 540.977C665.557 540.977 665.557 540.977 665.557 540.977C665.558 540.977 665.558 540.977 665.558 540.977C665.558 540.977 665.559 540.977 665.559 540.977C665.559 540.977 665.56 540.977 665.56 540.977C665.56 540.977 665.56 540.977 665.561 540.977C665.561 540.977 665.561 540.977 665.562 540.977C665.562 540.977 665.562 540.977 665.562 540.977C665.563 540.977 665.563 540.977 665.563 540.977C665.563 540.977 665.564 540.977 665.564 540.977C665.564 540.977 665.564 540.977 665.565 540.977C665.565 540.977 665.565 540.977 665.566 540.977C665.566 540.977 665.566 540.977 665.566 540.977C665.567 540.977 665.567 540.977 665.567 540.977C665.567 540.977 665.568 540.977 665.568 540.977C665.568 540.977 665.568 540.977 665.569 540.977C665.569 540.977 665.569 540.977 665.569 540.977C665.57 540.977 665.57 540.977 665.57 540.977C665.57 540.977 665.571 540.977 665.571 540.977C665.571 540.977 665.572 540.977 665.572 540.977C665.572 540.977 665.572 540.977 665.573 540.977C665.573 540.977 665.573 540.977 665.573 540.977C665.573 540.977 665.574 540.977 665.574 540.977C665.574 540.977 665.574 540.977 665.575 540.977C665.575 540.977 665.575 540.977 665.575 540.977C665.576 540.977 665.576 540.977 665.576 540.977C665.576 540.977 665.577 540.977 665.577 540.977C665.577 540.977 665.577 540.977 665.578 540.977C665.578 540.977 665.578 540.977 665.578 540.977C665.578 540.977 665.579 540.977 665.579 540.977C665.579 540.977 665.579 540.977 665.58 540.977C665.58 540.977 665.58 540.977 665.58 540.977C665.581 540.977 665.581 540.977 665.581 540.977C665.581 540.977 665.582 540.977 665.582 540.977C665.582 540.977 665.582 540.977 665.583 540.977C665.583 540.977 665.583 540.977 665.583 540.977C665.583 540.977 665.584 540.977 665.584 540.977C665.584 540.977 665.584 540.977 665.584 540.977C665.585 540.977 665.585 540.977 665.585 540.977C665.585 540.977 665.586 540.977 665.586 540.977C665.586 540.977 665.586 540.977 665.586 540.977C665.587 540.977 665.587 540.977 665.587 540.977C665.587 540.977 665.588 540.977 665.588 540.977C665.588 540.977 665.588 540.977 665.588 540.977C665.589 540.977 665.589 540.977 665.589 540.977C665.589 540.977 665.589 540.977 665.59 540.977C665.59 540.977 665.59 540.977 665.59 540.977C665.59 540.977 665.591 540.977 665.591 540.977C665.591 540.977 665.591 540.977 665.592 540.977C665.592 540.977 665.592 540.977 665.592 540.977C665.592 540.977 665.593 540.977 665.593 540.977C665.593 540.977 665.593 540.977 665.593 540.977C665.594 540.977 665.594 540.977 665.594 540.977C665.594 540.977 665.594 540.977 665.595 540.977C665.595 540.977 665.595 540.977 665.595 540.977C665.595 540.977 665.596 540.977 665.596 540.977C665.596 540.977 665.596 540.977 665.596 540.977C665.597 540.977 665.597 540.977 665.597 540.977C665.597 540.977 665.597 540.977 665.598 540.977C665.598 540.977 665.598 540.977 665.598 540.977C665.598 540.977 665.598 540.977 665.599 540.977C665.599 540.977 665.599 540.977 665.599 540.977C665.599 540.977 665.6 540.977 665.6 540.977C665.6 540.977 665.6 540.977 665.6 540.977C665.6 540.977 665.601 540.977 665.601 540.977C665.601 540.977 665.601 540.977 665.601 540.977C665.602 540.977 665.602 540.977 665.602 540.977C665.602 540.977 665.602 540.977 665.603 540.977C665.603 540.977 665.603 540.977 665.603 540.977C665.603 540.977 665.603 540.977 665.604 540.977C665.604 540.977 665.604 540.977 665.604 540.977C665.604 540.977 665.604 540.977 665.605 540.977C665.605 540.977 665.605 540.977 665.605 540.977C665.605 540.977 665.605 540.977 665.606 540.977C665.606 540.977 665.606 540.977 665.606 540.977C665.606 540.977 665.606 540.977 665.607 540.977C665.607 540.977 665.607 540.977 665.607 540.977C665.607 540.977 665.607 540.977 665.608 540.977C665.608 540.977 665.608 540.977 665.608 540.977C665.608 540.977 665.608 540.977 665.609 540.977C665.609 540.977 665.609 540.977 665.609 540.977C665.609 540.977 665.609 540.977 665.61 540.977C665.61 540.977 665.61 540.977 665.61 540.977C665.61 540.977 665.61 540.977 665.61 540.977C665.611 540.977 665.611 540.977 665.611 540.977C665.611 540.977 665.611 540.977 665.611 540.977C665.612 540.977 665.612 540.977 665.612 540.977C665.612 540.977 665.612 540.977 665.612 540.977C665.613 540.977 665.613 540.977 665.613 540.977C665.613 540.977 665.613 540.977 665.613 540.977C665.613 540.977 665.614 540.977 665.614 540.977C665.614 540.977 665.614 540.977 665.614 540.977C665.614 540.977 665.615 540.977 665.615 540.977C665.615 540.977 665.615 540.977 665.615 540.977C665.615 540.977 665.615 540.977 665.615 540.977C665.616 540.977 665.616 540.977 665.616 540.977C665.616 540.977 665.616 540.977 665.616 540.977C665.616 540.977 665.617 540.977 665.617 540.977C665.617 540.977 665.617 540.977 665.617 540.977C665.617 540.977 665.617 540.977 665.618 540.977C665.618 540.977 665.618 540.977 665.618 540.977C665.618 540.977 665.618 540.977 665.618 540.977C665.619 540.977 665.619 540.977 665.619 540.977C665.619 540.977 665.619 540.977 665.619 540.977C665.619 540.977 665.62 540.977 665.62 540.977C665.62 540.977 665.62 540.977 665.62 540.977C665.62 540.977 665.62 540.977 665.62 540.977C665.62 540.977 665.621 540.977 665.621 540.977C665.621 540.977 665.621 540.977 665.621 540.977C665.621 540.977 665.621 540.977 665.621 540.977C665.622 540.977 665.622 540.977 665.622 540.977C665.622 540.977 665.622 540.977 665.622 540.977C665.622 540.977 665.623 540.977 665.623 540.977C665.623 540.977 665.623 540.977 665.623 540.977C665.623 540.977 665.623 540.977 665.623 540.977C665.623 540.977 665.624 540.977 665.624 540.977C665.624 540.977 665.624 540.977 665.624 540.977C665.624 540.977 665.624 540.977 665.624 540.977C665.625 540.977 665.625 540.977 665.625 540.977C665.625 540.977 665.625 540.977 665.625 540.977C665.625 540.977 665.625 540.977 665.625 540.977C665.626 540.977 665.626 540.977 665.626 540.977C665.626 540.977 665.626 540.977 665.626 540.977C665.626 540.977 665.626 540.977 665.626 540.977C665.627 540.977 665.627 540.977 665.627 540.977C665.627 540.977 665.627 540.977 665.627 540.977C665.627 540.977 665.627 540.977 665.627 540.977C665.628 540.977 665.628 540.977 665.628 540.977C665.628 540.977 665.628 540.977 665.628 540.977C665.628 540.977 665.628 540.977 665.628 540.977C665.628 540.977 665.629 540.977 665.629 540.977C665.629 540.977 665.629 540.977 665.629 540.977C665.629 540.977 665.629 540.977 665.629 540.977C665.629 540.977 665.63 540.977 665.63 540.977C665.63 540.977 665.63 540.977 665.63 540.977C665.63 540.977 665.63 540.977 665.63 540.977C665.63 540.977 665.63 540.977 665.63 540.977C665.63 540.977 665.631 540.977 665.631 540.977C665.631 540.977 665.631 540.977 665.631 540.977C665.631 540.977 665.631 540.977 665.631 540.977C665.631 540.977 665.631 540.977 665.632 540.977C665.632 540.977 665.632 540.977 665.632 540.977C665.632 540.977 665.632 540.977 665.632 540.977C665.632 540.977 665.632 540.977 665.632 540.977C665.632 540.977 665.633 540.977 665.633 540.977C665.633 540.977 665.633 540.977 665.633 540.977C665.633 540.977 665.633 540.977 665.633 540.977C665.633 540.977 665.633 540.977 665.633 540.977C665.634 540.977 665.634 540.977 665.634 540.977C665.634 540.977 665.634 540.977 665.634 540.977C665.634 540.977 665.634 540.977 665.634 540.977C665.634 540.977 665.634 540.977 665.634 540.977C665.635 540.977 665.635 540.977 665.635 540.977C665.635 540.977 665.635 540.977 665.635 540.977C665.635 540.977 665.635 540.977 665.635 540.977C665.635 540.977 665.635 540.977 665.635 540.977C665.635 540.977 665.635 540.977 665.636 540.977C665.636 540.977 665.636 540.977 665.636 540.977C665.636 540.977 665.636 540.977 665.636 540.977C665.636 540.977 665.636 540.977 665.636 540.977H665.636C665.637 540.977 665.637 540.977 665.637 540.977C665.637 540.977 665.637 540.977 665.637 540.977C665.637 540.977 665.637 540.977 665.637 540.977C665.637 540.977 665.637 540.977 665.637 540.977H665.638C665.638 540.977 665.638 540.977 665.638 540.977C665.638 540.977 665.638 540.977 665.638 540.977H665.638C665.638 540.977 665.638 540.977 665.638 540.977H665.639C665.639 540.977 665.639 540.977 665.639 540.977C665.639 540.977 665.639 540.977 665.639 540.977H665.639C665.639 540.977 665.639 540.977 665.639 540.977H665.64C665.64 540.977 665.64 540.977 665.64 540.977H665.64C665.64 540.977 665.64 540.977 665.64 540.977C665.64 540.977 665.64 540.977 665.64 540.977H665.64C665.641 540.977 665.641 540.977 665.641 540.977H665.641C665.641 540.977 665.641 540.977 665.641 540.977C665.641 540.977 665.641 540.977 665.641 540.977H665.641C665.641 540.977 665.641 540.977 665.641 540.977C665.641 540.977 665.641 540.977 665.642 540.977H665.642H665.642C665.642 540.977 665.642 540.977 665.642 540.977C665.642 540.977 665.642 540.977 665.642 540.977C665.642 540.977 665.642 540.977 665.642 540.977H665.642H665.643H665.643C665.643 540.977 665.643 540.977 665.643 540.977C665.643 540.977 665.643 540.977 665.643 540.977C665.643 540.977 665.643 540.977 665.643 540.977C665.643 540.977 665.643 540.977 665.643 540.977C665.643 540.977 665.643 540.977 665.643 540.977C665.643 540.977 665.643 540.977 665.644 540.977C665.644 540.977 665.644 540.977 665.644 540.977C665.644 540.977 665.644 540.977 665.644 540.977C665.644 540.977 665.644 540.977 665.644 540.977C665.644 540.977 665.644 540.977 665.644 540.977C665.644 540.977 665.644 540.977 665.644 540.977C665.644 540.977 665.644 540.977 665.644 540.977C665.644 540.977 665.644 540.977 665.644 540.977C665.645 540.977 665.645 540.977 665.645 540.977H665.645H665.645C665.645 540.977 665.645 540.977 665.645 540.977C665.645 540.977 665.645 540.977 665.645 540.977C665.645 540.977 665.645 540.977 665.645 540.977H665.645H665.645C665.645 540.977 665.645 540.977 665.646 540.977C665.646 540.977 665.646 540.977 665.646 540.977C665.646 540.977 665.646 540.977 665.646 540.977C665.646 540.977 665.646 540.977 665.646 540.977H665.646C665.646 540.977 665.646 540.977 665.646 540.977H665.646C665.646 540.977 665.646 540.977 665.646 540.977C665.646 540.977 665.646 540.977 665.646 540.977H665.647H665.647C665.647 540.977 665.647 540.977 665.647 540.977C665.647 540.977 665.647 540.977 665.647 540.977C665.647 540.977 665.647 540.977 665.647 540.977H665.647H665.647C665.647 540.977 665.647 540.977 665.647 540.977H665.648C665.648 540.977 665.648 540.977 665.648 540.977C665.648 540.977 665.648 540.977 665.648 540.977C665.648 540.977 665.648 540.977 665.648 540.977C665.648 540.977 665.648 540.977 665.648 540.977C665.648 540.977 665.648 540.977 665.648 540.977C665.648 540.977 665.648 540.977 665.648 540.977C665.648 540.977 665.648 540.977 665.648 540.977C665.648 540.977 665.648 540.977 665.649 540.977C665.649 540.977 665.649 540.977 665.649 540.977C665.649 540.977 665.649 540.977 665.649 523.977ZM663.986 507.028C655.461 507.684 647.183 507.692 637.808 507.692V541.692C646.993 541.692 656.561 541.7 666.598 540.927L663.986 507.028ZM637.808 507.692C624.451 507.692 610.95 507.171 597.062 506.633C583.287 506.099 569.126 505.547 554.999 505.547V539.547C568.356 539.547 581.857 540.069 595.745 540.607C609.519 541.141 623.681 541.692 637.808 541.692V507.692ZM554.999 505.547C545.805 505.547 535.907 505.54 525.543 506.309L528.059 540.216C536.97 539.555 545.633 539.547 554.999 539.547V505.547ZM525.695 506.298C381.461 515.703 249.415 622.133 208.874 760.856L241.508 770.393C278.065 645.306 398.015 548.695 527.907 540.226L525.695 506.298ZM208.868 760.874C198.036 798.095 193.555 836.105 190.062 873.099C186.528 910.543 184.025 946.514 177.424 982L210.851 988.217C217.814 950.78 220.487 912.577 223.912 876.294C227.38 839.56 231.644 804.29 241.514 770.375L208.868 760.874ZM177.417 982.042C165.073 1049.35 136.226 1112.75 95.4982 1168.06L122.876 1188.22C166.385 1129.14 197.503 1061 210.859 988.175L177.417 982.042ZM95.2628 1168.39C11.9343 1287.36 -126.093 1364.9 -282.014 1364.9V1398.9C-114.551 1398.9 33.6832 1315.57 123.111 1187.89L95.2628 1168.39ZM-282.014 1364.9C-536.384 1364.9 -742.95 1158.4 -742.95 903.249H-776.95C-776.95 1177.15 -555.193 1398.9 -282.014 1398.9V1364.9ZM-742.95 903.249C-742.95 823.228 -722.636 748.072 -687.176 682.563L-717.076 666.378C-755.145 736.706 -776.95 817.406 -776.95 903.249H-742.95ZM-687.018 682.265C-676.36 661.606 -663.989 641.649 -650.266 623.096L-677.602 602.877C-692.434 622.93 -705.762 644.439 -717.234 666.676L-687.018 682.265ZM-650.264 623.093C-564.084 506.524 -418.678 437.67 -273.804 437.67V403.67C-428.755 403.67 -584.603 477.087 -677.604 602.88L-650.264 623.093ZM-273.804 437.67C-234.244 437.67 -195.098 442.836 -157.025 453.485L-147.867 420.741C-189.034 409.227 -231.269 403.67 -273.804 403.67V437.67ZM-157.048 453.478C-121.822 463.384 -87.86 477.354 -52.2239 491.168C-16.9934 504.825 19.5687 518.192 58.1278 525.654L64.5878 492.274C29.2614 485.437 -4.84961 473.067 -39.9353 459.467C-74.6154 446.023 -110.613 431.218 -147.844 420.748L-157.048 453.478ZM58.1319 525.655C79.6165 529.807 101.046 531.683 122.394 531.683V497.683C103.05 497.683 83.7897 495.985 64.5837 492.273L58.1319 525.655ZM122.394 531.683C280.712 531.683 437.158 423.972 485.2 270.611L452.755 260.448C409.421 398.779 266.756 497.683 122.394 497.683V531.683ZM485.203 270.603C539.524 96.8915 446.683 -109.305 280.65 -183.249L266.818 -152.19C417.03 -85.2921 501.942 103.154 452.752 260.456L485.203 270.603ZM280.622 -183.261C248.325 -197.575 214.283 -207.19 181.879 -216.695C149.049 -226.326 117.692 -235.896 88.4584 -250.194L73.5201 -219.652C105.679 -203.923 139.641 -193.653 172.309 -184.07C205.403 -174.362 237.037 -165.388 266.846 -152.177L280.622 -183.261ZM88.4822 -250.183C-33.0839 -309.876 -102.194 -461.464 -67.826 -592.73L-100.717 -601.342C-139.164 -454.5 -62.6447 -286.513 73.4962 -219.663L88.4822 -250.183ZM-67.8588 -592.607C-64.4575 -605.21 -60.4211 -617.305 -55.436 -628.954L-86.6941 -642.331C-92.417 -628.957 -96.9471 -615.315 -100.685 -601.465L-67.8588 -592.607ZM-55.1865 -629.57C-12.6373 -740.836 95.0712 -819.896 220.908 -819.896V-853.896C80.4707 -853.896 -39.5451 -765.662 -86.9436 -641.715L-55.1865 -629.57ZM220.908 -889.643C70.348 -889.643 -66.5894 -795.19 -120.496 -654.226L-88.7384 -642.082C-39.8472 -769.932 84.4918 -855.643 220.908 -855.643V-889.643ZM-120.224 -654.893C-126.298 -640.826 -131.606 -625.263 -135.412 -609.638L-102.377 -601.593C-99.0437 -615.28 -94.3578 -629.029 -89.0098 -641.415L-120.224 -654.893ZM-135.338 -609.928C-178.078 -446.977 -93.324 -261.498 57.4067 -187.148L72.4476 -217.64C-63.7974 -284.845 -141.092 -453.973 -102.451 -601.302L-135.338 -609.928ZM57.3771 -187.162C94.2758 -168.872 132.472 -157.774 167.98 -147.462L177.463 -180.113C141.584 -190.533 106.252 -200.884 72.4772 -217.625L57.3771 -187.162ZM167.918 -147.48C198.641 -138.43 226.263 -130.551 251.715 -118.996L265.771 -149.954C237.683 -162.707 207.481 -171.271 177.525 -180.095L167.918 -147.48ZM251.844 -118.938C385.609 -59.5481 461.963 110.288 418.134 250.077L450.576 260.249C499.549 104.056 415.283 -83.574 265.641 -150.013L251.844 -118.938ZM418.132 250.081C380.474 370.296 252.711 462.294 121.68 462.294V496.294C266.916 496.294 408.283 395.261 450.578 260.245L418.132 250.081ZM121.68 462.294C104.554 462.294 87.0229 460.609 70.5012 457.57L64.3502 491.009C82.8081 494.404 102.398 496.294 121.68 496.294V462.294ZM70.6182 457.592C33.1838 450.435 -2.83771 436.408 -42.6625 420.598L-55.2076 452.199C-15.7929 467.846 23.142 483.131 64.2332 490.987L70.6182 457.592ZM-42.7745 420.554C-72.8514 408.859 -105.176 395.971 -139.059 386.75L-147.987 419.557C-116.194 428.209 -85.6976 440.344 -55.0956 452.243L-42.7745 420.554ZM-138.938 386.784C-182.646 374.542 -228.098 368.638 -274.518 368.638V402.638C-230.99 402.638 -188.637 408.172 -148.108 419.524L-138.938 386.784ZM-274.518 368.638C-443.53 368.638 -609.306 450.384 -706.865 582.137L-679.54 602.37C-588.638 479.607 -433.172 402.638 -274.518 402.638V368.638ZM-706.866 582.139C-722.734 603.574 -737.192 626.575 -749.46 651.148L-719.04 666.336C-707.751 643.723 -694.368 622.399 -679.539 602.368L-706.866 582.139ZM-749.193 650.636C-790.892 727.505 -813 815.015 -813 903.606H-779C-779 820.614 -758.276 738.685 -719.307 666.848L-749.193 650.636ZM-813 903.606C-813 1196.43 -575.197 1435 -282.371 1435V1401C-556.357 1401 -779 1177.72 -779 903.606H-813ZM-282.371 1435C-109.776 1435 52.8325 1350.43 152.029 1208.62L124.168 1189.13C31.3341 1321.85 -120.874 1401 -282.371 1401V1435ZM151.8 1208.94C198.938 1144.76 231.426 1070.91 245.476 994.995L212.044 988.807C198.968 1059.46 168.635 1128.58 124.398 1188.81L151.8 1208.94ZM245.487 994.937C251.356 962.61 254.272 929.652 257.109 899.102L223.255 895.957C220.382 926.892 217.587 958.277 212.034 988.864L245.487 994.937ZM257.111 899.079C261.071 855.821 264.543 817.099 275.085 780.317L242.401 770.95C230.813 811.38 227.146 853.446 223.253 895.98L257.111 899.079ZM275.064 780.389C307.339 669.615 414.439 583.354 529.371 575.613L527.086 541.69C397.875 550.393 278.678 646.439 242.422 770.878L275.064 780.389ZM529.643 575.593C537.386 574.946 545.245 574.937 553.928 574.937V540.937C545.478 540.937 536.204 540.927 526.815 541.71L529.643 575.593ZM553.928 574.937C566.832 574.937 580.097 575.286 593.367 575.985L595.156 542.033C581.299 541.302 567.437 540.937 553.928 540.937V574.937ZM593.836 576.004C607.5 576.346 622.571 577.082 636.737 577.082V543.082C623.062 543.082 609.578 542.387 594.687 542.014L593.836 576.004ZM636.737 577.082C646.27 577.082 656.537 577.089 666.906 576.32L664.391 542.413C655.486 543.074 646.478 543.082 636.737 543.082V577.082ZM665.745 576.366C801.436 575.599 911.087 465.425 911.087 329.873H877.087C877.087 446.693 782.571 541.705 665.552 542.367L665.745 576.366ZM911.087 329.873C911.087 241.576 863.575 159.432 786.868 115.643L770.012 145.171C836.079 182.885 877.087 253.736 877.087 329.873H911.087ZM787.62 116.099C763.792 100.811 738.889 88.9116 715.999 77.6259L700.963 108.121C724.475 119.713 747.401 130.691 769.26 144.716L787.62 116.099ZM715.778 77.5193C694.737 67.5187 675.909 58.2365 658.632 47.3798L640.542 76.1678C659.672 88.1889 680.106 98.2098 701.183 108.227L715.778 77.5193ZM658.482 47.2869C555.856 -15.7282 500.733 -147.415 527.667 -265.089L494.524 -272.675C464.349 -140.839 525.587 5.58356 640.691 76.2608L658.482 47.2869ZM527.687 -265.177C533.452 -290.99 542.983 -316.283 553.446 -344.468L521.572 -356.301C511.333 -328.722 500.875 -301.11 494.505 -272.588L527.687 -265.177ZM553.452 -344.482C565.11 -375.971 578.161 -410.24 585.259 -447.276L551.866 -453.675C545.4 -419.932 533.466 -388.427 521.567 -356.287L553.452 -344.482ZM585.229 -447.123C606.204 -551.407 579.275 -662.995 513.746 -746.248L487.03 -725.218C546.427 -649.756 570.897 -548.295 551.896 -453.827L585.229 -447.123ZM513.745 -746.249C498.35 -765.803 480.37 -784.179 460.903 -800.301L439.217 -774.115C456.871 -759.495 473.157 -742.839 487.031 -725.217L513.745 -746.249ZM461.264 -799.994C395.343 -857.76 309.98 -890 221.622 -890V-856C301.737 -856 379.136 -826.755 438.856 -774.423L461.264 -799.994ZM214.01 -888.201L213.296 -887.843L228.519 -857.442L229.233 -857.799L214.01 -888.201Z" fill="white" mask="url(#path-1-inside-1_301_1521)"/>
</svg>