<svg xmlns="http://www.w3.org/2000/svg" width="394" height="244" viewBox="0 0 394 244" fill="none">
  <path d="M0 16.9739C0 7.59948 7.58709 0 16.9462 0H377.054C386.413 0 394 7.59948 394 16.9739V227.026C394 236.401 386.413 244 377.054 244H16.9462C7.5871 244 0 236.401 0 227.026V16.9739Z" fill="url(#paint0_linear_301_1494)"/>
  <path d="M55.8765 136.148C54.1367 136.148 52.6044 135.672 51.2798 134.722C49.9749 133.752 48.9568 132.415 48.2253 130.712C47.4937 128.989 47.128 126.989 47.128 124.712C47.128 122.434 47.4937 120.444 48.2253 118.741C48.9568 117.018 49.9749 115.681 51.2798 114.731C52.5847 113.78 54.107 113.305 55.8468 113.305C57.5866 113.305 59.109 113.78 60.4138 114.731C61.7187 115.681 62.7369 117.018 63.4684 118.741C64.1999 120.444 64.5657 122.434 64.5657 124.712C64.5657 126.989 64.1999 128.989 63.4684 130.712C62.7566 132.435 61.7483 133.771 60.4435 134.722C59.1386 135.672 57.6163 136.148 55.8765 136.148ZM55.8765 133.92C57.1418 133.92 58.2489 133.534 59.1979 132.761C60.1469 131.989 60.8883 130.92 61.4221 129.553C61.9559 128.167 62.2228 126.553 62.2228 124.712C62.2228 122.87 61.9559 121.266 61.4221 119.899C60.8883 118.513 60.1469 117.444 59.1979 116.691C58.2489 115.919 57.1319 115.533 55.8468 115.533C54.5815 115.533 53.4743 115.919 52.5254 116.691C51.5764 117.444 50.835 118.513 50.3012 119.899C49.7674 121.266 49.5005 122.87 49.5005 124.712C49.5005 126.533 49.7674 128.137 50.3012 129.524C50.835 130.91 51.5764 131.989 52.5254 132.761C53.4941 133.534 54.6112 133.92 55.8765 133.92Z" fill="white"/>
  <path d="M72.0811 135.791V115.741H67.9293V113.662H74.4536V135.791H72.0811Z" fill="white"/>
  <path d="M79.4386 135.791V134.306L85.607 127.504C86.813 126.177 87.7916 125.078 88.5429 124.207C89.314 123.335 89.8873 122.543 90.263 121.83C90.6386 121.117 90.8264 120.345 90.8264 119.513C90.8264 118.187 90.4409 117.167 89.6699 116.454C88.8988 115.741 87.8707 115.384 86.5856 115.384C85.261 115.384 84.144 115.761 83.2345 116.513C82.3448 117.266 81.7418 118.315 81.4255 119.662L79.2606 119.187C79.5176 117.979 79.9823 116.939 80.6545 116.068C81.3267 115.196 82.1669 114.523 83.1752 114.048C84.1835 113.553 85.3104 113.305 86.556 113.305C87.8806 113.305 89.0372 113.572 90.0257 114.107C91.0143 114.642 91.7853 115.375 92.3389 116.305C92.9122 117.236 93.1989 118.305 93.1989 119.513C93.1989 120.345 93.021 121.147 92.6651 121.919C92.329 122.692 91.815 123.523 91.123 124.415C90.431 125.306 89.5413 126.345 88.454 127.533L82.849 133.712H93.792V135.791H79.4386Z" fill="white"/>
  <path d="M104.219 136.148C103.073 136.148 102.015 135.95 101.046 135.554C100.077 135.158 99.2272 134.593 98.4957 133.861C97.784 133.128 97.2403 132.256 96.8647 131.247L98.7626 130.355C99.2174 131.504 99.9291 132.415 100.898 133.088C101.867 133.742 102.974 134.068 104.219 134.068C105.208 134.068 106.088 133.88 106.859 133.504C107.63 133.108 108.233 132.544 108.668 131.811C109.103 131.078 109.32 130.187 109.32 129.138C109.32 128.088 109.093 127.197 108.638 126.464C108.203 125.731 107.6 125.177 106.829 124.801C106.058 124.424 105.178 124.236 104.19 124.236C103.933 124.236 103.646 124.246 103.33 124.266C103.033 124.286 102.786 124.316 102.588 124.355L102.114 123.315L108.075 115.741H97.9026V113.662H110.744V115.741L105.168 122.781L104.872 122.395C106.196 122.434 107.373 122.751 108.401 123.345C109.429 123.919 110.23 124.702 110.803 125.692C111.396 126.682 111.693 127.831 111.693 129.138C111.693 130.445 111.376 131.633 110.744 132.702C110.111 133.752 109.231 134.593 108.104 135.227C106.977 135.841 105.682 136.148 104.219 136.148Z" fill="white"/>
  <path d="M141.293 135.791V130.563H130.054V128.633L141.293 113.662H143.369V128.633H146.068V130.563H143.369V135.791H141.293ZM131.863 129.494L131.596 128.633H141.293V115.711L142.035 115.919L131.863 129.494Z" fill="white"/>
  <path d="M156.325 136.148C155.179 136.148 154.111 135.95 153.123 135.554C152.154 135.158 151.304 134.593 150.572 133.861C149.841 133.128 149.287 132.256 148.911 131.247L150.72 130.355C151.175 131.504 151.917 132.415 152.945 133.088C153.993 133.742 155.119 134.068 156.325 134.068C157.294 134.068 158.154 133.841 158.906 133.385C159.677 132.93 160.28 132.316 160.715 131.544C161.149 130.751 161.367 129.87 161.367 128.9C161.367 127.89 161.14 126.999 160.685 126.227C160.25 125.454 159.657 124.85 158.906 124.415C158.154 123.959 157.304 123.731 156.355 123.731C155.386 123.731 154.487 123.959 153.656 124.415C152.846 124.85 152.253 125.385 151.877 126.019L150.009 125.662L151.669 113.662H162.85V115.741H152.529L153.449 114.939L152.114 124.385L151.195 123.969C151.887 123.117 152.698 122.513 153.627 122.157C154.556 121.781 155.505 121.593 156.474 121.593C157.897 121.593 159.153 121.929 160.24 122.603C161.327 123.256 162.178 124.137 162.79 125.246C163.423 126.335 163.739 127.553 163.739 128.9C163.739 130.266 163.413 131.504 162.761 132.613C162.128 133.702 161.248 134.564 160.121 135.197C159.014 135.831 157.749 136.148 156.325 136.148Z" fill="white"/>
  <path d="M174.54 136.148C173.156 136.148 171.931 135.841 170.863 135.227C169.795 134.593 168.955 133.732 168.342 132.643C167.729 131.534 167.423 130.266 167.423 128.84C167.423 128.048 167.512 127.266 167.69 126.494C167.888 125.722 168.174 124.959 168.55 124.207C168.945 123.454 169.42 122.702 169.973 121.949L176.201 113.662H179.048L171.367 123.731L170.922 123.999C171.219 123.504 171.565 123.127 171.96 122.87C172.356 122.593 172.791 122.395 173.265 122.276C173.76 122.157 174.283 122.098 174.837 122.098C176.122 122.098 177.279 122.405 178.307 123.018C179.335 123.613 180.145 124.434 180.739 125.484C181.351 126.533 181.658 127.751 181.658 129.138C181.658 130.464 181.342 131.662 180.709 132.732C180.096 133.781 179.256 134.613 178.188 135.227C177.12 135.841 175.905 136.148 174.54 136.148ZM174.54 134.068C175.45 134.068 176.26 133.861 176.972 133.445C177.684 133.009 178.247 132.415 178.663 131.662C179.078 130.91 179.285 130.068 179.285 129.138C179.285 128.187 179.078 127.345 178.663 126.613C178.267 125.88 177.714 125.306 177.002 124.89C176.29 124.454 175.47 124.236 174.54 124.236C173.631 124.236 172.811 124.454 172.079 124.89C171.367 125.306 170.804 125.88 170.389 126.613C169.993 127.345 169.795 128.187 169.795 129.138C169.795 130.068 170.003 130.91 170.418 131.662C170.833 132.415 171.397 133.009 172.109 133.445C172.82 133.861 173.631 134.068 174.54 134.068Z" fill="white"/>
  <path d="M185.682 135.791L195.646 115.741H184.614V113.662H198.107V115.741L188.173 135.791H185.682Z" fill="white"/>
  <path d="M223.871 136.148C222.447 136.148 221.172 135.861 220.045 135.286C218.938 134.692 218.058 133.89 217.406 132.88C216.773 131.851 216.457 130.692 216.457 129.405C216.457 127.999 216.852 126.741 217.643 125.632C218.453 124.523 219.541 123.751 220.905 123.315V123.939C219.857 123.484 219.046 122.81 218.473 121.919C217.9 121.008 217.613 120.038 217.613 119.008C217.613 117.919 217.89 116.949 218.443 116.097C218.997 115.246 219.738 114.572 220.668 114.077C221.617 113.563 222.684 113.305 223.871 113.305C225.077 113.305 226.144 113.553 227.073 114.048C228.003 114.523 228.734 115.196 229.268 116.068C229.821 116.919 230.098 117.899 230.098 119.008C230.098 120.117 229.802 121.107 229.209 121.979C228.615 122.83 227.835 123.484 226.866 123.939L226.836 123.315C228.2 123.751 229.278 124.523 230.069 125.632C230.879 126.741 231.285 127.999 231.285 129.405C231.285 130.692 230.958 131.851 230.306 132.88C229.673 133.89 228.793 134.692 227.666 135.286C226.559 135.861 225.294 136.148 223.871 136.148ZM223.871 134.068C224.879 134.068 225.759 133.88 226.51 133.504C227.261 133.108 227.844 132.563 228.26 131.87C228.695 131.157 228.912 130.336 228.912 129.405C228.912 128.474 228.695 127.662 228.26 126.969C227.844 126.256 227.261 125.712 226.51 125.335C225.759 124.939 224.879 124.741 223.871 124.741C222.862 124.741 221.973 124.939 221.201 125.335C220.45 125.712 219.867 126.256 219.452 126.969C219.037 127.662 218.829 128.474 218.829 129.405C218.829 130.336 219.037 131.157 219.452 131.87C219.867 132.563 220.45 133.108 221.201 133.504C221.973 133.88 222.862 134.068 223.871 134.068ZM223.871 122.662C224.602 122.662 225.254 122.513 225.828 122.216C226.401 121.9 226.856 121.474 227.192 120.939C227.548 120.385 227.726 119.741 227.726 119.008C227.726 118.276 227.548 117.642 227.192 117.107C226.856 116.573 226.401 116.157 225.828 115.86C225.254 115.543 224.602 115.384 223.871 115.384C223.139 115.384 222.477 115.543 221.884 115.86C221.31 116.157 220.846 116.573 220.49 117.107C220.154 117.642 219.986 118.276 219.986 119.008C219.986 119.741 220.154 120.385 220.49 120.939C220.846 121.474 221.31 121.9 221.884 122.216C222.477 122.513 223.139 122.662 223.871 122.662Z" fill="white"/>
  <path d="M237.48 135.791L245.161 125.722L245.606 125.454C245.31 125.929 244.964 126.306 244.568 126.583C244.173 126.86 243.738 127.058 243.263 127.177C242.789 127.296 242.265 127.355 241.692 127.355C240.407 127.355 239.25 127.058 238.222 126.464C237.194 125.85 236.373 125.019 235.76 123.969C235.167 122.9 234.871 121.682 234.871 120.315C234.871 118.969 235.177 117.771 235.79 116.721C236.423 115.672 237.273 114.84 238.34 114.226C239.428 113.612 240.644 113.305 241.988 113.305C243.372 113.305 244.598 113.622 245.666 114.256C246.733 114.87 247.573 115.731 248.186 116.84C248.799 117.929 249.106 119.187 249.106 120.612C249.106 121.404 249.007 122.187 248.809 122.959C248.631 123.731 248.354 124.494 247.979 125.246C247.603 125.999 247.129 126.751 246.555 127.504L240.327 135.791H237.48ZM241.988 125.217C242.917 125.217 243.738 125.009 244.45 124.593C245.161 124.157 245.715 123.573 246.11 122.84C246.526 122.088 246.733 121.246 246.733 120.315C246.733 119.365 246.526 118.523 246.11 117.79C245.695 117.038 245.132 116.454 244.42 116.038C243.708 115.602 242.898 115.384 241.988 115.384C241.079 115.384 240.268 115.602 239.556 116.038C238.845 116.454 238.281 117.038 237.866 117.79C237.451 118.523 237.243 119.365 237.243 120.315C237.243 121.246 237.441 122.088 237.836 122.84C238.252 123.573 238.815 124.157 239.527 124.593C240.258 125.009 241.079 125.217 241.988 125.217Z" fill="white"/>
  <path d="M256.243 135.791V115.741H252.091V113.662H258.616V135.791H256.243Z" fill="white"/>
  <path d="M272.764 136.148C271.025 136.148 269.492 135.672 268.168 134.722C266.863 133.752 265.845 132.415 265.113 130.712C264.382 128.989 264.016 126.989 264.016 124.712C264.016 122.434 264.382 120.444 265.113 118.741C265.845 117.018 266.863 115.681 268.168 114.731C269.473 113.78 270.995 113.305 272.735 113.305C274.474 113.305 275.997 113.78 277.302 114.731C278.607 115.681 279.625 117.018 280.356 118.741C281.088 120.444 281.453 122.434 281.453 124.712C281.453 126.989 281.088 128.989 280.356 130.712C279.645 132.435 278.636 133.771 277.331 134.722C276.026 135.672 274.504 136.148 272.764 136.148ZM272.764 133.92C274.03 133.92 275.137 133.534 276.086 132.761C277.035 131.989 277.776 130.92 278.31 129.553C278.844 128.167 279.111 126.553 279.111 124.712C279.111 122.87 278.844 121.266 278.31 119.899C277.776 118.513 277.035 117.444 276.086 116.691C275.137 115.919 274.02 115.533 272.735 115.533C271.469 115.533 270.362 115.919 269.413 116.691C268.464 117.444 267.723 118.513 267.189 119.899C266.655 121.266 266.388 122.87 266.388 124.712C266.388 126.533 266.655 128.137 267.189 129.524C267.723 130.91 268.464 131.989 269.413 132.761C270.382 133.534 271.499 133.92 272.764 133.92Z" fill="white"/>
  <path d="M304.087 135.791V115.741H299.935V113.662H306.459V135.791H304.087Z" fill="white"/>
  <path d="M315.092 135.791V115.741H310.94V113.662H317.464V135.791H315.092Z" fill="white"/>
  <path d="M326.097 135.791V115.741H321.945V113.662H328.469V135.791H326.097Z" fill="white"/>
  <path d="M333.454 135.791V134.306L339.623 127.504C340.829 126.177 341.807 125.078 342.559 124.207C343.33 123.335 343.903 122.543 344.279 121.83C344.654 121.117 344.842 120.345 344.842 119.513C344.842 118.187 344.457 117.167 343.686 116.454C342.914 115.741 341.886 115.384 340.601 115.384C339.277 115.384 338.16 115.761 337.25 116.513C336.36 117.266 335.757 118.315 335.441 119.662L333.276 119.187C333.533 117.979 333.998 116.939 334.67 116.068C335.342 115.196 336.183 114.523 337.191 114.048C338.199 113.553 339.326 113.305 340.572 113.305C341.896 113.305 343.053 113.572 344.041 114.107C345.03 114.642 345.801 115.375 346.355 116.305C346.928 117.236 347.215 118.305 347.215 119.513C347.215 120.345 347.037 121.147 346.681 121.919C346.345 122.692 345.831 123.523 345.139 124.415C344.447 125.306 343.557 126.345 342.47 127.533L336.865 133.712H347.808V135.791H333.454Z" fill="white"/>
  <path d="M41.6972 193.256C40.9163 193.256 40.1996 193.118 39.5472 192.841C38.8947 192.553 38.3263 192.157 37.842 191.652C37.3675 191.138 36.9968 190.534 36.7299 189.84C36.463 189.147 36.3295 188.385 36.3295 187.553C36.3295 186.722 36.463 185.959 36.7299 185.266C36.9968 184.573 37.3675 183.969 37.842 183.454C38.3263 182.939 38.8947 182.543 39.5472 182.266C40.1996 181.979 40.9163 181.835 41.6972 181.835C42.4485 181.835 43.1207 181.969 43.7138 182.236C44.3168 182.503 44.821 182.85 45.2263 183.276C45.6415 183.692 45.938 184.132 46.116 184.598L45.0039 185.088C44.7271 184.444 44.302 183.929 43.7287 183.543C43.1652 183.147 42.488 182.949 41.6972 182.949C40.8866 182.949 40.165 183.142 39.5323 183.528C38.8997 183.914 38.4054 184.454 38.0495 185.147C37.6937 185.83 37.5157 186.632 37.5157 187.553C37.5157 188.464 37.6937 189.266 38.0495 189.959C38.4054 190.652 38.8997 191.192 39.5323 191.578C40.165 191.954 40.8866 192.143 41.6972 192.143C42.488 192.143 43.1652 191.949 43.7287 191.563C44.302 191.177 44.7271 190.662 45.0039 190.019L46.116 190.509C45.938 190.964 45.6415 191.405 45.2263 191.831C44.821 192.247 44.3168 192.588 43.7138 192.855C43.1207 193.123 42.4485 193.256 41.6972 193.256Z" fill="white"/>
  <path d="M50.2305 193.256C49.7263 193.256 49.2766 193.162 48.8811 192.974C48.4857 192.776 48.1743 192.509 47.947 192.172C47.7196 191.836 47.6059 191.449 47.6059 191.014C47.6059 190.598 47.6949 190.222 47.8728 189.885C48.0508 189.538 48.3276 189.246 48.7032 189.009C49.0788 188.771 49.5583 188.603 50.1415 188.504L53.2554 187.984V188.994L50.4084 189.469C49.8351 189.568 49.4199 189.751 49.1629 190.019C48.9157 190.286 48.7922 190.603 48.7922 190.969C48.7922 191.326 48.9306 191.628 49.2074 191.875C49.494 192.123 49.8598 192.247 50.3046 192.247C50.8483 192.247 51.3228 192.133 51.7281 191.905C52.1334 191.667 52.4497 191.35 52.6771 190.954C52.9045 190.558 53.0181 190.118 53.0181 189.633V187.613C53.0181 187.137 52.8451 186.751 52.4992 186.454C52.1532 186.157 51.7034 186.009 51.1498 186.009C50.6654 186.009 50.2404 186.132 49.8746 186.38C49.5089 186.618 49.237 186.929 49.0591 187.316L48.0508 186.766C48.199 186.429 48.4314 186.122 48.7477 185.845C49.0739 185.568 49.4446 185.35 49.8598 185.192C50.275 185.023 50.705 184.939 51.1498 184.939C51.733 184.939 52.2471 185.053 52.6919 185.281C53.1466 185.509 53.4976 185.825 53.7447 186.231C54.0017 186.627 54.1302 187.088 54.1302 187.613V193.078H53.0181V191.489L53.1812 191.652C53.0428 191.949 52.8254 192.222 52.5288 192.469C52.2421 192.707 51.9011 192.9 51.5057 193.049C51.1202 193.187 50.6951 193.256 50.2305 193.256Z" fill="white"/>
  <path d="M56.4177 193.078V185.117H57.5298V186.424L57.3815 186.231C57.5693 185.855 57.8511 185.558 58.2267 185.34C58.6122 185.122 59.0768 185.014 59.6205 185.014H60.1247V186.127H59.4277C58.8544 186.127 58.3947 186.306 58.0488 186.662C57.7028 187.019 57.5298 187.524 57.5298 188.177V193.078H56.4177Z" fill="white"/>
  <path d="M65.0163 193.256C64.2749 193.256 63.6076 193.078 63.0145 192.722C62.4214 192.355 61.9518 191.86 61.6058 191.237C61.2697 190.603 61.1017 189.89 61.1017 189.098C61.1017 188.296 61.2697 187.583 61.6058 186.959C61.9518 186.335 62.4164 185.845 62.9997 185.489C63.5928 185.122 64.265 184.939 65.0163 184.939C65.6984 184.939 66.3063 185.088 66.8401 185.385C67.3739 185.682 67.794 186.083 68.1005 186.588L67.9225 186.9V181.835H69.0346V193.078H67.9225V191.296L68.1005 191.459C67.8237 192.034 67.4085 192.479 66.8549 192.796C66.3112 193.103 65.6984 193.256 65.0163 193.256ZM65.0756 192.143C65.6094 192.143 66.0888 192.009 66.5139 191.742C66.9488 191.474 67.2899 191.113 67.537 190.657C67.794 190.192 67.9225 189.672 67.9225 189.098C67.9225 188.524 67.794 188.009 67.537 187.553C67.2899 187.088 66.9488 186.722 66.5139 186.454C66.0888 186.187 65.6094 186.053 65.0756 186.053C64.5517 186.053 64.0772 186.187 63.6521 186.454C63.227 186.722 62.8909 187.083 62.6438 187.538C62.4065 187.994 62.2879 188.514 62.2879 189.098C62.2879 189.672 62.4065 190.192 62.6438 190.657C62.8909 191.113 63.2221 191.474 63.6373 191.742C64.0623 192.009 64.5418 192.143 65.0756 192.143Z" fill="white"/>
  <path d="M74.0007 193.078V182.013H75.187V186.989H81.1182V182.013H82.3044V193.078H81.1182V188.103H75.187V193.078H74.0007Z" fill="white"/>
  <path d="M88.4777 193.256C87.7264 193.256 87.0443 193.078 86.4314 192.722C85.8185 192.355 85.3292 191.86 84.9635 191.237C84.6076 190.603 84.4296 189.885 84.4296 189.083C84.4296 188.291 84.6076 187.583 84.9635 186.959C85.3193 186.335 85.7988 185.845 86.4018 185.489C87.0147 185.122 87.7066 184.939 88.4777 184.939C89.2487 184.939 89.9358 185.117 90.5388 185.474C91.1517 185.83 91.6311 186.321 91.9771 186.944C92.333 187.568 92.5109 188.281 92.5109 189.083C92.5109 189.895 92.328 190.618 91.9623 191.251C91.5965 191.875 91.1072 192.365 90.4943 192.722C89.8913 193.078 89.2191 193.256 88.4777 193.256ZM88.4777 192.143C89.0115 192.143 89.4909 192.009 89.916 191.742C90.351 191.474 90.692 191.108 90.9391 190.642C91.1961 190.177 91.3247 189.657 91.3247 189.083C91.3247 188.509 91.1961 187.994 90.9391 187.538C90.692 187.083 90.351 186.722 89.916 186.454C89.4909 186.187 89.0115 186.053 88.4777 186.053C87.9439 186.053 87.4595 186.187 87.0246 186.454C86.5995 186.722 86.2584 187.083 86.0014 187.538C85.7444 187.994 85.6159 188.509 85.6159 189.083C85.6159 189.657 85.7444 190.177 86.0014 190.642C86.2584 191.108 86.5995 191.474 87.0246 191.742C87.4595 192.009 87.9439 192.143 88.4777 192.143Z" fill="white"/>
  <path d="M94.4722 193.078V181.835H95.5843V193.078H94.4722Z" fill="white"/>
  <path d="M101.449 193.256C100.708 193.256 100.04 193.078 99.4473 192.722C98.8541 192.355 98.3846 191.86 98.0386 191.237C97.7025 190.603 97.5344 189.89 97.5344 189.098C97.5344 188.296 97.7025 187.583 98.0386 186.959C98.3846 186.335 98.8492 185.845 99.4324 185.489C100.026 185.122 100.698 184.939 101.449 184.939C102.131 184.939 102.739 185.088 103.273 185.385C103.807 185.682 104.227 186.083 104.533 186.588L104.355 186.9V181.835H105.467V193.078H104.355V191.296L104.533 191.459C104.256 192.034 103.841 192.479 103.288 192.796C102.744 193.103 102.131 193.256 101.449 193.256ZM101.508 192.143C102.042 192.143 102.522 192.009 102.947 191.742C103.382 191.474 103.723 191.113 103.97 190.657C104.227 190.192 104.355 189.672 104.355 189.098C104.355 188.524 104.227 188.009 103.97 187.553C103.723 187.088 103.382 186.722 102.947 186.454C102.522 186.187 102.042 186.053 101.508 186.053C100.984 186.053 100.51 186.187 100.085 186.454C99.6598 186.722 99.3237 187.083 99.0765 187.538C98.8393 187.994 98.7207 188.514 98.7207 189.098C98.7207 189.672 98.8393 190.192 99.0765 190.657C99.3237 191.113 99.6548 191.474 100.07 191.742C100.495 192.009 100.975 192.143 101.508 192.143Z" fill="white"/>
  <path d="M111.369 193.256C110.627 193.256 109.955 193.078 109.352 192.722C108.759 192.355 108.29 191.855 107.944 191.222C107.598 190.588 107.425 189.87 107.425 189.068C107.425 188.266 107.593 187.558 107.929 186.944C108.265 186.321 108.72 185.83 109.293 185.474C109.876 185.117 110.529 184.939 111.25 184.939C111.824 184.939 112.333 185.048 112.777 185.266C113.232 185.474 113.618 185.761 113.934 186.127C114.25 186.484 114.493 186.89 114.661 187.345C114.829 187.791 114.913 188.251 114.913 188.727C114.913 188.826 114.908 188.939 114.898 189.068C114.888 189.187 114.873 189.311 114.853 189.439H108.136V188.4H114.216L113.682 188.845C113.771 188.301 113.707 187.816 113.489 187.39C113.282 186.954 112.98 186.613 112.585 186.365C112.189 186.108 111.744 185.979 111.25 185.979C110.756 185.979 110.296 186.108 109.871 186.365C109.456 186.623 109.13 186.984 108.893 187.449C108.655 187.905 108.561 188.449 108.611 189.083C108.561 189.717 108.66 190.271 108.907 190.746C109.164 191.212 109.51 191.573 109.945 191.831C110.39 192.088 110.865 192.217 111.369 192.217C111.952 192.217 112.441 192.078 112.837 191.801C113.232 191.524 113.553 191.177 113.801 190.761L114.75 191.266C114.591 191.623 114.349 191.954 114.023 192.261C113.697 192.558 113.306 192.801 112.852 192.989C112.407 193.167 111.913 193.256 111.369 193.256Z" fill="white"/>
  <path d="M116.873 193.078V185.117H117.986V186.424L117.837 186.231C118.025 185.855 118.307 185.558 118.682 185.34C119.068 185.122 119.533 185.014 120.076 185.014H120.58V186.127H119.884C119.31 186.127 118.851 186.306 118.505 186.662C118.159 187.019 117.986 187.524 117.986 188.177V193.078H116.873Z" fill="white"/>
  <path d="M41.4218 214.474C40.72 214.474 40.0676 214.345 39.4646 214.088C38.8714 213.83 38.3574 213.474 37.9225 213.018C37.4974 212.553 37.186 212.013 36.9883 211.399L38.6638 210.672C38.9307 211.305 39.3163 211.805 39.8204 212.172C40.3246 212.528 40.893 212.706 41.5256 212.706C41.8815 212.706 42.188 212.652 42.445 212.543C42.7119 212.424 42.9145 212.266 43.0529 212.068C43.2012 211.87 43.2753 211.632 43.2753 211.355C43.2753 211.028 43.1765 210.761 42.9788 210.553C42.791 210.335 42.5043 210.167 42.1188 210.048L39.9984 209.365C39.1383 209.097 38.4909 208.696 38.0559 208.162C37.6209 207.627 37.4035 206.998 37.4035 206.275C37.4035 205.642 37.5567 205.082 37.8631 204.597C38.1795 204.112 38.6144 203.736 39.168 203.468C39.7315 203.191 40.374 203.053 41.0956 203.053C41.7579 203.053 42.3659 203.171 42.9195 203.409C43.473 203.637 43.9475 203.959 44.343 204.374C44.7483 204.78 45.0498 205.261 45.2475 205.815L43.5867 206.558C43.3693 206.003 43.043 205.577 42.6081 205.28C42.1731 204.973 41.669 204.82 41.0956 204.82C40.7595 204.82 40.463 204.879 40.206 204.998C39.9489 205.107 39.7463 205.266 39.598 205.473C39.4596 205.671 39.3904 205.909 39.3904 206.186C39.3904 206.493 39.4893 206.766 39.687 207.003C39.8847 207.231 40.1862 207.409 40.5915 207.538L42.6229 208.177C43.5027 208.464 44.1601 208.86 44.595 209.365C45.0399 209.87 45.2623 210.493 45.2623 211.236C45.2623 211.87 45.0992 212.429 44.773 212.914C44.4468 213.4 43.997 213.781 43.4236 214.058C42.8503 214.335 42.183 214.474 41.4218 214.474Z" fill="white"/>
  <path d="M50.7406 214.474C49.9103 214.474 49.1837 214.286 48.5609 213.91C47.9382 213.533 47.4538 213.023 47.1078 212.38C46.7618 211.736 46.5888 211.023 46.5888 210.241C46.5888 209.429 46.7618 208.711 47.1078 208.087C47.4637 207.454 47.9431 206.954 48.5461 206.587C49.159 206.221 49.8411 206.038 50.5924 206.038C51.225 206.038 51.7786 206.142 52.2531 206.35C52.7375 206.558 53.1477 206.845 53.4838 207.211C53.8199 207.578 54.0769 207.998 54.2549 208.474C54.4328 208.939 54.5218 209.444 54.5218 209.989C54.5218 210.127 54.5119 210.271 54.4921 210.419C54.4822 210.568 54.4575 210.696 54.418 210.805H48.1902V209.32H53.3207L52.4014 210.018C52.4903 209.563 52.4656 209.157 52.3272 208.8C52.1987 208.444 51.9812 208.162 51.6748 207.954C51.3782 207.746 51.0174 207.642 50.5924 207.642C50.1871 207.642 49.8262 207.746 49.5099 207.954C49.1936 208.152 48.9514 208.449 48.7833 208.845C48.6252 209.231 48.5659 209.701 48.6054 210.256C48.5659 210.751 48.6301 211.192 48.7982 211.578C48.9761 211.954 49.2331 212.246 49.5692 212.454C49.9152 212.662 50.3106 212.766 50.7555 212.766C51.2003 212.766 51.5759 212.672 51.8824 212.484C52.1987 212.296 52.4459 212.043 52.6238 211.726L54.1955 212.499C54.0374 212.885 53.7903 213.226 53.4542 213.523C53.1181 213.82 52.7177 214.053 52.2531 214.221C51.7984 214.39 51.2942 214.474 50.7406 214.474Z" fill="white"/>
  <path d="M55.9942 214.296V206.216H57.9367V214.296H55.9942ZM55.9942 205.31V203.231H57.9367V205.31H55.9942Z" fill="white"/>
  <path d="M60.6644 214.296V207.954H59.2409V206.216H60.6644V205.949C60.6644 205.335 60.7879 204.815 61.0351 204.389C61.2921 203.954 61.648 203.622 62.1027 203.394C62.5574 203.166 63.0961 203.053 63.7189 203.053C63.8375 203.053 63.9661 203.062 64.1045 203.082C64.2527 203.092 64.3763 203.107 64.4752 203.127V204.805C64.3763 204.785 64.2824 204.775 64.1934 204.775C64.1143 204.766 64.0402 204.761 63.971 204.761C63.536 204.761 63.1999 204.86 62.9627 205.058C62.7254 205.246 62.6068 205.543 62.6068 205.949V206.216H64.401V207.954H62.6068V214.296H60.6644Z" fill="white"/>
  <path d="M72.4968 214.474C71.795 214.474 71.1426 214.345 70.5396 214.088C69.9464 213.83 69.4324 213.474 68.9974 213.018C68.5724 212.553 68.261 212.013 68.0633 211.399L69.7388 210.672C70.0057 211.305 70.3913 211.805 70.8954 212.172C71.3996 212.528 71.968 212.706 72.6006 212.706C72.9565 212.706 73.263 212.652 73.52 212.543C73.7869 212.424 73.9895 212.266 74.1279 212.068C74.2762 211.87 74.3503 211.632 74.3503 211.355C74.3503 211.028 74.2515 210.761 74.0538 210.553C73.866 210.335 73.5793 210.167 73.1938 210.048L71.0734 209.365C70.2133 209.097 69.5658 208.696 69.1309 208.162C68.6959 207.627 68.4785 206.998 68.4785 206.275C68.4785 205.642 68.6317 205.082 68.9381 204.597C69.2545 204.112 69.6894 203.736 70.243 203.468C70.8065 203.191 71.449 203.053 72.1706 203.053C72.8329 203.053 73.4409 203.171 73.9945 203.409C74.548 203.637 75.0225 203.959 75.4179 204.374C75.8232 204.78 76.1247 205.261 76.3225 205.815L74.6617 206.558C74.4442 206.003 74.118 205.577 73.6831 205.28C73.2481 204.973 72.744 204.82 72.1706 204.82C71.8345 204.82 71.538 204.879 71.281 204.998C71.0239 205.107 70.8213 205.266 70.673 205.473C70.5346 205.671 70.4654 205.909 70.4654 206.186C70.4654 206.493 70.5643 206.766 70.762 207.003C70.9597 207.231 71.2612 207.409 71.6665 207.538L73.6979 208.177C74.5777 208.464 75.2351 208.86 75.67 209.365C76.1149 209.87 76.3373 210.493 76.3373 211.236C76.3373 211.87 76.1742 212.429 75.848 212.914C75.5217 213.4 75.072 213.781 74.4986 214.058C73.9253 214.335 73.258 214.474 72.4968 214.474Z" fill="white"/>
  <path d="M79.8766 214.296L77.1038 206.216H79.1501L81.1815 212.35L80.4698 212.335L82.6346 206.216H84.3547L86.5047 212.335L85.793 212.35L87.8244 206.216H89.8707L87.0979 214.296H85.363L83.1684 207.894H83.8209L81.5967 214.296H79.8766Z" fill="white"/>
  <path d="M94.6163 214.474C93.786 214.474 93.0594 214.286 92.4366 213.91C91.8138 213.533 91.3295 213.023 90.9835 212.38C90.6375 211.736 90.4645 211.023 90.4645 210.241C90.4645 209.429 90.6375 208.711 90.9835 208.087C91.3394 207.454 91.8188 206.954 92.4218 206.587C93.0347 206.221 93.7168 206.038 94.4681 206.038C95.1007 206.038 95.6543 206.142 96.1288 206.35C96.6132 206.558 97.0234 206.845 97.3595 207.211C97.6956 207.578 97.9526 207.998 98.1306 208.474C98.3085 208.939 98.3975 209.444 98.3975 209.989C98.3975 210.127 98.3876 210.271 98.3678 210.419C98.3579 210.568 98.3332 210.696 98.2937 210.805H92.0659V209.32H97.1964L96.2771 210.018C96.366 209.563 96.3413 209.157 96.2029 208.8C96.0744 208.444 95.8569 208.162 95.5505 207.954C95.2539 207.746 94.8931 207.642 94.4681 207.642C94.0628 207.642 93.7019 207.746 93.3856 207.954C93.0693 208.152 92.8271 208.449 92.659 208.845C92.5009 209.231 92.4416 209.701 92.4811 210.256C92.4416 210.751 92.5058 211.192 92.6739 211.578C92.8518 211.954 93.1088 212.246 93.4449 212.454C93.7909 212.662 94.1863 212.766 94.6312 212.766C95.076 212.766 95.4516 212.672 95.7581 212.484C96.0744 212.296 96.3215 212.043 96.4995 211.726L98.0712 212.499C97.9131 212.885 97.6659 213.226 97.3298 213.523C96.9937 213.82 96.5934 214.053 96.1288 214.221C95.6741 214.39 95.1699 214.474 94.6163 214.474Z" fill="white"/>
  <path d="M99.8699 214.296V206.216H101.812V214.296H99.8699ZM99.8699 205.31V203.231H101.812V205.31H99.8699Z" fill="white"/>
  <path d="M103.606 214.296V203.053H105.548V214.296H103.606Z" fill="white"/>
  <path d="M111.167 214.474C110.337 214.474 109.611 214.286 108.988 213.91C108.365 213.533 107.881 213.023 107.535 212.38C107.189 211.736 107.016 211.023 107.016 210.241C107.016 209.429 107.189 208.711 107.535 208.087C107.89 207.454 108.37 206.954 108.973 206.587C109.586 206.221 110.268 206.038 111.019 206.038C111.652 206.038 112.205 206.142 112.68 206.35C113.164 206.558 113.575 206.845 113.911 207.211C114.247 207.578 114.504 207.998 114.682 208.474C114.86 208.939 114.949 209.444 114.949 209.989C114.949 210.127 114.939 210.271 114.919 210.419C114.909 210.568 114.884 210.696 114.845 210.805H108.617V209.32H113.748L112.828 210.018C112.917 209.563 112.892 209.157 112.754 208.8C112.626 208.444 112.408 208.162 112.102 207.954C111.805 207.746 111.444 207.642 111.019 207.642C110.614 207.642 110.253 207.746 109.937 207.954C109.62 208.152 109.378 208.449 109.21 208.845C109.052 209.231 108.993 209.701 109.032 210.256C108.993 210.751 109.057 211.192 109.225 211.578C109.403 211.954 109.66 212.246 109.996 212.454C110.342 212.662 110.737 212.766 111.182 212.766C111.627 212.766 112.003 212.672 112.309 212.484C112.626 212.296 112.873 212.043 113.051 211.726L114.622 212.499C114.464 212.885 114.217 213.226 113.881 213.523C113.545 213.82 113.145 214.053 112.68 214.221C112.225 214.39 111.721 214.474 111.167 214.474Z" fill="white"/>
  <path d="M116.421 214.296V206.216H118.245V208.087L118.037 207.776C118.186 207.191 118.482 206.756 118.927 206.469C119.372 206.181 119.896 206.038 120.499 206.038C121.161 206.038 121.744 206.211 122.248 206.558C122.753 206.904 123.079 207.36 123.227 207.924L122.678 207.969C122.926 207.325 123.296 206.845 123.791 206.528C124.285 206.201 124.853 206.038 125.496 206.038C126.069 206.038 126.578 206.167 127.023 206.424C127.478 206.681 127.834 207.043 128.091 207.508C128.348 207.964 128.476 208.493 128.476 209.097V214.296H126.534V209.558C126.534 209.201 126.469 208.894 126.341 208.637C126.212 208.38 126.035 208.182 125.807 208.043C125.58 207.894 125.303 207.82 124.977 207.82C124.67 207.82 124.399 207.894 124.161 208.043C123.924 208.182 123.741 208.38 123.613 208.637C123.484 208.894 123.42 209.201 123.42 209.558V214.296H121.477V209.558C121.477 209.201 121.413 208.894 121.285 208.637C121.156 208.38 120.973 208.182 120.736 208.043C120.509 207.894 120.237 207.82 119.92 207.82C119.614 207.82 119.342 207.894 119.105 208.043C118.868 208.182 118.685 208.38 118.556 208.637C118.428 208.894 118.364 209.201 118.364 209.558V214.296H116.421Z" fill="white"/>
  <path d="M321.933 193.078V182.013H329.05V183.127H323.119V186.974H328.753V188.088H323.119V191.964H329.05V193.078H321.933Z" fill="white"/>
  <path d="M329.87 193.078L332.658 189.098L329.885 185.117H331.249L333.71 188.697H332.954L335.401 185.117H336.765L333.992 189.098L336.765 193.078H335.401L332.954 189.499H333.71L331.249 193.078H329.87Z" fill="white"/>
  <path d="M338.074 196.049V185.117H339.186V186.9L339.009 186.588C339.325 186.083 339.745 185.682 340.269 185.385C340.803 185.088 341.411 184.939 342.093 184.939C342.844 184.939 343.511 185.122 344.095 185.489C344.688 185.845 345.152 186.335 345.488 186.959C345.834 187.583 346.007 188.296 346.007 189.098C346.007 189.89 345.834 190.603 345.488 191.237C345.152 191.86 344.688 192.355 344.095 192.722C343.511 193.078 342.844 193.256 342.093 193.256C341.411 193.256 340.793 193.103 340.239 192.796C339.696 192.479 339.285 192.034 339.009 191.459L339.186 191.296V196.049H338.074ZM342.033 192.143C342.567 192.143 343.042 192.009 343.457 191.742C343.882 191.474 344.213 191.113 344.45 190.657C344.698 190.192 344.821 189.672 344.821 189.098C344.821 188.514 344.698 187.994 344.45 187.538C344.213 187.083 343.882 186.722 343.457 186.454C343.042 186.187 342.567 186.053 342.033 186.053C341.5 186.053 341.015 186.187 340.58 186.454C340.155 186.722 339.814 187.088 339.557 187.553C339.31 188.009 339.186 188.524 339.186 189.098C339.186 189.672 339.31 190.192 339.557 190.657C339.814 191.113 340.155 191.474 340.58 191.742C341.015 192.009 341.5 192.143 342.033 192.143Z" fill="white"/>
  <path d="M347.965 193.078V185.117H349.077V193.078H347.965ZM347.965 183.647V182.013H349.077V183.647H347.965Z" fill="white"/>
  <path d="M351.353 193.078V185.117H352.465V186.424L352.317 186.231C352.505 185.855 352.786 185.558 353.162 185.34C353.548 185.122 354.012 185.014 354.556 185.014H355.06V186.127H354.363C353.79 186.127 353.33 186.306 352.984 186.662C352.638 187.019 352.465 187.524 352.465 188.177V193.078H351.353Z" fill="white"/>
  <path d="M359.981 193.256C359.24 193.256 358.568 193.078 357.965 192.722C357.371 192.355 356.902 191.855 356.556 191.222C356.21 190.588 356.037 189.87 356.037 189.068C356.037 188.266 356.205 187.558 356.541 186.944C356.877 186.321 357.332 185.83 357.905 185.474C358.488 185.117 359.141 184.939 359.863 184.939C360.436 184.939 360.945 185.048 361.39 185.266C361.845 185.474 362.23 185.761 362.546 186.127C362.863 186.484 363.105 186.89 363.273 187.345C363.441 187.791 363.525 188.251 363.525 188.727C363.525 188.826 363.52 188.939 363.51 189.068C363.5 189.187 363.486 189.311 363.466 189.439H356.749V188.4H362.828L362.294 188.845C362.383 188.301 362.319 187.816 362.102 187.39C361.894 186.954 361.592 186.613 361.197 186.365C360.802 186.108 360.357 185.979 359.863 185.979C359.368 185.979 358.909 186.108 358.484 186.365C358.068 186.623 357.742 186.984 357.505 187.449C357.268 187.905 357.174 188.449 357.223 189.083C357.174 189.717 357.273 190.271 357.52 190.746C357.777 191.212 358.123 191.573 358.558 191.831C359.003 192.088 359.477 192.217 359.981 192.217C360.564 192.217 361.054 192.078 361.449 191.801C361.845 191.524 362.166 191.177 362.413 190.761L363.362 191.266C363.204 191.623 362.962 191.954 362.635 192.261C362.309 192.558 361.919 192.801 361.464 192.989C361.019 193.167 360.525 193.256 359.981 193.256Z" fill="white"/>
  <path d="M327.885 214.296V204.954H325.749V203.231H329.901V214.296H327.885Z" fill="white"/>
  <path d="M333.865 214.296V204.954H331.73V203.231H335.882V214.296H333.865Z" fill="white"/>
  <path d="M337.517 216.078L342.44 203.825H344.561L339.638 216.078H337.517Z" fill="white"/>
  <path d="M349.126 214.474C348.523 214.474 347.949 214.365 347.406 214.147C346.872 213.919 346.412 213.603 346.027 213.197C345.651 212.781 345.394 212.291 345.256 211.726L347.02 211.102C347.198 211.607 347.47 211.994 347.836 212.261C348.201 212.518 348.631 212.647 349.126 212.647C349.521 212.647 349.862 212.573 350.149 212.424C350.445 212.276 350.678 212.063 350.846 211.786C351.014 211.498 351.098 211.162 351.098 210.776C351.098 210.39 351.014 210.063 350.846 209.795C350.688 209.518 350.46 209.305 350.164 209.157C349.867 209.008 349.516 208.934 349.111 208.934C348.923 208.934 348.725 208.954 348.518 208.993C348.32 209.033 348.142 209.092 347.984 209.172L347.524 208.206L350.386 204.939H345.878V203.231H352.655V204.82L349.778 208.191L349.808 207.434C350.47 207.444 351.048 207.587 351.543 207.865C352.037 208.142 352.422 208.523 352.699 209.008C352.976 209.493 353.114 210.063 353.114 210.716C353.114 211.429 352.941 212.073 352.595 212.647C352.249 213.211 351.775 213.657 351.172 213.984C350.569 214.311 349.887 214.474 349.126 214.474Z" fill="white"/>
  <path d="M359.095 214.474C358.215 214.474 357.444 214.236 356.782 213.761C356.119 213.286 355.6 212.617 355.225 211.756C354.859 210.895 354.676 209.894 354.676 208.756C354.676 207.607 354.859 206.607 355.225 205.756C355.591 204.904 356.105 204.241 356.767 203.765C357.429 203.29 358.2 203.053 359.08 203.053C359.98 203.053 360.756 203.29 361.408 203.765C362.07 204.241 362.589 204.909 362.965 205.771C363.341 206.622 363.528 207.617 363.528 208.756C363.528 209.894 363.341 210.895 362.965 211.756C362.599 212.607 362.085 213.276 361.423 213.761C360.761 214.236 359.985 214.474 359.095 214.474ZM359.11 212.632C359.614 212.632 360.044 212.479 360.4 212.172C360.756 211.855 361.027 211.409 361.215 210.835C361.413 210.251 361.512 209.558 361.512 208.756C361.512 207.954 361.413 207.266 361.215 206.691C361.027 206.107 360.751 205.662 360.385 205.355C360.029 205.048 359.594 204.894 359.08 204.894C358.586 204.894 358.161 205.048 357.805 205.355C357.449 205.662 357.172 206.107 356.974 206.691C356.787 207.266 356.693 207.954 356.693 208.756C356.693 209.548 356.787 210.236 356.974 210.82C357.172 211.395 357.449 211.84 357.805 212.157C358.171 212.474 358.606 212.632 359.11 212.632Z" fill="white"/>
  <defs>
    <linearGradient id="paint0_linear_301_1494" x1="184.29" y1="11.6696" x2="367.946" y2="297.832" gradientUnits="userSpaceOnUse">
      <stop stop-color="#4EBA64"/>
      <stop offset="1" stop-color="#D2E171"/>
    </linearGradient>
  </defs>
</svg>