<svg xmlns="http://www.w3.org/2000/svg" width="40" height="40" viewBox="0 0 40 40" fill="none">
<path d="M38.4711 10.2489H21.6515C21.0809 9.68983 20.358 9.31169 19.5734 9.16185C18.7888 9.01202 17.9774 9.09716 17.241 9.40661C16.5045 9.71605 15.8759 10.236 15.4338 10.9013C14.9917 11.5666 14.7559 12.3477 14.7559 13.1464C14.7559 13.9452 14.9917 14.7263 15.4338 15.3916C15.8759 16.0569 16.5045 16.5768 17.241 16.8863C17.9774 17.1957 18.7888 17.2809 19.5734 17.131C20.358 16.9812 21.0809 16.6031 21.6515 16.044H38.4711C38.6248 16.044 38.7722 15.983 38.8809 15.8743C38.9896 15.7656 39.0506 15.6182 39.0506 15.4645V10.8284C39.0506 10.6747 38.9896 10.5273 38.8809 10.4186C38.7722 10.3099 38.6248 10.2489 38.4711 10.2489Z" fill="white"/>
<path d="M23.8362 1H12.4042C11.6462 1 10.9193 1.30111 10.3833 1.83709C9.84734 2.37307 9.54623 3.10001 9.54623 3.858L9 36.6837C9 37.4417 9.30111 38.1686 9.83709 38.7046C10.3731 39.2406 11.1 39.5417 11.858 39.5417H23.29C24.0479 39.5417 24.7749 39.2406 25.3109 38.7046C25.8468 38.1686 26.148 37.4417 26.148 36.6837L26.6942 18.148H22.8737C21.5557 19.2127 19.8707 19.7143 18.1849 19.5436C16.4992 19.3728 14.9489 18.5437 13.8711 17.2363C13.1641 16.3794 12.6912 15.3539 12.4984 14.2598C12.3056 13.1658 12.3995 12.0404 12.771 10.9935C13.1425 9.94649 13.779 9.01363 14.6182 8.28578C15.4575 7.55794 16.471 7.05994 17.56 6.84032C17.98 6.75824 18.4068 6.71661 18.8347 6.716C20.3052 6.71289 21.7317 7.21767 22.873 8.145H26.6942V3.858C26.6942 3.10001 26.3931 2.37307 25.8571 1.83709C25.3211 1.30111 24.5942 1 23.8362 1ZM17.574 24.5372C18.2021 24.5343 18.8135 24.7393 19.3129 25.1202C19.8123 25.5012 20.1716 26.0368 20.3348 26.6433C20.4979 27.2499 20.4557 27.8934 20.2148 28.4735C19.9739 29.0536 19.5478 29.5377 19.003 29.8502V33.1112C19.003 33.3007 18.9277 33.4824 18.7937 33.6164C18.6597 33.7504 18.478 33.8257 18.2885 33.8257H16.8595C16.67 33.8257 16.4882 33.7504 16.3543 33.6164C16.2203 33.4824 16.145 33.3007 16.145 33.1112V29.8502C15.6001 29.5377 15.174 29.0536 14.9331 28.4735C14.6922 27.8934 14.65 27.2499 14.8132 26.6433C14.9763 26.0368 15.3356 25.5012 15.835 25.1202C16.3344 24.7393 16.9459 24.5343 17.574 24.5372Z" fill="white"/>
</svg>