<svg xmlns="http://www.w3.org/2000/svg" width="59" height="59" viewBox="0 0 59 59" fill="none">
<path d="M42.3026 11.7335C41.4811 12.5881 41.0331 13.7335 41.0574 14.9178C41.1078 17.3841 43.1509 19.3426 45.6208 19.2922C46.8068 19.268 47.9347 18.7744 48.7563 17.9198L54.7011 11.7362C55.8765 14.0702 56.2985 16.7106 55.9088 19.2939C55.5191 21.8772 54.337 24.2764 52.5251 26.161C50.7133 28.0456 48.3609 29.323 45.7918 29.8172C43.2228 30.3115 40.5635 29.9983 38.1801 28.9208C35.0335 26.5786 33.6374 25.2218 31.7265 22.7345C30.551 20.4005 30.1291 17.7601 30.5188 15.1768C30.9084 12.5935 32.0906 10.1943 33.9024 8.30968C35.7143 6.42507 38.0667 5.14769 40.6357 4.65344C43.2048 4.1592 45.8641 4.4724 48.2474 5.54992L42.3026 11.7335Z" fill="white"/>
<path d="M20.0833 35.0854L26.5703 41.2362L16.9397 51.4522C16.1181 52.3068 14.9903 52.8005 13.8042 52.8246C12.6181 52.8488 11.471 52.4015 10.6152 51.5812C9.7594 50.7608 9.26502 49.6346 9.2408 48.4503C9.21658 47.2659 9.66452 46.1205 10.4861 45.2659L20.0833 35.0854Z" fill="white"/>
<path d="M28.2692 24.0474L49.3506 44.0362C51.4344 46.0121 51.5453 49.2919 49.5997 51.4036C47.6101 53.5629 44.2351 53.6766 42.1043 51.6562L21.023 31.6674C19.3061 30.0395 18.9285 27.5264 19.9369 25.5108L10.1504 16.0765L8.33559 17.8904L2.94995 10.6356L6.28093 6.95669L14.0686 12.1601L12.2685 13.9593L21.983 23.3242C23.9516 22.1701 26.5265 22.395 28.2692 24.0474Z" fill="white"/>
</svg>